# XLeRobot camera CAD in SO101 gripper_link metres
v -0.01112781306 0.02432760213 -0.02753441742
v -0.005871381051 0.02420728796 -0.02456784545
v -0.006279157051 0.02421539734 -0.02378066488
v -0.006011416068 0.02621014299 -0.02434814342
v -0.006288632079 0.02621646331 -0.02348324251
v -0.007119534486 0.02424865293 -0.01433942932
v -0.007827850328 0.02425880567 -0.01482583596
v -0.006745428291 0.02424393022 -0.01369893273
v -0.006235837638 0.0242164105 -0.02289256529
v -0.0085937066 0.02427097757 -0.01487949581
v -0.005329785759 0.02619792779 -0.02493151521
v -0.004969058644 0.0241917253 -0.02506608587
v -0.006020159093 0.02620742337 -0.02575106352
v -0.007127958236 0.02622777912 -0.02443334124
v -0.006739821773 0.02622017024 -0.02511285511
v -0.007185803641 0.02623271739 -0.02255612538
v -0.006080962506 0.02621487854 -0.02260556364
v -0.007316680741 0.0262332227 -0.0232818459
v -0.007290081719 0.02623163275 -0.02382567944
v -0.006684115378 0.02424442191 -0.01315954295
v -0.005827916454 0.02421154048 -0.02225275572
v -0.006796198102 0.02224480217 -0.01374463136
v -0.006717601433 0.02224518683 -0.01301699727
v -0.007242216003 0.02225035853 -0.01443252481
v -0.007958703591 0.02226114883 -0.01482929143
v -0.008576712618 0.02227069903 -0.0148817753
v -0.009112288346 0.02227949786 -0.01473885896
v -0.009276812358 0.02428242988 -0.01465279565
v -0.008417861442 0.02227165727 -0.01317811513
v -0.006879150565 0.02224890528 -0.01243251129
v -0.006834940781 0.02424828861 -0.01240091854
v 0.001988174181 0.02408700166 -0.02257184074
v -0.004110249013 0.02418494276 -0.02185071363
v 0.002432322794 0.02408069061 -0.02208371786
v -0.004740998069 0.0241953506 -0.02176591522
v -0.005320840393 0.02420432622 -0.02189385244
v -0.005449839752 0.02620615454 -0.02197412063
v -0.0067529012 0.02622753067 -0.02174794076
v -0.007066274197 0.02823133847 -0.02231330385
v -0.007274263098 0.02823300625 -0.02312910188
v -0.00727672637 0.02823183826 -0.02369032115
v -0.007172296735 0.02822906118 -0.02421509724
v -0.01107258641 0.02828966434 -0.02637267843
v -0.006582173384 0.02822530202 -0.02159408248
v -0.01113136307 0.02831837164 -0.01038747271
v -0.006317582333 0.02622149783 -0.02132496467
v -0.004488564589 0.02619150131 -0.02173328816
v -0.005704404931 0.02621266374 -0.02093024559
v -0.003420824669 0.02417312469 -0.02228338615
v -0.003633063649 0.0261772041 -0.02207092407
v 0.001798805989 0.02408829409 -0.02322000216
v 0.001868682266 0.02608814664 -0.02293958282
v 0.002456183982 0.02608057283 -0.02206140893
v 0.00293968188 0.02407306883 -0.02180357359
v 0.003187125917 0.02606957928 -0.02175363171
v 0.002720682007 0.02607907976 -0.02079052913
v 0.001931114373 0.02609096421 -0.02115740865
v 0.001487556187 0.02609705163 -0.0215717828
v 0.001067280443 0.02610263389 -0.02214838764
v 0.0008028300977 0.02610498707 -0.02296857319
v 0.001896488466 0.02608531313 -0.02397235995
v 0.00189378249 0.02408551855 -0.02402820367
v 0.003108936618 0.02406387025 -0.02502811562
v -0.00311952877 0.02416734227 -0.02279548359
v -0.003086603164 0.02616709505 -0.02272614541
v 0.002391595413 0.02407604549 -0.02467521214
v -0.002813498515 0.0261657743 -0.02139113941
v -0.003615971453 0.0261796079 -0.02089507314
v -0.004479098778 0.02619364387 -0.02071861911
v -0.005053023725 0.02620264581 -0.02075484373
v -0.00556073595 0.02821051891 -0.02090431166
v -0.004986627717 0.02820170449 -0.02074598661
v -0.00605094387 0.02821785129 -0.02115444875
v -0.004264307697 0.02819031625 -0.02073818136
v -0.003408456662 0.02817610269 -0.02097298366
v -0.002253636365 0.02615541882 -0.02208517497
v -0.00268834494 0.02816364573 -0.02148601946
v -0.002953585572 0.02616305143 -0.02360651512
v -0.00298363115 0.02416393888 -0.02332580684
v -0.00197688564 0.0261494723 -0.0228169784
v 0.003982358668 0.02404994515 -0.02497384354
v 0.006459523467 0.02400617912 -0.02702646964
v 0.003366253403 0.02605971054 -0.02506398205
v -0.003180577643 0.02416553658 -0.02424894933
v 0.00243767243 0.02607507012 -0.02471065832
v 0.002487433844 0.02607197954 -0.02591297796
v 0.002017266914 0.02607991282 -0.02566126374
v 0.00154310978 0.02608827101 -0.02529106995
v 0.00334142851 0.02605798863 -0.0261028958
v 0.004237148854 0.02604629189 -0.02488085224
v 0.004302664581 0.02604295629 -0.02598217295
v 0.004693758726 0.02403945218 -0.02450483642
v 0.004890166105 0.02603714028 -0.02430156761
v 0.005209033143 0.02602961666 -0.02549265509
v 0.004845749051 0.02803496571 -0.02575671765
v 0.004025678639 0.02804728972 -0.02606247298
v 0.003169460763 0.02806081189 -0.02608684476
v 0.002391700908 0.0280737251 -0.02586060524
v 0.001869703202 0.02808272449 -0.02554175458
v 0.001030939135 0.02609798676 -0.02454782837
v 0.001395596181 0.02809108502 -0.02509169537
v -0.001881126359 0.02814627785 -0.02366369581
v -0.00203258057 0.02814732606 -0.02431328512
v -0.002314936268 0.0281504438 -0.02491758763
v 0.006523054828 0.0280056663 -0.02703498411
v 0.005465471256 0.02802618396 -0.02527428045
v 0.005788778955 0.02602177446 -0.02481787382
v 0.005104145111 0.02403497776 -0.02371263426
v 0.00515624457 0.02603482798 -0.02341520343
v 0.006083991286 0.02601859292 -0.02413425476
v 0.004998357889 0.02403817035 -0.02275905093
v 0.01580472517 0.02389829763 -0.007991148902
v 0.006201583354 0.026018338 -0.02340580816
v 0.004829543496 0.02604209299 -0.02237236418
v 0.00597345595 0.02801964435 -0.02455107251
v 0.00619221248 0.02801786302 -0.02374920867
v -0.004945963293 0.02818984236 -0.02611339392
v 0.006498886586 0.02800473422 -0.02708413763
v -0.004237372856 0.02817846626 -0.0261074858
v 0.01139404969 0.02794204937 -0.01710486188
v 0.006049212894 0.0275756933 -0.02798474437
v -0.003540527836 0.02816769438 -0.02593846244
v -0.002859917739 0.02815793746 -0.02551115964
v -0.002519717002 0.02615300121 -0.02514741203
v -0.002042725094 0.02614742506 -0.02428753665
v -0.001909566502 0.0261469419 -0.02347824847
v -0.0032977815 0.02616692431 -0.02444875538
v -0.003206188262 0.02616281662 -0.02573673838
v -0.004055993168 0.0261776251 -0.02502321319
v -0.003777713418 0.02617129884 -0.02599104533
v -0.004468604906 0.02618196104 -0.02613743886
v -0.005640918884 0.0282011716 -0.02591516718
v -0.005327640294 0.02619576722 -0.02603477745
v -0.004752733433 0.02618857797 -0.02507124835
v -0.004191811621 0.02417983148 -0.02501275239
v -0.003692953619 0.02417205402 -0.02477425749
v -0.001952402361 0.02814922647 -0.02275745514
v 0.002285034017 0.02808587466 -0.02097316442
v -0.002253912707 0.02815543155 -0.0220504613
v 0.001615026002 0.02809545066 -0.02147220931
v 0.001187586427 0.02810097497 -0.02200498997
v 0.0008902452066 0.02810425136 -0.02272211242
v 0.0008074887581 0.02810371097 -0.02358143676
v 0.0009912783537 0.02809901305 -0.02439524162
v 0.003011387524 0.02807476304 -0.02074014697
v 0.01533648483 0.02624087935 -0.009025279764
v 0.006002056808 0.02457797044 -0.02797695766
v 0.01502636791 0.02792361172 -0.00971020634
v 0.006036460545 0.02802315534 -0.02242235027
v 0.005645786665 0.02803093862 -0.0217153322
v 0.006217633048 0.02801866397 -0.02315447711
v 0.003708539102 0.02806368989 -0.02069049312
v 0.005094320339 0.02804068899 -0.02120112117
v 0.00454589797 0.02805005762 -0.02088888354
v 0.003541055057 0.02606638906 -0.02067851615
v 0.004021348996 0.02605620258 -0.02179080881
v 0.004412775687 0.02605228401 -0.0208413124
v 0.005095853402 0.02604054107 -0.02121481406
v 0.005532263235 0.02603266056 -0.02163319042
v 0.005893209787 0.02602593126 -0.02213807752
v 0.006088906276 0.02602158878 -0.02268567492
v 0.004457487808 0.02404810088 -0.02204625798
v 0.003707451557 0.0240611638 -0.02173772373
v 0.02029166451 0.02384023449 -0.008165036453
v 0.02028049916 0.02387415221 -0.005489310433
v -0.01120476682 0.02432700167 -0.008092975178
v 0.01578055359 0.0238997773 -0.008040310707
v -0.007456419549 0.02425966055 -0.01173167942
v -0.007218155983 0.02225525455 -0.01196572548
v -0.007795122129 0.02226502693 -0.01157613451
v -0.008269786803 0.0242730276 -0.01147288178
v -0.01470703148 0.02443402192 -0.005706681104
v -0.01470141363 0.02444322736 -0.008525170581
v -0.01120452436 0.02432809372 -0.008142044909
v -0.0101174956 0.02429906062 -0.01300845971
v -0.009107367921 0.0242860327 -0.01160591579
v -0.009796925234 0.02429584441 -0.0122055981
v -0.01470242477 0.02494876854 -0.005178297942
v 0.02028998767 0.02457115653 -0.004989764336
v 0.02048317439 0.03581655646 -0.008992068424
v 0.02046627419 0.03576326424 -0.00497366882
v -0.01452373917 0.0363557266 -0.005098658649
v -0.0145091088 0.03634346901 -0.009127365659
v -0.01120405259 0.02433749253 -0.008239727409
v -0.01120428571 0.02433159427 -0.008191002242
v -0.01119557562 0.02470458793 -0.008954738322
v -0.0146893436 0.02507597446 -0.00907541672
v -0.01120247941 0.02438698431 -0.008461477589
v -0.01106093727 0.02793021092 -0.02792536144
v -0.0110795894 0.02736541846 -0.02809679017
v -0.01113217522 0.02836765174 -0.009750326829
v -0.01117546756 0.02593775291 -0.009115698666
v -0.01111470938 0.02495322613 -0.0280552918
v -0.0111263395 0.02884310456 -0.009133817016
v 0.01534728931 0.02840492348 -0.009060049956
v -0.01446797777 0.0391917482 -0.007963175448
v 0.02052404018 0.03867985013 -0.007804530718
v 0.02030907613 0.02473131312 -0.008973403172
v 0.02047758006 0.03644062734 -0.004409614671
v -0.01425756117 0.05655012862 0.009291930796
v -0.01428879006 0.05580218571 0.0141990396
v 0.02073477441 0.05603137638 0.009454634931
v 0.0207034468 0.05505707266 0.01415371749
v -0.01427598473 0.05654550603 0.01446911593
v -0.01424719688 0.05719794144 0.009524306363
v 0.02070591602 0.05550012436 0.01450277917
v 0.02074227921 0.05668304469 0.009637215975
v 0.02071742828 0.0561651426 0.01452472181
v 0.003224297287 0.0565834848 0.01439362797
v -0.009336022823 0.06087181978 0.01242881094
v -0.01039382794 0.06053756542 0.01258932398
v -0.01104377596 0.06094469771 0.01240069057
v -0.01121192098 0.06164699915 0.01207147204
v -0.00902390788 0.07096178228 0.007696544905
v -0.01381164539 0.08303592274 0.002052499199
v -0.01415293686 0.06269485555 0.006952956304
v 0.003253938306 0.05726998804 0.009432779614
v -0.009596595208 0.05890450063 0.008715168427
v -0.01116371777 0.06004782373 0.008183734178
v -0.01112640215 0.05920173031 0.00858020676
v -0.01042745094 0.05878579074 0.008772415958
v 0.01624365832 0.05842524678 0.008843522188
v 0.01729782194 0.05845100436 0.008827229557
v 0.0208423664 0.0621393912 0.00708488883
v 0.01775721652 0.05898619935 0.008574934011
v 0.01775472789 0.05954884162 0.008311238906
v 0.01698720421 0.06011293708 0.0126880522
v 0.0159835856 0.06042638984 0.01254300376
v 0.0211837191 0.08248045942 0.002184432635
v 0.01758996649 0.06046813819 0.0125190243
v 0.01786757934 0.06119379427 0.01217746854
v -0.009182926495 0.06161099751 0.01208148958
v 0.00339463377 0.06623706747 0.009866379846
v -0.009210398561 0.05951370891 0.008426349389
v -0.01065590676 0.06233155706 0.0117491438
v -0.004524492071 0.07089037643 0.007713507521
v -0.009037836921 0.06917869408 0.003893865583
v -0.008928077992 0.07639338173 0.005149285584
v -0.01057089669 0.06060621483 0.007920189714
v -0.004604299452 0.06636403401 0.00983622381
v -0.009655162123 0.0622750545 0.01177232732
v -0.009841354446 0.0605395946 0.007947943235
v -0.0093518835 0.06022211748 0.008095167105
v -0.004618289875 0.06458093153 0.006033544363
v 0.01139356673 0.06611011506 0.009896535485
v 0.003380643545 0.06445397898 0.006063700267
v 0.01579414572 0.06105172458 0.01225210463
v 0.01579071282 0.05907257016 0.008541320177
v 0.01731664237 0.06008421417 0.008062501558
v 0.01741466482 0.061790664 0.0118994272
v 0.01648671291 0.06196633629 0.01182102902
v 0.01648587998 0.06012934663 0.008043596656
v 0.0160465706 0.06163598619 0.01197733735
v 0.01594285859 0.05984850079 0.008178923256
v 0.003344715093 0.06241712358 0.007018921939
v 0.01583376257 0.06126077743 0.01215411161
v 0.01586228161 0.0613472116 0.01211347066
v 0.01584683163 0.06130432101 0.01213364411
v 0.01590013848 0.06143065679 0.0120742117
v 0.01588005032 0.06138935975 0.01209364301
v 0.01594702755 0.06151022914 0.01203672026
v 0.01592248443 0.06147096791 0.01205521903
v 0.01597370694 0.06154833619 0.01201875593
v 0.01597278989 0.07056503532 0.007790782751
v 0.01147337409 0.07063644122 0.007773820026
v 0.01137957664 0.0643270115 0.006093856192
v -0.008942006895 0.07461029529 0.001346606859
v -0.01373552489 0.08624365364 -0.004089366016
v -0.004538420997 0.06910727232 0.003910828053
v -0.004428662187 0.07632197587 0.005166248222
v -0.00444265304 0.07453887422 0.001363569304
v -0.0100538581 0.08321112748 -0.002681652788
v -0.01066013732 0.08367747907 -0.002898373222
v 0.02125993822 0.08612030645 -0.004037821309
v 0.003758108596 0.08585085475 -0.003970794916
v -0.01372504372 0.08687311007 -0.004125799538
v -0.009564923606 0.0850557557 -0.003548903361
v -0.0102666747 0.08492914414 -0.00348684107
v -0.01077208345 0.08443082044 -0.00325098048
v -0.01060021177 0.08540392802 0.0009299307436
v -0.01077513788 0.08588418355 0.000705800062
v -0.009287832996 0.08331891795 -0.002735354653
v -0.004362784427 0.07906520007 -0.0007591469808
v -0.00993316971 0.0849682485 0.001131802343
v -0.004348794459 0.08084830331 0.003043533181
v 0.003650138923 0.08072133517 0.003073688154
v 0.003686067557 0.0827581915 0.0021184666
v 0.00363614888 0.07893824762 -0.0007289913074
v -0.008825579518 0.0837842165 -0.002955018902
v -0.009224584866 0.08513559591 0.001050825913
v -0.008767722742 0.08560652139 0.0008283169788
v -0.01064295127 0.08636237198 0.0004807926775
v -0.01371317105 0.08820925034 -0.000389099733
v -0.0101939268 0.08677102719 0.0002872199537
v -0.009507374823 0.08680339285 0.0002699710462
v -0.008905681529 0.08648397296 0.0004159124897
v -0.008822955348 0.08457418533 -0.003325385327
v 0.02127354031 0.08769876642 -0.0002873391402
v -0.01371031576 0.08853659169 -0.001130900506
v 0.003772037391 0.08763393951 -0.0001681170043
v 0.01164907199 0.08059438241 0.003103844684
v 0.01655894617 0.08474912962 0.00113595972
v 0.01618804642 0.08566349017 0.0007099592177
v 0.01648419836 0.08442243572 -0.003347613376
v 0.0116350821 0.07881128075 -0.0006988343927
v 0.01751960543 0.08463726527 -0.003451387687
v 0.02125575926 0.08557312051 -0.003904828287
v 0.017497343 0.08643323635 0.0003437246388
v 0.0166590193 0.08625169679 0.0004322001143
v 0.0162657711 0.08331247658 -0.002827271097
v 0.02128126384 0.08795756845 -0.001075002497
v 0.01812176944 0.08497708691 0.001025152705
v 0.01820422616 0.08586712453 0.0006068068392
v 0.02127279986 0.08681139427 -0.003595000058
v -0.01371943185 0.08736717332 -0.003725599175
v 0.01810827138 0.08415876381 -0.003229634274
v 0.0182243799 0.0834809441 -0.002912313717
v 0.01777942458 0.08292724333 -0.002651657174
v 0.01738140932 0.08456657412 0.001220365397
v 0.01708888682 0.08277685256 -0.002578107735
v 0.01595879889 0.06878193191 0.003988103258
v 0.0160546289 0.07421353308 0.001440844642
v 0.01155521387 0.07428495327 0.001423880852
v 0.01606861883 0.07599663482 0.005243523501
v 0.01156920397 0.07606804065 0.005226560759
v 0.01145944503 0.06885335296 0.003971140867
v 0.01575655973 0.02390366792 -0.008089355179
v 0.01575359125 0.02390430576 -0.008095391333
v 0.01570159247 0.02392186028 -0.008201966168
v 0.01568564965 0.02392964177 -0.008234629038
v 0.02029348324 0.02410453968 -0.008747438259
v 0.01566261205 0.02394299773 -0.00828204677
v 0.01570904778 0.02391860802 -0.00818663253
v 0.01567619214 0.02393480632 -0.008254063144
v 0.01578006823 0.02389983598 -0.008041376933
v 0.01573268455 0.02390995367 -0.008138169607
v 0.01572741197 0.0239116791 -0.008149009302
v 0.01565139474 0.02395040975 -0.008305108581
v 0.01563993396 0.023958644 -0.00832876829
v 0.01562725997 0.02396853446 -0.008354926538
v 0.01561767737 0.02397656664 -0.008374683588
v 0.01560384855 0.02398910627 -0.008403357631
v 0.01559596275 0.02399670453 -0.008419680173
v 0.01558116027 0.02401193951 -0.008450257284
v 0.01557472906 0.02401902646 -0.00846365172
v 0.01555937743 0.02403692869 -0.008495502791
v 0.01555409859 0.02404345874 -0.008506489808
v 0.01553850075 0.02406390595 -0.008538986697
v 0.01553413133 0.02406995452 -0.008548091934
v 0.0155185297 0.02409272102 -0.008580616314
v 0.01551482678 0.02409843685 -0.008588358968
v 0.01549958695 0.02412325006 -0.008620325142
v 0.01549630762 0.02412884506 -0.008627190696
v 0.0154815499 0.02415530991 -0.008658051955
v 0.0154785123 0.02416110555 -0.00866449528
v 0.01546569424 0.02418655893 -0.008691498337
v 0.01546156322 0.02419517116 -0.008700192613
v 0.01544679624 0.02422787473 -0.008731431351
v 0.01544545936 0.0242308881 -0.008734169867
v 0.01543202463 0.02426386011 -0.008762760141
v 0.01543032259 0.02426822876 -0.00876636713
v 0.01541822024 0.02430085712 -0.008792031821
v 0.01541609201 0.02430708467 -0.008796700667
v 0.01540550594 0.0243387149 -0.008819240919
v 0.01540282848 0.02434738075 -0.008825099348
v 0.01539381948 0.02437734149 -0.00884439557
v 0.01539053147 0.02438897966 -0.00885149439
v 0.01538316225 0.02441663072 -0.008867515964
v 0.01537932466 0.024431821 -0.008875823823
v 0.01537347381 0.02445650481 -0.008888621934
v 0.01536914491 0.02447578122 -0.008898027184
v 0.01536475311 0.02449685735 -0.008907737847
v 0.01536011456 0.02452075395 -0.008918052545
v 0.01535700059 0.02453762658 -0.008924890597
v 0.01533962019 0.02466071814 -0.008964594959
v 0.01533949748 0.0246616953 -0.008964837331
v 0.01532977247 0.02475627856 -0.008987735986
v 0.0153521131 0.02456664955 -0.008935849336
v 0.01535021741 0.02457872303 -0.008940107697
v 0.01534532224 0.02461334496 -0.00895137555
v 0.01534440362 0.02462010019 -0.008953414049
v 0.00626142285 0.02405298848 -0.02742967797
v 0.006448498268 0.02400655875 -0.02704894518
v -0.009888533843 0.02429340882 -0.0140211612
v 0.006319343475 0.02791952841 -0.02744681329
v 0.006311237496 0.02791211336 -0.02746310584
v 0.006270656656 0.02787050274 -0.02754365869
v -0.01106719099 0.0282612597 -0.02733790562
v 0.006322283168 0.02792197949 -0.02744009116
v 0.006498341562 0.02800470169 -0.02708520386
v 0.006474782798 0.0280014066 -0.027133168
v 0.006471754632 0.0280008257 -0.02713920124
v 0.006450682042 0.02799568538 -0.02718195614
v 0.006445353466 0.0279940827 -0.02719278829
v 0.006426766491 0.02798756865 -0.02723038443
v 0.006419198827 0.02798448811 -0.02724570408
v 0.006403036014 0.02797708788 -0.02727833447
v 0.006393472788 0.02797213413 -0.02729774677
v 0.006379612138 0.0279642741 -0.02732569512
v 0.006368173906 0.02795711272 -0.02734873021
v 0.006356433822 0.02794914222 -0.02737235551
v -0.006833120179 0.02822212464 -0.02494817273
v -0.006207703644 0.02821079025 -0.02559856912
v -0.009724400508 0.0222899197 -0.01429982845
v -0.01013315856 0.02229830797 -0.01336790295
v -0.01000758795 0.02229809894 -0.01255106084
v -0.00963410377 0.02229353854 -0.01197743483
v -0.009054235415 0.02228514784 -0.0115905779
v -0.008433687346 0.02227566244 -0.01146943451
v 0.0007993992634 0.02610329767 -0.02377507977
f 1 2 3
f 4 5 3
f 6 7 3
f 3 2 4
f 8 6 3
f 9 3 5
f 8 3 9
f 3 7 10
f 10 1 3
f 11 4 2
f 1 12 2
f 2 12 11
f 4 11 13
f 14 5 4
f 4 15 14
f 13 15 4
f 16 17 5
f 5 17 9
f 18 16 5
f 19 18 5
f 5 14 19
f 20 9 21
f 21 9 17
f 9 20 8
f 22 6 8
f 23 8 20
f 8 23 22
f 24 7 6
f 6 22 24
f 7 24 25
f 7 25 26
f 26 10 7
f 10 26 27
f 10 28 1
f 27 28 10
f 27 26 29
f 26 25 29
f 25 24 29
f 24 22 29
f 22 23 29
f 23 30 29
f 31 30 23
f 23 20 31
f 32 20 33
f 32 34 20
f 31 20 34
f 20 35 33
f 21 36 20
f 20 36 35
f 17 37 21
f 36 21 37
f 37 17 38
f 17 16 38
f 38 16 39
f 40 39 16
f 16 18 40
f 18 19 41
f 41 40 18
f 42 41 19
f 19 14 42
f 40 41 43
f 41 42 43
f 39 40 43
f 39 44 38
f 43 45 39
f 45 44 39
f 37 38 46
f 46 38 44
f 47 37 48
f 37 47 36
f 37 46 48
f 35 36 47
f 33 35 47
f 49 33 50
f 51 33 49
f 47 50 33
f 51 32 33
f 32 51 52
f 52 53 32
f 34 32 53
f 34 54 31
f 54 34 53
f 55 53 56
f 53 55 54
f 53 57 56
f 53 58 57
f 53 59 58
f 59 53 52
f 52 60 59
f 60 52 61
f 61 52 51
f 49 62 51
f 51 62 61
f 63 49 64
f 64 49 65
f 66 62 49
f 49 63 66
f 50 65 49
f 65 50 67
f 50 47 68
f 68 67 50
f 47 69 68
f 48 70 47
f 47 70 69
f 71 72 48
f 48 46 73
f 70 48 72
f 73 71 48
f 44 73 46
f 73 44 45
f 71 73 45
f 72 71 45
f 45 74 72
f 72 74 69
f 69 70 72
f 68 69 74
f 74 75 68
f 67 68 75
f 67 76 65
f 76 67 77
f 75 77 67
f 65 78 79
f 78 65 80
f 79 64 65
f 76 80 65
f 64 79 63
f 81 63 82
f 63 81 83
f 84 82 63
f 63 79 84
f 66 63 85
f 83 85 63
f 62 66 85
f 85 61 62
f 85 83 86
f 85 87 88
f 86 87 85
f 61 85 88
f 89 86 83
f 83 90 91
f 90 83 81
f 91 89 83
f 82 92 81
f 81 92 90
f 93 90 92
f 94 91 90
f 94 90 93
f 95 96 91
f 91 94 95
f 89 91 96
f 96 97 89
f 86 89 97
f 87 86 98
f 97 98 86
f 88 87 99
f 98 99 87
f 61 88 100
f 100 88 101
f 99 101 88
f 101 99 102
f 103 99 98
f 103 102 99
f 104 103 98
f 104 98 97
f 97 105 104
f 105 97 96
f 96 95 105
f 106 95 94
f 95 106 105
f 94 107 106
f 93 107 94
f 92 108 93
f 109 93 108
f 93 110 107
f 93 109 110
f 108 92 82
f 108 111 109
f 112 111 108
f 108 82 112
f 109 113 110
f 113 109 114
f 114 109 111
f 107 110 115
f 110 113 116
f 116 115 110
f 115 106 107
f 105 106 115
f 117 105 43
f 43 105 118
f 117 119 105
f 120 105 115
f 105 120 121
f 119 122 105
f 118 105 121
f 123 104 105
f 105 122 123
f 104 123 124
f 124 125 104
f 103 104 125
f 102 103 125
f 125 126 102
f 125 127 78
f 126 125 78
f 125 124 127
f 124 128 129
f 129 127 124
f 128 124 123
f 123 122 128
f 130 128 122
f 122 119 131
f 131 130 122
f 119 117 131
f 132 117 43
f 117 132 133
f 133 131 117
f 130 131 129
f 131 133 11
f 11 134 131
f 134 129 131
f 135 136 129
f 128 130 129
f 129 134 12
f 12 135 129
f 127 129 136
f 136 84 127
f 78 127 84
f 78 80 126
f 84 79 78
f 137 102 126
f 126 80 137
f 80 76 137
f 102 137 138
f 138 137 139
f 139 137 76
f 138 140 102
f 141 142 102
f 142 143 102
f 140 141 102
f 102 144 101
f 102 143 144
f 56 57 138
f 140 138 57
f 138 139 120
f 138 145 56
f 120 145 138
f 77 139 76
f 139 77 120
f 120 77 75
f 120 146 147
f 120 148 146
f 45 148 120
f 147 121 120
f 45 120 75
f 115 116 120
f 120 149 150
f 120 116 151
f 152 145 120
f 153 154 120
f 154 152 120
f 151 149 120
f 150 153 120
f 155 56 145
f 145 152 155
f 55 56 155
f 155 156 55
f 156 155 157
f 157 155 152
f 152 154 157
f 154 153 158
f 158 157 154
f 153 150 158
f 159 158 150
f 150 149 160
f 160 159 150
f 161 160 149
f 149 151 161
f 113 161 151
f 151 116 113
f 114 160 161
f 114 161 113
f 159 160 114
f 114 158 159
f 158 114 156
f 156 157 158
f 162 163 156
f 55 156 163
f 156 114 162
f 163 54 55
f 112 163 162
f 31 54 163
f 163 112 31
f 162 111 112
f 111 162 114
f 112 164 165
f 165 166 112
f 112 167 164
f 168 112 166
f 167 112 82
f 112 168 31
f 31 169 30
f 169 31 168
f 170 168 171
f 168 170 169
f 166 171 168
f 166 165 172
f 172 173 166
f 1 166 174
f 175 166 1
f 166 176 171
f 173 174 166
f 166 175 177
f 166 177 176
f 178 165 179
f 165 178 172
f 180 181 165
f 165 164 180
f 165 181 179
f 178 182 172
f 172 182 183
f 183 173 172
f 173 184 185
f 186 173 187
f 173 188 184
f 173 186 188
f 173 185 174
f 173 183 187
f 174 185 1
f 185 184 1
f 1 184 188
f 188 186 1
f 189 190 186
f 191 186 192
f 186 191 45
f 186 45 43
f 187 192 186
f 186 193 1
f 189 186 43
f 190 193 186
f 187 183 194
f 194 192 187
f 183 180 195
f 195 194 183
f 180 183 196
f 196 183 182
f 181 180 197
f 196 197 180
f 195 180 198
f 198 180 164
f 199 181 197
f 179 181 182
f 181 199 182
f 182 178 179
f 200 196 182
f 182 201 200
f 201 182 199
f 197 196 200
f 200 202 197
f 199 197 202
f 199 203 201
f 202 203 199
f 201 204 205
f 206 204 201
f 201 203 206
f 201 205 200
f 200 205 202
f 203 202 207
f 207 202 205
f 206 203 207
f 208 206 207
f 204 206 208
f 204 208 209
f 204 210 211
f 204 212 213
f 210 204 209
f 213 214 204
f 215 204 214
f 211 212 204
f 216 205 204
f 216 204 215
f 217 205 218
f 205 216 219
f 217 207 205
f 205 220 221
f 219 220 205
f 221 218 205
f 222 223 207
f 208 207 224
f 207 225 226
f 222 207 217
f 226 224 207
f 207 223 225
f 208 227 228
f 229 208 224
f 228 209 208
f 230 227 208
f 231 230 208
f 231 208 229
f 232 209 233
f 232 210 209
f 228 233 209
f 234 218 210
f 210 232 234
f 211 210 218
f 221 220 211
f 212 211 220
f 218 221 211
f 213 212 220
f 220 219 213
f 214 213 235
f 235 213 219
f 235 236 214
f 237 214 236
f 238 214 237
f 214 238 215
f 219 239 235
f 235 240 236
f 240 235 241
f 241 235 239
f 216 239 219
f 242 239 216
f 239 242 241
f 240 241 232
f 232 241 243
f 242 243 241
f 243 234 232
f 232 233 240
f 244 240 233
f 228 245 233
f 246 233 245
f 233 246 244
f 228 247 245
f 228 227 222
f 247 228 248
f 222 248 228
f 217 248 222
f 223 222 227
f 227 230 223
f 225 223 230
f 230 231 225
f 226 225 231
f 249 226 231
f 224 226 249
f 231 250 249
f 250 231 229
f 250 251 249
f 249 252 224
f 252 249 251
f 251 250 229
f 253 251 229
f 251 253 254
f 254 252 251
f 255 252 254
f 255 224 252
f 254 217 255
f 248 254 247
f 256 247 254
f 217 254 248
f 257 258 254
f 258 256 254
f 259 260 254
f 260 257 254
f 261 262 254
f 262 259 254
f 263 261 254
f 253 263 254
f 264 247 256
f 247 264 265
f 247 265 245
f 245 266 246
f 266 245 265
f 255 246 266
f 244 246 255
f 266 224 255
f 255 216 244
f 242 216 255
f 255 217 234
f 255 234 243
f 255 243 242
f 218 234 217
f 244 216 237
f 267 237 216
f 216 268 267
f 215 268 216
f 237 269 244
f 236 269 237
f 237 267 238
f 270 238 267
f 267 271 270
f 272 271 267
f 267 273 272
f 273 267 268
f 268 274 275
f 215 276 268
f 274 268 276
f 277 268 275
f 268 278 279
f 268 279 273
f 277 278 268
f 272 273 280
f 281 280 273
f 273 279 281
f 272 282 283
f 272 283 271
f 282 272 284
f 280 284 272
f 285 270 271
f 271 283 285
f 238 270 285
f 285 215 238
f 285 286 287
f 286 285 283
f 287 215 285
f 283 288 286
f 289 288 283
f 282 289 283
f 284 290 282
f 289 282 291
f 290 291 282
f 284 280 215
f 284 215 287
f 287 290 284
f 215 280 281
f 292 281 279
f 281 292 293
f 281 293 215
f 279 278 294
f 294 292 279
f 278 277 294
f 295 294 277
f 296 295 277
f 297 277 275
f 277 297 296
f 292 294 293
f 293 294 295
f 298 299 293
f 295 300 293
f 300 298 293
f 299 215 293
f 300 295 296
f 296 287 300
f 287 296 291
f 291 296 297
f 287 286 301
f 301 229 287
f 302 303 287
f 302 287 229
f 303 300 287
f 287 291 290
f 301 286 288
f 304 305 288
f 304 288 275
f 289 275 288
f 288 305 301
f 297 289 291
f 289 297 275
f 306 275 307
f 274 307 275
f 275 306 304
f 308 309 304
f 304 306 308
f 309 303 304
f 310 304 303
f 304 310 305
f 303 309 300
f 303 302 310
f 308 298 300
f 300 309 308
f 311 298 307
f 299 298 311
f 298 229 307
f 229 298 312
f 313 312 298
f 298 308 313
f 299 311 314
f 215 299 315
f 314 315 299
f 215 315 276
f 314 276 315
f 276 314 274
f 314 307 274
f 307 314 311
f 307 316 306
f 307 317 316
f 224 307 229
f 317 307 224
f 313 308 306
f 306 316 313
f 312 313 317
f 316 317 313
f 317 318 312
f 319 312 318
f 312 319 229
f 318 317 224
f 320 318 224
f 321 224 266
f 320 224 321
f 318 320 319
f 302 319 320
f 229 319 302
f 320 310 302
f 322 310 320
f 310 322 323
f 310 323 305
f 301 305 323
f 323 322 324
f 324 325 323
f 323 325 301
f 320 321 322
f 324 322 321
f 266 326 321
f 321 264 324
f 264 321 326
f 265 326 266
f 326 265 264
f 229 324 264
f 256 229 264
f 301 325 324
f 324 229 301
f 262 261 229
f 229 256 258
f 229 257 260
f 261 263 229
f 258 257 229
f 260 259 229
f 229 259 262
f 229 263 253
f 244 269 236
f 236 240 244
f 327 328 164
f 329 330 164
f 331 164 332
f 333 329 164
f 164 331 198
f 330 334 164
f 334 332 164
f 335 327 164
f 167 335 164
f 328 336 164
f 336 337 164
f 337 333 164
f 82 327 335
f 328 327 82
f 82 336 328
f 337 336 82
f 82 333 337
f 329 333 82
f 82 330 329
f 334 330 82
f 82 332 334
f 338 332 82
f 332 338 331
f 82 339 338
f 338 339 331
f 340 339 82
f 339 340 331
f 82 341 340
f 340 341 331
f 342 341 82
f 341 342 331
f 343 342 82
f 342 343 331
f 344 343 82
f 343 344 331
f 82 345 344
f 344 345 331
f 346 345 82
f 345 346 331
f 82 347 346
f 346 347 331
f 348 347 82
f 347 348 331
f 82 349 348
f 348 349 331
f 82 350 349
f 349 350 331
f 351 350 82
f 350 351 331
f 352 351 82
f 351 352 331
f 82 353 352
f 352 353 331
f 82 354 353
f 353 354 331
f 355 354 82
f 354 355 331
f 82 356 355
f 355 356 331
f 82 357 356
f 356 357 331
f 358 357 82
f 357 358 331
f 82 359 358
f 358 359 331
f 360 359 82
f 359 360 331
f 361 360 82
f 360 361 331
f 82 362 361
f 361 362 331
f 363 362 82
f 362 363 331
f 82 364 363
f 363 364 331
f 82 365 364
f 364 365 331
f 366 365 82
f 365 366 331
f 367 366 82
f 366 367 331
f 82 368 367
f 367 368 331
f 369 368 82
f 368 369 331
f 82 370 369
f 369 370 331
f 82 371 370
f 370 371 331
f 372 371 82
f 371 372 331
f 373 372 82
f 372 373 331
f 82 374 373
f 373 374 331
f 375 376 331
f 198 331 377
f 374 378 331
f 378 379 331
f 379 380 331
f 380 381 331
f 381 375 331
f 331 376 377
f 378 374 82
f 82 379 378
f 380 379 82
f 82 381 380
f 375 381 82
f 82 376 375
f 136 135 82
f 84 136 82
f 82 377 376
f 82 382 146
f 146 377 82
f 135 1 82
f 383 82 1
f 82 383 382
f 335 167 82
f 377 146 198
f 198 146 195
f 146 382 147
f 148 195 146
f 382 383 1
f 147 382 1
f 1 384 175
f 1 193 147
f 135 12 1
f 28 384 1
f 121 147 193
f 193 190 121
f 121 190 189
f 385 386 189
f 189 386 387
f 189 387 121
f 189 43 388
f 389 189 388
f 189 389 385
f 121 385 389
f 386 385 121
f 121 387 386
f 121 390 118
f 391 390 121
f 121 392 391
f 393 392 121
f 121 394 393
f 395 394 121
f 121 396 395
f 397 396 121
f 121 398 397
f 399 398 121
f 121 400 399
f 401 400 121
f 121 389 401
f 388 401 389
f 400 401 388
f 388 399 400
f 398 399 388
f 388 397 398
f 388 395 396
f 394 395 388
f 396 397 388
f 390 388 43
f 390 391 388
f 388 391 392
f 392 393 388
f 388 393 394
f 43 118 390
f 42 402 43
f 43 403 132
f 43 402 403
f 402 42 14
f 14 15 402
f 403 402 15
f 15 13 403
f 132 403 13
f 13 133 132
f 133 13 11
f 134 11 12
f 384 404 405
f 405 175 384
f 404 384 28
f 405 404 29
f 404 27 29
f 28 27 404
f 406 405 29
f 175 405 406
f 406 177 175
f 177 406 407
f 407 406 29
f 408 407 29
f 409 408 29
f 30 169 29
f 170 409 29
f 169 170 29
f 176 407 408
f 407 176 177
f 176 408 409
f 171 409 170
f 409 171 176
f 194 195 148
f 148 191 194
f 192 194 191
f 148 45 191
f 75 74 45
f 57 58 140
f 58 59 141
f 141 140 58
f 142 141 59
f 59 60 142
f 143 142 60
f 410 60 61
f 60 410 143
f 144 143 410
f 410 100 144
f 61 100 410
f 101 144 100
