# XLeRobot camera CAD in SO101 gripper_link metres
v -0.01374462012 0.05872049672 0.01455837006
v 0.02025084665 0.05818092315 0.01468653344
v -0.01089432432 0.05990418934 0.01399333841
v -0.006686415559 0.05818386681 0.01367959284
v -0.01209699405 0.08731283072 0.001145040335
v -0.01320168652 0.08949956767 0.0001239012675
v -0.01239024171 0.06004174785 0.01393402853
v -0.01259412996 0.06055350951 0.01369462708
v -0.01185461768 0.05972044366 0.01408237984
v -0.01182167219 0.08688033313 0.001346872371
v -0.0137479528 0.05829595926 0.01365297052
v -0.01248196728 0.06103153489 0.01347017725
v -0.01123526105 0.0866029971 0.001474815433
v -0.01331779737 0.0826815807 0.002216838013
v -0.01096906629 0.05946051733 0.01309688229
v -0.01138701099 0.05928972987 0.01317850336
v -0.01062669428 0.06033211646 0.01379099905
v -0.01064213396 0.05985343868 0.01291142567
v 0.01811373339 0.08626086772 0.001528060973
v 0.01760341707 0.0593683855 0.01413970337
v 0.01723977981 0.05972759169 0.01397218775
v 0.01715408096 0.06027777916 0.01371497812
v 0.01736731308 0.06070841251 0.01351187253
v -0.01180372414 0.05929318289 0.01317845746
v -0.01231048728 0.05952855012 0.01307011914
v -0.01257330448 0.05998387971 0.0128572161
v -0.01257304412 0.06038815001 0.01266757492
v -0.01239433779 0.0607330265 0.01250533626
v -0.01219165034 0.06135944704 0.01331537714
v -0.01059610852 0.06036997126 0.01266901683
v -0.01056407416 0.06078109447 0.0135815069
v -0.01088602184 0.06128098915 0.01334715652
v -0.01091338716 0.06089490537 0.0124241273
v -0.00625625987 0.08256950337 0.002243459921
v -0.01158864425 0.06110230265 0.01232926219
v -0.01122616646 0.06145716026 0.01326586417
v -0.01166810502 0.06153308977 0.01323170755
v -0.01209440522 0.06098706431 0.01238511626
v -0.01320501971 0.08907502868 -0.0007814985833
v -0.01128473588 0.08620254906 0.0005585067013
v -0.01206373303 0.08679907575 0.0002815778096
v -0.01176648217 0.08641692522 0.0004596820421
v -0.01210906104 0.08728931019 5.186263567e-05
v -0.01208118633 0.08781591274 0.0009092192543
v 0.01803242982 0.08780685396 0.0008029503719
v 0.02079378053 0.08895999337 0.000252063961
v -0.006143482486 0.08896295135 -0.000754876164
v 0.01771079973 0.08744145636 0.0009753325464
v -0.01178976307 0.08823401083 0.000712173054
v -0.01123800015 0.08845003242 0.0006087866977
v 0.01761281013 0.08703316919 0.001167358747
v -0.01115538167 0.08803876224 -0.000303027735
v -0.01164776019 0.08790191699 -0.0002368531453
v -0.01193021392 0.08764679704 -0.0001165074586
v -0.01076160141 0.08626290823 0.0005282442661
v -0.01059374507 0.08674203385 0.001407341336
v 0.01777102672 0.086595239 0.001371954061
v -0.01017225512 0.08714997845 0.001214706254
v 0.01766086457 0.08635933788 0.0003786267296
v 0.01765718086 0.08693489803 0.0001089066989
v -0.01014278264 0.08786712993 0.0008788434468
v -0.01063496093 0.08837262975 0.0006435574332
v 0.01792473751 0.08730583615 -6.626216116e-05
v 0.01832318259 0.08751870883 -0.0001674555096
v 0.01848645836 0.08797289207 0.0007234230381
v 0.01790866326 0.08601418492 0.000539516605
v 0.01898972446 0.08619235028 0.001558281454
v 0.01837410842 0.08575413049 0.0006582346929
v 0.01828601292 0.06105890186 0.01334430597
v 0.01770000348 0.06096170107 0.0133919024
v 0.02067766952 0.0821419924 0.002345000593
v 0.01895720301 0.08577470079 0.0006485162115
v 0.01946015731 0.08652141402 0.001400488199
v 0.01935269606 0.08601041916 0.0005360180002
v 0.01808165666 0.06063692978 0.01243826892
v 0.01885314919 0.06081714555 0.01345543288
v 0.01882000362 0.06042974253 0.01253312896
v 0.01759429891 0.06047244828 0.0125174296
v 0.01727756079 0.06018991765 0.01265096271
v 0.01714063702 0.05969396015 0.01288398925
v 0.0005679599374 0.06869108389 0.00872605817
v 0.001458520295 0.06829852761 0.008906767571
v 0.0009063098582 0.06426844512 -0.0002460427035
v 0.001446607609 0.0640630742 -0.0001517279906
v 0.001838288726 0.06819915378 0.008951751876
v 0.0002124843002 0.06888657963 0.008635417694
v 0.0004167350851 0.06450666701 -0.0003560000963
v 0.001202524979 0.06566220221 -0.0009009366975
v 0.001591345193 0.06547685012 -0.0008154493619
v 0.001997783973 0.06532646889 -0.0007464251028
v 0.002025167356 0.06390231039 -7.84691724e-05
v 0.002518031339 0.06805837329 0.009015306577
v 0.002427393566 0.06521079313 -0.0006937560106
v 0.002621896436 0.06379389318 -2.987511742e-05
v 0.001754096059 0.06372026476 -0.004394747032
v 0.002169039513 0.06357555607 -0.004339794529
v 0.001253666825 0.0639289012 -0.004501183373
v 0.0008287353058 0.06588556316 -0.001004301862
v -7.833643206e-05 0.06480487406 -0.0004940097608
v -0.0002519556449 0.06919488444 0.008492578357
v 0.000480355394 0.06614209693 -0.001123299352
v -0.0005582840889 0.06516228258 -0.0006598335701
v 0.0007836757387 0.0642105278 -0.004631250359
v 0.0009953747713 0.0641579202 -0.005106194537
v 0.001419938526 0.06391444795 -0.004980577951
v 0.001873867807 0.06370257021 -0.00520969658
v 0.002236819266 0.06360083109 -0.004828305442
v 0.002834038878 0.06344197767 -0.004268878643
v 0.002868002616 0.0651342631 -0.000659492885
v 0.003283484117 0.06373905859 -6.44474566e-06
v 0.003270429803 0.06798385566 0.009047429428
v 0.003805738904 0.06798600809 0.009044502296
v 0.003458559363 0.0650916343 -0.0006417265359
v 0.00384455265 0.06374551979 -1.160437551e-05
v 0.003513333875 0.06339863456 -0.004260211058
v 0.003303059601 0.06343432722 -0.004758565814
v 0.002678664286 0.06348179505 -0.00510821332
v 0.002289103758 0.06352230853 -0.005429542106
v 0.001319075257 0.06391437605 -0.005629574355
v 0.00174667691 0.06359740439 -0.005910567621
v 0.00080607504 0.06429564093 -0.005463989322
v 0.0004484260519 0.06447276821 -0.004740016025
v 9.763769337e-05 0.06648862114 -0.001284415577
v -0.0009934317135 0.06556190439 -0.0008456092678
v -0.000688282908 0.06954799774 0.008328599418
v -0.001085646788 0.06993888649 0.008146768478
v -0.001368375472 0.06598394928 -0.001042136101
v -0.0001592352345 0.06507407768 -0.005035616983
v -0.0002645994746 0.06692437906 -0.001487382859
v 0.0001309017271 0.06475076525 -0.004883800282
v 0.0002859359072 0.06472684292 -0.005336365857
v 0.0005593398403 0.06447479127 -0.005871634687
v 0.0007314572603 0.06421991048 -0.006212308737
v 0.001151537461 0.06388611049 -0.006129546752
v 0.00141033778 0.06351819032 -0.006523162179
v 0.001817249049 0.06332283908 -0.006433059772
v 0.002234541602 0.06339139865 -0.005901773586
v 0.002828060798 0.06330473651 -0.005721954387
v 0.003022946639 0.06338419497 -0.005379647068
v 0.003422165107 0.06335962579 -0.005357866583
v 0.00342185784 0.06321884029 -0.005807998918
v 0.00308763095 0.06301675978 -0.006294207191
v 0.003556304779 0.06299880371 -0.006287522399
v 0.002692368944 0.06307035363 -0.006317909499
v 0.002296429497 0.06316085671 -0.006358899637
v 0.0003972350029 0.06195821915 -0.005788067531
v 0.0009249509486 0.06170424083 -0.005670934453
v 0.001478681813 0.06149875377 -0.005576581736
v 0.001074926469 0.06372236495 -0.006617669892
v -0.000101208101 0.0622591112 -0.005927328338
v 0.000321424547 0.06463961666 -0.006372552967
v 0.0007676018162 0.06395286127 -0.006724627983
v 0.0004138855288 0.06428432367 -0.006878779677
v 9.543066087e-05 0.0649940321 -0.005808367363
v -0.0001890520822 0.06525531296 -0.005435857396
v -0.0004559511045 0.06549072906 -0.005221107306
v -0.0001748675767 0.06537071826 -0.005944443574
v -0.0003881599103 0.06567848974 -0.005820937045
v 3.125316299e-05 0.06504550727 -0.006467656683
v 0.0001116245168 0.06465462497 -0.00705128976
v -0.001352934715 0.06339245664 -0.006454156772
v -0.0009764253086 0.06297753324 -0.006260991873
v -0.0005631050207 0.06260260386 -0.006086696569
v -0.0001313041673 0.06057147041 -0.009553672401
v 0.00036499365 0.06026959539 -0.009413942815
v 0.0008917785543 0.06001389685 -0.009295979663
v 0.001435007428 0.05980994442 -0.009202338174
v 0.001985298711 0.05965806582 -0.00913312879
v 0.002036904482 0.0613470397 -0.005507477404
v 0.002479153873 0.06126621357 -0.005471142208
v 0.002567955682 0.05955146763 -0.009085268894
v 0.00210687505 0.06009718758 -0.009339533419
v 0.00260792825 0.0600035028 -0.009297448059
v 0.001582713481 0.06024334479 -0.009406146288
v 0.001076424965 0.06043631819 -0.009494772479
v 0.0005945546501 0.06067358801 -0.009604256055
v 0.0001410771464 0.06095304459 -0.009733627141
v -0.000592244883 0.06091662984 -0.009713827175
v -0.001008074741 0.06129674209 -0.009890536317
v -0.001395273405 0.06172906537 -0.01009183443
v -0.001688034411 0.06384918746 -0.00666709949
v -0.0001406296744 0.06505761627 -0.007239313802
v -0.0002391126262 0.06546452113 -0.006865465783
v -0.0002825214755 0.06563234152 -0.006430133165
v -0.0004150968846 0.0659929554 -0.006878625698
v -0.0004528786754 0.06596136969 -0.00624183494
v -0.0003125441423 0.06544059925 -0.007418267988
v -0.0004748497463 0.06598245792 -0.007671438766
v -0.002189775056 0.06481765456 -0.007119372169
v -0.001963306424 0.06431825679 -0.006886053778
v -0.001729133205 0.06219230377 -0.01030782427
v -0.0011070326 0.0621446098 -0.01028776789
v -0.0007266356392 0.06169032051 -0.01007614237
v -0.000270900228 0.06126490338 -0.009878349135
v 0.0002054428219 0.06137002606 -0.008794961876
v 0.000657848015 0.06109706858 -0.008668938034
v 0.001141453656 0.06086485132 -0.008561757198
v 0.001841954986 0.06061829441 -0.008442330972
v 0.002528068893 0.06045477199 -0.008377642548
v 0.003374855435 0.0599400061 -0.009270542908
v 0.001173936319 0.06127207455 -0.009022611826
v 0.002454853723 0.06083689489 -0.008805578656
v 0.003008543281 0.06080749115 -0.008832581649
v 0.001950053381 0.06125969647 -0.009248887906
v 0.002363803385 0.06114589274 -0.009195817685
v 0.001639309536 0.06108320944 -0.008938088098
v 0.0007459247523 0.06149894815 -0.009127485399
v 0.0003453269183 0.06176290048 -0.009249791915
v -2.252992331e-05 0.06205124148 -0.009378183194
v -0.0002947816672 0.06173373313 -0.008967450581
v -0.0006609636571 0.06207138762 -0.009124588576
v -0.001002793023 0.06245945575 -0.009305255527
v -0.001390898753 0.06257025393 -0.01048630782
v -0.001999557965 0.06266392267 -0.01052797384
v -0.002216694562 0.06315310231 -0.01075655216
v -0.002359860943 0.06533199617 -0.007359927415
v -0.002383385534 0.06367015142 -0.01099837655
v -0.002473688932 0.06586352634 -0.00760873437
v -0.001804762391 0.06347136467 -0.0109073348
v -0.0016224115 0.06301411283 -0.01069358637
v -0.001300027241 0.06287608469 -0.009499511428
v -0.0009431952688 0.06317683689 -0.009903420582
v -0.0006912541149 0.0627893262 -0.009722559168
v -0.0003939291667 0.06242093135 -0.009550334406
v 5.29625502e-05 0.06239195694 -0.009766787439
v 0.0003772631978 0.06209760615 -0.009630039202
v 0.0007431119867 0.06183290242 -0.009510746509
v 0.001113694309 0.06161053435 -0.009408166486
v 0.001506195943 0.06142063384 -0.00932040877
v 0.002461826092 0.06139230349 -0.009507262751
v 0.002061247619 0.06150057341 -0.009556687205
v 0.001671891809 0.06164462496 -0.009622541048
v 0.001302805321 0.06182292686 -0.009705153539
v 0.0009583045996 0.06203539759 -0.00980624259
v 0.0006342053733 0.06227219014 -0.009914066083
v 0.0003382388285 0.06254014441 -0.01003856151
v -0.000236177532 0.06271408338 -0.00991725642
v -0.0004884275552 0.06305936708 -0.01007822338
v -0.0007018185714 0.06342618348 -0.01024947075
v -0.001151064942 0.0635844362 -0.01009376372
v -0.001524106505 0.06326485697 -0.009679982607
v -0.001725185119 0.06370625692 -0.009885735896
v -0.00193935147 0.0639532803 -0.01113281542
v -0.002493151047 0.06420191631 -0.01124732344
v -0.002528626774 0.06640326593 -0.007861616977
v -0.002020221665 0.06444449517 -0.01136285082
v -0.002544046038 0.06474286668 -0.01150079309
v -0.001881899711 0.06418082081 -0.01010766449
v -0.001427632095 0.06444534572 -0.01049643521
v -0.001312927673 0.06400816001 -0.01029185416
v -0.0008736599851 0.06380964271 -0.01042859028
v -0.0003563212037 0.06348725366 -0.01048010126
v -0.000159672222 0.06315063299 -0.01032296682
v 7.2440096e-05 0.06283406423 -0.01017534682
v 0.0006091397113 0.06295648411 -0.01050232815
v 0.001114688928 0.06248608451 -0.01028476212
v 0.00150485307 0.06205665427 -0.009999226604
v 0.001915967844 0.06186583712 -0.009913179591
v 0.002355285751 0.06172474053 -0.009851133488
v 0.002628986701 0.06195707162 -0.01011998505
v 0.001765992795 0.06226465015 -0.0102570957
v 0.002170676768 0.06209924516 -0.01018568011
v 0.001221038329 0.06307020028 -0.01077620005
v 0.001662545629 0.06270714972 -0.0106069342
v 0.0008627068753 0.06350795392 -0.01098019563
v 0.0002199188528 0.06350795665 -0.01075966901
v -0.0005144786503 0.06383874803 -0.0106443425
v -0.001002342333 0.06420650821 -0.01061422509
v -0.001086970098 0.06461420177 -0.01080513558
v -0.001493530879 0.06488992861 -0.01070469611
v -0.001985859705 0.06466846262 -0.01033593467
v -0.002046664973 0.06493978123 -0.01159499502
v -0.002535129447 0.06528501208 -0.01175503767
v -0.002523887355 0.06694469983 -0.008115516772
v -0.002035690226 0.06516259167 -0.01056745361
v -0.002018494853 0.06543630404 -0.01182792038
v -0.001510453235 0.06533694413 -0.0109141285
v -0.001126450708 0.06502604713 -0.01099803746
v -0.0007117515235 0.06457639475 -0.01098945811
v -0.0006333724957 0.06420278906 -0.01081457563
v -4.161319648e-05 0.064118259 -0.01104482933
v 0.0006071743529 0.06400073213 -0.01121029013
v 0.00104428973 0.0639664198 -0.011317081
v 0.001288398496 0.06355151019 -0.01112341343
v 0.001618707166 0.06318818879 -0.0109542258
v 0.002020390431 0.06289386711 -0.01081809706
v 0.002097225124 0.06246603041 -0.01049496177
v 0.002604296141 0.06229209372 -0.01041927112
v 0.002414743038 0.0626964149 -0.01072534917
v 0.002165272086 0.06321712298 -0.01106760729
v 0.002591902466 0.06300073954 -0.0109691821
v 0.001837290035 0.06348982946 -0.01119554302
v 0.001580435776 0.06380468962 -0.01134264091
v 0.0008954915966 0.0644167382 -0.01152764517
v 0.00138783777 0.0641589498 -0.01150643021
v 0.0004643802855 0.06452942706 -0.01145764811
v -0.0001645216816 0.0647633025 -0.01134678694
v -0.0007485561784 0.06495399812 -0.01116639329
v -0.001120302554 0.0654402241 -0.0111922751
v -0.001477736313 0.06578464224 -0.01112430278
v -0.002030847125 0.06565963426 -0.01080051485
v -0.002466764632 0.06582292858 -0.01200752032
v -0.001935937708 0.06592676435 -0.0120582045
v -0.001395997783 0.06622743692 -0.01133223457
v -0.001971795666 0.06615170064 -0.01103149691
v -0.001068437591 0.06585204483 -0.01138563544
v -0.0007436183232 0.0653347539 -0.01134495698
v 0.0004402348993 0.06507345278 -0.01171271543
v -0.0001417842849 0.06539653232 -0.01164513399
v 0.0008482914578 0.06488444585 -0.01174678137
v 0.001287646134 0.06454733971 -0.01168940604
v 0.001693788265 0.06455870149 -0.01177215817
v 0.001860360181 0.06410507085 -0.01156226062
v 0.002151493358 0.06370073422 -0.01137207052
v 0.002560426273 0.06340046969 -0.01123196944
v 0.00248476225 0.06390949445 -0.0115260243
v 0.002190984568 0.06433110133 -0.01172321187
v 0.001271171801 0.06493829019 -0.0118730454
v 0.001695770268 0.06504492741 -0.01199998254
v 0.002100698033 0.06481671883 -0.01195052287
v 0.0009045564162 0.06535169402 -0.01196611134
v 0.0005355015866 0.0656114647 -0.01196529982
v 0.0001518858969 0.06577338309 -0.01189797776
v -0.0001566879281 0.06609703215 -0.01189678513
v -0.0006968143283 0.06571222537 -0.01152216824
v -0.0006087439988 0.06608351499 -0.01169660921
v -0.0009721757926 0.06625562331 -0.01157515003
v -0.001265801595 0.06666059631 -0.01153586467
v -0.001858163244 0.06663841781 -0.01126011797
v -0.001799726768 0.06640778115 -0.0122842554
v -0.002339276923 0.06635270187 -0.01225640318
v -0.002154569874 0.06686718705 -0.01249832491
v -0.001611130548 0.06687436789 -0.01250373519
v -0.001692254634 0.06711046411 -0.01148207497
v -0.001088846204 0.06707930488 -0.01173285573
v -0.000831155026 0.06664986559 -0.01176064594
v -0.0004806767344 0.06644450099 -0.01186627205
v 0.0003460182207 0.06623399808 -0.01212048066
v 0.0001336122371 0.06675754027 -0.01219401343
v -0.000313108569 0.06679258367 -0.01203013439
v 0.001061647587 0.06579914533 -0.01217647373
v 0.00074663284 0.06612101416 -0.01220500342
v 0.001332052943 0.06532891196 -0.01205484767
v 0.002215293225 0.06527053222 -0.01216391773
v 0.001853003495 0.06549308246 -0.01221141278
v 0.002519238856 0.06472341189 -0.01194165442
v 0.002162511254 0.06588513497 -0.01239804775
v 0.002535592688 0.06568056377 -0.01235661656
v 0.002719169232 0.06528588419 -0.01220598753
v 0.001491021559 0.06570028738 -0.01223077368
v 0.001720546806 0.06603103811 -0.01238710922
v 0.001313907031 0.06620963678 -0.01236989008
v 0.001065044562 0.06658204908 -0.01242239943
v 0.0006857401796 0.06676611577 -0.01237125867
v 0.0005773853414 0.0673185604 -0.01245866461
v -0.0001081712166 0.06712349866 -0.01218607598
v 0.0001319858957 0.06743440768 -0.01233269171
v -0.000424079568 0.06738923909 -0.01210873803
v -0.0006480030244 0.06702877044 -0.01193892897
v -0.0008674202816 0.06747897495 -0.0119210081
v -0.000602453914 0.06785756486 -0.01209947551
v -0.0001613846946 0.06772771824 -0.01226846747
v 0.0001372977094 0.06804094045 -0.01241640528
v 0.0004056605902 0.06772219755 -0.01246869491
v 0.00113472711 0.06722634099 -0.0125886696
v 0.001133603552 0.06778809678 -0.01268065602
v 0.0007088921756 0.06798341405 -0.01259226908
v 0.001651095165 0.0665664229 -0.01253845898
v 0.00147830446 0.06697706428 -0.01260914415
v 0.002013894728 0.06632303933 -0.01252348125
v 0.002566957484 0.06619129771 -0.01254088059
v 0.00300435378 0.06592879847 -0.0124752707
v 0.003165888306 0.06557057185 -0.01234097013
v 0.003091208575 0.06511810917 -0.01213946645
v 0.003519347598 0.06599962895 -0.01251011674
v 0.003544160821 0.06522068075 -0.01218896867
v 0.003733378614 0.06556241986 -0.01233945158
v 0.003067852335 0.06636648367 -0.01262472639
v 0.002376854428 0.06654829343 -0.01263165987
v 0.002772649273 0.06670419399 -0.01270660909
v 0.002059547237 0.06685571949 -0.01267556456
v 0.001969683615 0.06728987184 -0.01275761791
v 0.001676286057 0.06759696087 -0.01276447639
v 0.001764970963 0.0681446487 -0.01284854383
v 0.001039997909 0.06821634979 -0.01270270978
v 0.001395135083 0.06841817909 -0.01279866185
v 0.0008297352451 0.06857838552 -0.01267097802
v 0.0004684167311 0.06832518103 -0.01255088212
v 4.522326209e-05 0.0685334074 -0.01241872499
v -0.0002971660876 0.06821009734 -0.01226593768
v -0.0008957606283 0.06840653837 -0.01209273717
v -0.001208880961 0.06799884362 -0.01190042628
v 0.0004220415803 0.06882436191 -0.01255657582
v -0.0005394443318 0.06878372021 -0.01227090722
v 0.0008290690848 0.06907982526 -0.01267787894
v 0.001217005879 0.06879774292 -0.01277522899
v 0.0017707216 0.06858698334 -0.01287919309
v 0.001627050607 0.0689811593 -0.01286278044
v 0.002288544239 0.06786303951 -0.01289149335
v 0.002460579137 0.06838309564 -0.01296207647
v 0.002162981311 0.06872102239 -0.01294348423
v 0.002520067744 0.06750834871 -0.01286205827
v 0.002523202051 0.06706565727 -0.01277571398
v 0.003023887901 0.06718820784 -0.01283503886
v 0.003196394437 0.06679539197 -0.01274935311
v 0.003586919051 0.06639686854 -0.01264156225
v 0.003541753328 0.0672186495 -0.01285118381
v 0.003636898918 0.06679623157 -0.01275254904
v 0.003107488187 0.06762359217 -0.01291826552
v 0.002945592591 0.0680140714 -0.01296457503
v 0.002568153941 0.06881902144 -0.01299092437
v 0.003025697553 0.06845701174 -0.0130061099
v 0.002981895791 0.06887997136 -0.013021018
v 0.002054815526 0.06912661858 -0.01293252948
v 0.002496394386 0.06923270101 -0.01298389021
v 0.001716399096 0.06947439784 -0.01286612622
v 0.001262040553 0.06929722277 -0.01278142226
v 0.0002873995921 0.06943166034 -0.01257777394
v -0.0001437663244 0.06912649676 -0.01243309668
v 3.154396669e-05 0.06882888475 -0.01342624864
v -0.0003803306582 0.06850141464 -0.01327118522
v 0.0004773271433 0.06911745864 -0.01356320243
v 0.0007502903013 0.06969657903 -0.01270368543
v 0.0009525332229 0.06936430899 -0.01368069752
v 0.002188098178 0.06960970841 -0.01293129688
v 0.001240135672 0.06991842126 -0.01280950988
v 0.002672899496 0.06970181426 -0.01297629388
v 0.002947666722 0.06929844269 -0.01301637892
v 0.003403945766 0.06932323888 -0.01302965481
v 0.003400523636 0.06890331769 -0.01303350317
v 0.003624090867 0.06843969778 -0.01301664494
v 0.003609036399 0.06805107961 -0.01298186905
v 0.00370888912 0.06763115676 -0.0129240205
v 0.004056185707 0.06715541331 -0.0128234321
v 0.004061076415 0.0667230702 -0.01272019599
v 0.004299963501 0.06753070377 -0.01287908918
v 0.004546433399 0.06700118446 -0.01275294337
v 0.004322959573 0.06817998802 -0.0129652192
v 0.003819865389 0.06888878311 -0.01302822981
v 0.004235405883 0.06883653965 -0.01300526174
v 0.003860887647 0.06930672394 -0.01302358125
v 0.003160576203 0.06974785088 -0.01300054711
v 0.003656623694 0.06975532351 -0.01300388201
v 0.001751827448 0.07009493887 -0.01289416277
v 0.002271088646 0.070222701 -0.0129563873
v 0.001971576553 0.06972345796 -0.01385283518
v 0.001452799713 0.06956713934 -0.01377764082
v 0.0005310318133 0.06967531444 -0.01382493758
v 0.001067424947 0.06991452466 -0.01393907283
v 2.327975303e-05 0.06938869042 -0.01368867288
v 0.0005098915753 0.07135543226 -0.01019488761
v 0.00104468473 0.07159791753 -0.01031055527
v 0.001603545965 0.07179091152 -0.01040309939
v 0.001628646999 0.07010444307 -0.01403020066
v 0.002506394382 0.06983256316 -0.01390596126
v 0.002208923773 0.07024286538 -0.01409723922
v 0.00278375961 0.07030236968 -0.01299731585
v 0.003042348368 0.06989351759 -0.01393650623
v 0.003950975288 0.07031494436 -0.01300323936
v 0.00415342946 0.06971176076 -0.01298640845
v 0.004313799219 0.06924900171 -0.01299821509
v 0.004758145598 0.06915082268 -0.01295381259
v 0.0046433361 0.06874705754 -0.01296480965
v 0.005039025495 0.06862144318 -0.01290735013
v 0.004989705654 0.06797112837 -0.01286837776
v 0.005189401295 0.06901317483 -0.01289084448
v 0.004640015551 0.06962617896 -0.01294804
v 0.005114702439 0.06949712812 -0.01288928178
v 0.003523205177 0.06990556235 -0.01394392689
v 0.004101821485 0.06987180996 -0.01393017976
v 0.004685207234 0.06977789192 -0.01388832733
v 0.004444924729 0.07025671739 -0.01298010454
v 0.002800417687 0.07032798524 -0.01413932492
v 0.003397722455 0.07035927508 -0.01415619889
v 0.00277096327 0.07202134116 -0.01051543848
v 0.002180851603 0.07193251163 -0.01047161849
v 0.002259156976 0.07007810249 -0.009602271199
v 0.002645857463 0.07016983388 -0.009646713153
v 0.001887700087 0.06995368434 -0.009542573473
v 0.001969037736 0.07027867113 -0.00895665039
v 0.002446723654 0.07026875971 -0.009321557978
v 0.002828436023 0.07042591721 -0.00918656136
v 0.003041090031 0.07022589174 -0.009674451542
v 0.003437177464 0.07024562399 -0.009685150168
v 0.00336804395 0.07205651034 -0.01053412463
v 0.003966194136 0.07203767822 -0.0105274884
v 0.003996445616 0.0703364955 -0.01414770848
v 0.004588165689 0.07026008014 -0.01411404837
v 0.005169291494 0.07013059391 -0.01405546732
v 0.005213779885 0.06964183344 -0.01382646555
v 0.004993419485 0.07013811832 -0.01292629679
v 0.005572956585 0.06932592451 -0.01281069389
v 0.005603514952 0.06883728312 -0.01280990286
v 0.005510591358 0.06997560437 -0.01285201951
v 0.006009903551 0.0691144236 -0.01271312755
v 0.0057240073 0.06945910235 -0.01374265613
v 0.005733725871 0.06994927765 -0.01397251911
v 0.005141344789 0.07183930285 -0.01043879024
v 0.005706536448 0.07166186771 -0.01035766078
v 0.004559124576 0.07196503725 -0.01049560478
v 0.003836594016 0.07023005214 -0.009679322866
v 0.004230309233 0.07017826249 -0.009656477679
v 0.003607104572 0.07046270187 -0.009222880865
v 0.003216310763 0.07042804289 -0.009281436517
v 0.00236303158 0.07043100938 -0.008973646603
v 0.002649392736 0.07065133732 -0.008778625515
v 0.003108629733 0.0706158029 -0.008948013185
v 0.002046598468 0.07071823787 -0.008462261625
v 0.002591241391 0.07106088953 -0.008333167893
v 0.003147090586 0.07093323828 -0.008563674921
v 0.003531555794 0.07072513854 -0.008815105438
v 0.004012690943 0.07040192078 -0.00926908375
v 0.00391861991 0.07060429489 -0.008949843959
v 0.004397041768 0.07036516684 -0.009180029885
v 0.004618909532 0.07009126577 -0.009617118338
v 0.0049933951 0.06996996616 -0.009561603836
v 0.005355323933 0.06981502979 -0.00949029307
v 0.00624981681 0.07143428633 -0.01025294268
v 0.006275466802 0.06971799394 -0.01386605816
v 0.006211755388 0.06923127093 -0.01363761795
v 0.006008946647 0.06976657797 -0.01275582277
v 0.006788927198 0.06943917547 -0.01373720617
v 0.006671893268 0.06896075731 -0.01351246555
v 0.006765639489 0.07115877663 -0.01012565076
v 0.005696100637 0.06962892004 -0.009404269705
v 0.005150175423 0.07012825444 -0.009070904817
v 0.005606464629 0.06989211085 -0.008997462324
v 0.004788039431 0.07023202439 -0.009192429792
v 0.004335996712 0.07064021773 -0.008778226149
v 0.004705084611 0.07045083073 -0.008880650203
v 0.003975372497 0.07091595911 -0.008558627301
v 0.003513969214 0.07103820372 -0.008474730702
v 0.002966228633 0.07152369492 -0.008055629351
v 0.00216785229 0.07101639438 -0.008242477328
v 0.002463594019 0.07144578747 -0.008036086443
v 0.002767605548 0.07319440472 -0.004438572098
v 0.003213947252 0.07323890393 -0.004461071054
v 0.003432975137 0.07155021795 -0.0080702116
v 0.004346308027 0.07095405791 -0.008438471615
v 0.003820328391 0.07153556942 -0.008067861604
v 0.004783694019 0.07075053607 -0.008483890971
v 0.005106393464 0.07041258039 -0.008674338817
v 0.005444986963 0.07016347748 -0.008738493941
v 0.006016941421 0.06941226764 -0.009303865462
v 0.006066636998 0.06960858841 -0.008801793531
v 0.005903763763 0.06991649733 -0.008580430701
v 0.007249106192 0.07083787167 -0.009976951314
v 0.007269012414 0.06911570457 -0.0135872887
v 0.0071000629 0.06865018546 -0.01336840486
v 0.006480903693 0.06951427339 -0.01263925288
v 0.007693920511 0.07047586126 -0.009808834747
v 0.007711652095 0.06875028383 -0.01341756816
v 0.006312272779 0.06916740428 -0.009190129977
v 0.006231167219 0.06974870302 -0.008360416454
v 0.006390525386 0.06932671003 -0.008678534333
v 0.006000597192 0.07016606385 -0.008210022487
v 0.005541670453 0.07044167846 -0.00834313813
v 0.005144050708 0.07072241613 -0.008332706248
v 0.004554299391 0.07143312858 -0.008022936135
v 0.00410988612 0.07320611688 -0.004448988538
v 0.003662347319 0.07324262004 -0.004464462516
v 0.003484801421 0.07460458803 -0.005102187776
v 0.002878922255 0.07457725619 -0.005087146454
v 0.004083551879 0.0745769384 -0.005091421653
v 0.004674988838 0.07449557933 -0.005055444394
v 0.004550320668 0.07312930435 -0.004414587942
v 0.004980850109 0.07301332154 -0.004361785273
v 0.005130380863 0.07126035432 -0.007943074948
v 0.005828377158 0.07055495852 -0.008043442869
v 0.005615149558 0.07106590962 -0.007837239054
v 0.006503552125 0.0699875848 -0.007848426984
v 0.006234771838 0.07034813131 -0.007873299743
v 0.006525558669 0.06945304001 -0.008260205254
v 0.006752987799 0.06897278421 -0.008405229949
v 0.006578580127 0.06889773489 -0.00906466284
v 0.008097695928 0.07007473856 -0.009622225252
v 0.008112128096 0.06834656405 -0.01322973557
v 0.007492213684 0.06830246809 -0.01320679707
v 0.00681250157 0.06860691679 -0.008929147787
v 0.008455044542 0.06963961343 -0.009419509058
v 0.006937561645 0.06925294095 -0.00778657924
v 0.00714065342 0.06855533326 -0.007922740554
v 0.007016135064 0.06849656474 -0.008385252643
v 0.006791117844 0.06972339333 -0.007698197326
v 0.006509478354 0.07047990645 -0.007591690004
v 0.006831441948 0.07018552184 -0.007454905777
v 0.006168072794 0.07073595626 -0.007710466831
v 0.005396290066 0.07285889925 -0.004290898157
v 0.006177352764 0.07243523002 -0.004095091594
v 0.005793436043 0.07266766044 -0.004202685656
v 0.005254329967 0.07436144087 -0.004994672844
v 0.005815866355 0.07417591671 -0.004909738668
v 0.005888324139 0.07840787471 0.004150059533
v 0.005336053176 0.07859487678 0.0040644076
v 0.00641654109 0.07817340273 0.004258071567
v 0.006354552328 0.07394067571 -0.004801415049
v 0.006865055949 0.07365799255 -0.004670737581
v 0.007341565967 0.07333110504 -0.004519206889
v 0.00652283595 0.07217657261 -0.003975072277
v 0.006831005319 0.07189495632 -0.003844175824
v 0.007121233424 0.07157195422 -0.003693755948
v 0.007108550726 0.06987425982 -0.00730999302
v 0.007084158223 0.06948761566 -0.007472757182
v 0.007296924736 0.06916316568 -0.007319665562
v 0.007154343988 0.06890626585 -0.007638763634
v 0.007362579355 0.06862685403 -0.007393419617
v 0.007412588827 0.0682444923 -0.007423714143
v 0.007302672684 0.06795476181 -0.007938736329
v 0.007186014197 0.06795756215 -0.00862604561
v 0.007015173399 0.06829477977 -0.00878353692
v 0.007484689146 0.06772097163 -0.007367876549
v 0.007317925122 0.06760479574 -0.008461111248
v 0.007411507852 0.06749818696 -0.007809565877
v 0.007665729097 0.06802142583 -0.006899942171
v 0.007568312618 0.06835491699 -0.0070819023
v 0.007608164638 0.06908267104 -0.006939466495
v 0.007369313484 0.06951367276 -0.007141845812
v 0.007361414921 0.07124128583 -0.003539613621
v 0.008175876871 0.07255712213 -0.004159349085
v 0.008525267348 0.07211778846 -0.003954624507
v 0.007780065811 0.07296280793 -0.004348122214
v 0.007811023327 0.07721163749 0.004703929435
v 0.007382196078 0.07757222837 0.004536415444
v 0.006916148997 0.07789380072 0.004387346266
v 0.008198751714 0.07681539068 0.00488831041
v 0.008540977134 0.07638868318 0.005087142756
v 0.008835477566 0.07593491866 0.005298835993
v 0.008824397603 0.0716498389 -0.003736300841
v 0.007573337255 0.07087670815 -0.003369439093
v 0.007742922175 0.07049230768 -0.003189786634
v 0.007836586895 0.06848546775 -0.006658913823
v 0.007655899883 0.06751376878 -0.006856405435
v 0.007930307847 0.06804196825 -0.006447715491
v 0.007502713297 0.06729574496 -0.00734484465
v 0.007406928157 0.06725451909 -0.008297188177
v 0.007460006618 0.06711390863 -0.007710303376
v 0.009023441495 0.06867256896 -0.008968137776
v 0.009227924513 0.0681424463 -0.008720301977
v 0.009370909919 0.06760017671 -0.008466542436
v 0.007457778555 0.06689303563 -0.008127876924
v 0.00748338132 0.06684908684 -0.00735865334
v 0.007623671117 0.06710175217 -0.006792999144
v 0.007970299148 0.06758209638 -0.006219315379
v 0.007986286975 0.0693226772 -0.002642252402
v 0.007945330299 0.06973290814 -0.002834481444
v 0.007863095727 0.07012161822 -0.003016431172
v 0.009070086546 0.07115885903 -0.003506984241
v 0.009261420896 0.07064692891 -0.003267605136
v 0.00907735151 0.07546368957 0.005518890773
v 0.0196377669 0.0867984482 0.0001654680119
v 0.02079044695 0.08853544035 -0.0006533349615
v 0.0195768654 0.08632079594 0.0003895637173
v 0.01911734901 0.06001245434 0.01272747907
v 0.02024751325 0.05775636921 0.01378113495
v 0.009409485944 0.07446267727 0.005987058572
v 0.009268402135 0.07497565042 0.005747042761
v 0.009508319634 0.07383413172 0.00628124893
v 0.009515096629 0.07311563902 0.006618257308
v 0.009437974419 0.07249101875 0.006911471713
v 0.004765925283 0.07873202531 0.004002185404
v 0.004149084075 0.07882072675 0.00396290509
v 0.00939361117 0.07013032138 -0.003025841986
v 0.009466949012 0.06962944886 -0.002791341506
v 0.009489346575 0.06907073651 -0.002529421721
v 0.00944656827 0.06851611396 -0.002269208886
v 0.009301452622 0.07194083817 0.007169896955
v 0.009345651177 0.06798129461 -0.002018043768
v 0.007929701947 0.06850199424 -0.002257242771
v 0.007980290788 0.06890404902 -0.002445939862
v 0.007953355015 0.06712856 -0.006012601879
v 0.007834903378 0.06810520579 -0.002070824438
v 0.007889362626 0.06670869558 -0.005814696201
v 0.009186403284 0.06745849915 -0.001772319252
v 0.009115563068 0.07143724687 0.007406718706
v 0.008970991999 0.06695402288 -0.001534977994
v 0.007697083502 0.06771931792 -0.001889371976
v 0.007783599595 0.06631602532 -0.00563005896
v 0.007517973517 0.06633502444 -0.006444890173
v 0.007596306711 0.06672035575 -0.006608056495
v 0.007460763741 0.06647845717 -0.007148581971
v 0.007357818806 0.06600565966 -0.006956320939
v 0.007407250876 0.06597594498 -0.006275896925
v 0.007635325151 0.06593449285 -0.005450586336
v 0.007517448827 0.06734766039 -0.001714440144
v 0.008876243681 0.0709525129 0.007634891564
v 0.008700373531 0.06647026547 -0.001307147208
v 0.008586874984 0.07049294524 0.007851454675
v 0.008378095143 0.06601377127 -0.001091909228
v 0.007297256739 0.06699325256 -0.001547447874
v 0.007445476447 0.06556747636 -0.005277772002
v 0.007257610227 0.06562752067 -0.006109912408
v 0.007197278652 0.06555252062 -0.006728394025
v 0.007370545523 0.06581761908 -0.007623284094
v 0.00726619063 0.06547914388 -0.007464193029
v 0.007461395036 0.06639221852 -0.007892876907
v 0.00933120857 0.06545091511 -0.007458596541
v 0.009173845318 0.06492764223 -0.007212664107
v 0.007121871157 0.06514210012 -0.007305623071
v 0.00896020943 0.06442255155 -0.006975037309
v 0.007037706936 0.06525311992 -0.006393942657
v 0.00690093595 0.06496150567 -0.006661598305
v 0.006943043673 0.0648228992 -0.007155292496
v 0.00707022219 0.06529494131 -0.005953072855
v 0.007213908637 0.06521640404 -0.005112506483
v 0.00703970381 0.06666116141 -0.00139078631
v 0.008249460806 0.07006110781 0.008055178122
v 0.008006912024 0.06558852338 -0.0008911490278
v 0.007867226286 0.06966098474 0.00824427089
v 0.007590645992 0.06519891491 -0.0007069255592
v 0.006746676299 0.06635383594 -0.001245602133
v 0.006947948031 0.06489231819 -0.004959482644
v 0.006840411116 0.06497220284 -0.005810755563
v 0.006738157133 0.06480267931 -0.006349603969
v 0.006629917027 0.06440162385 -0.006955766724
v 0.008388530822 0.06350464268 -0.00654254873
v 0.008700261801 0.06395323177 -0.0067540332
v 0.009145851221 0.06319059405 -0.0108158363
v 0.00892884465 0.06268877202 -0.01057974357
v 0.009307268157 0.06371157115 -0.01106073128
v 0.009429793295 0.06598279287 -0.007708370592
v 0.009410649003 0.06424472588 -0.01131110984
v 0.008815565542 0.06380045351 -0.01110065869
v 0.008666424515 0.0633236998 -0.01087656788
v 0.008464964127 0.06286146447 -0.01065907345
v 0.008669195262 0.06222584752 -0.01036173542
v 0.00821425841 0.06242087964 -0.01045156498
v 0.008026888411 0.06308109871 -0.006342591869
v 0.008358020278 0.06178323931 -0.01015305735
v 0.006460851629 0.06448535126 -0.006237365693
v 0.006276353971 0.06403567536 -0.006783701801
v 0.006583268917 0.06468020155 -0.005672654132
v 0.00664659342 0.06459230097 -0.004817662569
v 0.006420866745 0.0660741848 -0.001113274341
v 0.007445706796 0.06929817114 0.008415888928
v 0.007133713846 0.06484903409 -0.0005411892062
v 0.006987131673 0.06897388261 0.008569639086
v 0.006640077791 0.06454197045 -0.0003953943047
v 0.0060663114 0.06582565548 -0.0009954375338
v 0.006314182182 0.06432137793 -0.004689446926
v 0.006295271785 0.06441285088 -0.005546025301
v 0.006083845101 0.06414611552 -0.006083666878
v 0.005911377187 0.06375005943 -0.006648447481
v 0.007173036147 0.06234245889 -0.005993107935
v 0.007622532641 0.06269516364 -0.006160147986
v 0.007980527544 0.06134920137 -0.009948117643
v 0.007596493776 0.06164195303 -0.01008405577
v 0.007926078238 0.06201815515 -0.01026166509
v 0.008468683078 0.06330795875 -0.00973790928
v 0.008218743082 0.06286649434 -0.009529974045
v 0.008668440901 0.06376919279 -0.009954904325
v 0.007898640366 0.06323618884 -0.009963672386
v 0.00765471758 0.06284614523 -0.009779932657
v 0.007921652175 0.06245004055 -0.009333619252
v 0.00736934982 0.0624802518 -0.009607299061
v 0.007218212763 0.0612876103 -0.009916521271
v 0.0075804376 0.06206276731 -0.009150767723
v 0.007578338967 0.06096977863 -0.009768748207
v 0.006660507277 0.06201583771 -0.005838054541
v 0.007110115578 0.06060867598 -0.009597721728
v 0.005760439754 0.06386663187 -0.006129019365
v 0.005561538115 0.06353210629 -0.006544961912
v 0.005961613478 0.06415978646 -0.005427280442
v 0.005592497222 0.06386668444 -0.005751328086
v 0.00577380501 0.06397384266 -0.004529038393
v 0.005686938464 0.0656108535 -0.0008933201128
v 0.005285196219 0.06543070104 -0.0008073495364
v 0.00525645724 0.0637279465 -0.004423413004
v 0.005133776476 0.06372876998 -0.004796185787
v 0.005420685922 0.06384673155 -0.005259133999
v 0.005189682993 0.06366728385 -0.005671644436
v 0.005420835235 0.06367283808 -0.006040539724
v 0.005110797125 0.06331565297 -0.006441791183
v 0.006122454992 0.06174489431 -0.005709038628
v 0.006590572471 0.06028684906 -0.009444866233
v 0.00680015501 0.06096699061 -0.009764638113
v 0.006263201164 0.06063524741 -0.0096070951
v 0.007198368783 0.06170825126 -0.008983135508
v 0.006685103538 0.06183446352 -0.009301957713
v 0.007044958538 0.06214182088 -0.009447417919
v 0.007210738559 0.06278071481 -0.00997585562
v 0.006930372513 0.0624549528 -0.00982199232
v 0.006614325605 0.06215525158 -0.009680347754
v 0.006267643331 0.06188618916 -0.009552904101
v 0.00629280905 0.06156097385 -0.00917230509
v 0.006778018956 0.06138930106 -0.008832013547
v 0.006326170346 0.06111067598 -0.008699723666
v 0.005692042758 0.0603697818 -0.009480512405
v 0.006081923187 0.06003540763 -0.009325093931
v 0.005590807517 0.06153660354 -0.005609421624
v 0.005079698644 0.06349140095 -0.006032446082
v 0.004582128237 0.06338646406 -0.005801109054
v 0.004569291569 0.06313651246 -0.006355807489
v 0.004808728422 0.06359247396 -0.005287772778
v 0.004642089633 0.06357954665 -0.00472332832
v 0.004820082474 0.06358088534 -0.004356081255
v 0.004356357431 0.0634764186 -0.005262507274
v 0.003939921292 0.06327136124 -0.005755196572
v 0.004098794816 0.06304438698 -0.006310886954
v 0.005044384527 0.06137732256 -0.005532732807
v 0.004451467113 0.06126022187 -0.005475634538
v 0.005543525673 0.05982739159 -0.009225586772
v 0.00584494707 0.06087383156 -0.008586892752
v 0.005143201424 0.0601799246 -0.009389476343
v 0.005872730788 0.06132438126 -0.009059811057
v 0.005427806453 0.06112661842 -0.008965489182
v 0.005892401366 0.06164938063 -0.009440522493
v 0.006040449434 0.06208395026 -0.009845582113
v 0.006357969746 0.06233121701 -0.009962704597
v 0.006646974751 0.06260617651 -0.01009268912
v 0.006087736695 0.06251836708 -0.0102326792
v 0.006454299506 0.06290949712 -0.0104293922
v 0.005642436634 0.06216713818 -0.01005806916
v 0.005697008379 0.061866369 -0.009742289111
v 0.005493670109 0.06144799404 -0.009344629898
v 0.00507433988 0.06128339317 -0.009265910731
v 0.004964292033 0.0609702226 -0.008890399462
v 0.005275920994 0.06066673698 -0.008487082815
v 0.004609299315 0.06005132715 -0.009327209783
v 0.004992822763 0.05966939572 -0.009149496848
v 0.004391969164 0.0595559227 -0.009094054275
v 0.003872626821 0.0612003513 -0.005445434353
v 0.003816016079 0.05950018393 -0.00906580581
v 0.00343329263 0.06119005248 -0.005438993048
v 0.004067175953 0.05997217291 -0.009288101706
v 0.004760590416 0.06052823262 -0.00842042381
v 0.004485527251 0.0608563687 -0.008835273044
v 0.004638934566 0.06115746517 -0.009205268467
v 0.005331465639 0.06168094521 -0.009653985701
v 0.004947109112 0.06152936056 -0.009581496829
v 0.004992570407 0.06183950471 -0.009902380921
v 0.005102122154 0.0622517154 -0.01027049473
v 0.005681064698 0.06260506926 -0.01043431346
v 0.006151698368 0.06305024023 -0.01064477847
v 0.006515443358 0.06357125187 -0.01089043603
v 0.006904827902 0.0629065832 -0.01023448228
v 0.006843943035 0.06347748576 -0.01069923598
v 0.007127339106 0.0632273808 -0.01038570758
v 0.007314114886 0.06356801625 -0.01054611301
v 0.006964752045 0.06413566319 -0.01107714376
v 0.006092690284 0.06357293807 -0.01102984276
v 0.006331281405 0.06407164208 -0.01126458699
v 0.005749376686 0.06312670842 -0.01081935198
v 0.005314648356 0.06275068835 -0.0106414493
v 0.004508657681 0.06234019778 -0.01044452414
v 0.004458087133 0.0619982823 -0.01014547683
v 0.004919391985 0.06251894722 -0.01053151581
v 0.004548015508 0.06141319229 -0.009525543726
v 0.004445361839 0.06168541218 -0.009836084356
v 0.004181571419 0.06107103679 -0.009164050972
v 0.003980303025 0.06078644118 -0.008802608321
v 0.004227105648 0.06043520814 -0.008374831789
v 0.003723514501 0.06103376834 -0.009150256167
v 0.00348070827 0.06078572763 -0.008821393698
v 0.004124489314 0.06133198188 -0.009486359194
v 0.003985758996 0.06160937806 -0.009804616247
v 0.003846506903 0.06220247302 -0.0103837296
v 0.003818576618 0.06189137314 -0.01009792871
v 0.004687505179 0.06277271779 -0.01076921968
v 0.004229160711 0.06261240379 -0.01069449645
v 0.005161552639 0.06307547944 -0.01091438793
v 0.005518020262 0.06341697083 -0.01107585302
v 0.005792285836 0.06381513792 -0.01126354642
v 0.006456154411 0.06460420506 -0.01151478999
v 0.005973949397 0.06425480361 -0.01147037074
v 0.005366468414 0.06386052758 -0.01138272604
v 0.005538923123 0.0642187907 -0.01155094851
v 0.005124449025 0.06353369259 -0.01122699959
v 0.004786432144 0.0632468444 -0.01109205702
v 0.004351558426 0.06300528859 -0.01097585475
v 0.003901518667 0.0628865734 -0.01092109022
v 0.003846514357 0.06254074109 -0.0106627586
v 0.003355115852 0.06251064182 -0.01064526367
v 0.003228964697 0.0618732039 -0.01008254355
v 0.003187236404 0.06219089654 -0.01037379295
v 0.003310776722 0.06158260576 -0.009792932863
v 0.003694451796 0.06129131472 -0.009466210366
v 0.003266313025 0.06103047354 -0.009146674521
v 0.003283099657 0.06128752172 -0.0094617645
v 0.002730703916 0.06163969381 -0.009812301017
v 0.002872825423 0.06132042996 -0.00947493518
v 0.002854449345 0.06257299593 -0.01067271247
v 0.00306389663 0.06287764393 -0.01091394893
v 0.003497047853 0.06284785891 -0.01090213381
v 0.003933797691 0.06324686867 -0.01116662728
v 0.004511799706 0.06350216826 -0.01128884619
v 0.004918159809 0.06387602952 -0.01146369471
v 0.005152900668 0.06431303393 -0.01166966812
v 0.005634913795 0.06460849109 -0.01173282658
v 0.006055689974 0.06471868062 -0.01168820882
v 0.005630914978 0.06500198145 -0.01191892834
v 0.005219892993 0.06478494418 -0.01189335216
v 0.004652080649 0.06420158498 -0.01167150326
v 0.004802054413 0.06466692927 -0.01189023775
v 0.004365803519 0.06386683049 -0.01151323516
v 0.003956612818 0.06365104818 -0.01141250632
v 0.003464692574 0.0631874079 -0.0111360516
v 0.003519294413 0.06355324013 -0.01136434768
v 0.003051769578 0.06323221196 -0.01115602883
v 0.002943099065 0.06363025536 -0.01139653698
v 0.003244951283 0.06394345323 -0.01157953097
v 0.003892391479 0.0640178121 -0.01161580392
v 0.004200621872 0.0642562392 -0.0117282617
v 0.004391549842 0.06474046543 -0.01195672357
v 0.004740015252 0.06516334557 -0.01212244976
v 0.005151469325 0.06526440137 -0.01211629173
v 0.006034482178 0.0651878922 -0.01190812039
v 0.005550376925 0.06538643428 -0.01209851217
v 0.006462050514 0.06514892184 -0.01177020228
v 0.006348344765 0.06568431277 -0.01202085308
v 0.005910904999 0.06564459972 -0.01212179708
v 0.005387507303 0.06575772605 -0.01227082318
v 0.004929468057 0.06569121064 -0.01231491497
v 0.004478534381 0.06556964823 -0.0123123681
v 0.004183413155 0.06530518103 -0.01221988672
v 0.003983941152 0.0648843183 -0.01203307858
v 0.003811161412 0.06440285574 -0.0118065779
v 0.003240037163 0.06430612097 -0.01175927846
v 0.00275630687 0.06418400784 -0.01168914194
v 0.002952386419 0.06463744709 -0.01191338509
v 0.003453412019 0.0647549369 -0.01197033915
v 0.00405429003 0.06586962788 -0.01245138464
v 0.004566001399 0.06604934645 -0.01248164084
v 0.005138932054 0.06608122868 -0.01242319007
v 0.00568966355 0.06606999092 -0.012320501
v 0.006120077589 0.06618823903 -0.0122562878
v 0.00688588184 0.06605662132 -0.0119790008
v 0.007053734363 0.06543652535 -0.01168765716
v 0.007081202199 0.06478174421 -0.01138057515
v 0.007663423431 0.06504269734 -0.01123890803
v 0.007637538227 0.06466432498 -0.01106140883
v 0.007570200971 0.06428916116 -0.01088519715
v 0.007589788612 0.06579893671 -0.01159323147
v 0.007647491227 0.06542264666 -0.0114169784
v 0.007352262373 0.06652683661 -0.0119336718
v 0.007491154059 0.0661680861 -0.01176595787
v 0.006406236317 0.06651615331 -0.01227239244
v 0.006721930301 0.06674081322 -0.0122317452
v 0.005786076173 0.06664132807 -0.01246753322
v 0.00538002518 0.06644747622 -0.01249634869
v 0.00483307674 0.06635841702 -0.01255164326
v 0.004467792511 0.06658257516 -0.01265420122
v 0.004104237106 0.06627821349 -0.01258946414
v 0.004993614449 0.06676225988 -0.01264252324
v 0.005359779731 0.06702567765 -0.01264617699
v 0.006002872061 0.06701534419 -0.01250620282
v 0.007174754654 0.06687116617 -0.01209448189
v 0.006959893363 0.06719841026 -0.01224711038
v 0.006269654143 0.06730601531 -0.01249433826
v 0.007856959912 0.06633456323 -0.0116446788
v 0.007706322176 0.06672617728 -0.0118276953
v 0.00796361915 0.06593258659 -0.01145655616
v 0.008025708602 0.06552231234 -0.01126440836
v 0.008042353101 0.06510844934 -0.01107038435
v 0.008381407289 0.06585027756 -0.0111912983
v 0.008422778429 0.06540391858 -0.01098211704
v 0.00829093429 0.06629234136 -0.01139822175
v 0.008152477894 0.06672358691 -0.01159983056
v 0.007513381481 0.0671018858 -0.01200320992
v 0.007967544173 0.06713881379 -0.01179400342
v 0.007280089679 0.06745867476 -0.01216961765
v 0.006710481125 0.06750411683 -0.01238955985
v 0.005493399357 0.06744646409 -0.01270377899
v 0.005714594941 0.06776927706 -0.01270757805
v 0.006429524657 0.06778511297 -0.01252031619
v 0.004857827162 0.06732611102 -0.01278520708
v 0.005780336989 0.06826628776 -0.01274354684
v 0.006118290556 0.068040291 -0.01263881548
v 0.006703154303 0.06809927293 -0.01246789521
v 0.00700925462 0.067791875 -0.0123248932
v 0.007737601652 0.06753655344 -0.01197963725
v 0.007465262812 0.06791157429 -0.01215441198
v 0.008027654864 0.06812237085 -0.01199228105
v 0.008257266357 0.06778114495 -0.01183652653
v 0.008546784485 0.06723355401 -0.01157602541
v 0.008742845292 0.06672412132 -0.01134083509
v 0.00887060418 0.06621219126 -0.01110110636
v 0.008938328468 0.06572744986 -0.01087416116
v 0.008414942192 0.06495599202 -0.01077200926
v 0.008013518797 0.06469585694 -0.01087676562
v 0.008952184314 0.065229213 -0.01064056088
v 0.008357744485 0.06451055322 -0.01056293182
v 0.008953700261 0.06478420548 -0.01156245341
v 0.00894100627 0.06528028323 -0.01179501812
v 0.008873234683 0.06577602307 -0.01202722832
v 0.008772251097 0.06618923982 -0.0122206306
v 0.008651642867 0.06654910151 -0.0123889085
v 0.008413645617 0.06707507081 -0.01263468683
v 0.007700662613 0.06852088097 -0.0121779407
v 0.008152896486 0.06750964631 -0.01283746896
v 0.007331117019 0.06888824965 -0.0123488336
v 0.007152730207 0.06826029291 -0.01231681415
v 0.006803892198 0.06857875973 -0.01246490023
v 0.006364130239 0.0683781543 -0.0125974069
v 0.006421459671 0.06886473416 -0.01259752812
v 0.005996333283 0.06862501583 -0.0127117828
v 0.006923062124 0.06922058709 -0.0125031663
v 0.007844287514 0.0679210898 -0.01302926481
v 0.008466041259 0.06790910496 -0.01302590599
v 0.008769976454 0.06744225668 -0.01280811308
v 0.009029339279 0.06693297471 -0.012570262
v 0.009228663684 0.06640231796 -0.01232216827
v 0.009364717341 0.06586411562 -0.01207028086
v 0.009439589003 0.06532648029 -0.01181845754
v 0.009454956881 0.06478539038 -0.01156479185
v 0.008911727419 0.06428891505 -0.01133005711
v 0.008911553428 0.06473518233 -0.01040876241
v 0.00946958676 0.06652232987 -0.007961491592
v 0.0094499827 0.06706300519 -0.008214951753
v 0.0087628223 0.0691745126 -0.009202552467
v 0.0054192328 0.06846075401 -0.01283338108
v 0.008816651534 0.06424673369 -0.01017937478
v 0.008251693424 0.06407246903 -0.01035722318
v 0.00809816494 0.06364616356 -0.01015670535
v 0.007820228555 0.06388725812 -0.01049697907
v 0.007939260142 0.06428735825 -0.01068499476
v 0.007658304749 0.06350095198 -0.01031521172
v 0.007461749702 0.06392216537 -0.01071274798
v 0.007454487739 0.06313079585 -0.01014088548
v 0.002813060829 0.06106928437 -0.009163612835
v 0.003327033715 0.06040750053 -0.008358212986
v 0.003226483917 0.0594947946 -0.00906109668
v 0.002957462562 0.06120899554 -0.005446142347
v 0.003925919065 0.06341357749 -0.005222842892
v 0.003799264571 0.06344350146 -0.004662823458
v 0.004214217104 0.06349041282 -0.004688487996
v 0.003950568552 0.06341856471 -0.004276671564
v 0.00440180687 0.06348243319 -0.004307534231
v 0.004002827986 0.06512013131 -0.0006570109829
v 0.004452526773 0.06518784909 -0.000690432316
v 0.004421115673 0.06380043997 -3.951330832e-05
v 0.00499377156 0.06390805348 -9.202847477e-05
v 0.004876197232 0.06529081981 -0.0007402563012
v 0.005553110239 0.06406510246 -0.0001677312931
v 0.004872095298 0.06811884624 0.008978378018
v 0.005432417095 0.06826127346 0.008909532713
v 0.004298227378 0.06802532005 0.009024337996
v 0.005978277736 0.06845385839 0.008817187436
v 0.006115321737 0.06428118495 -0.0002711788566
v 0.006497337133 0.06869208076 0.00870357727
v -0.0008082068875 0.07718614081 0.004747543991
v -0.001193973016 0.07678558134 0.004936784542
v -0.01042338627 0.08645365828 0.0004375709797
v -0.01018817149 0.08675334001 0.0002961005903
v -0.002450113475 0.07287497409 0.00677507866
v -0.001534932593 0.07635217568 0.005141259012
v 0.00342004442 0.07884978471 0.003951927176
v -0.0003815269845 0.07755019721 0.004575271307
v 8.140876392e-05 0.07787411124 0.004421687874
v 0.0005771991716 0.0781556518 0.004287850392
v 0.001100743294 0.07839202143 0.0041750983
v 0.001647608986 0.07858112482 0.004084418617
v 0.002213520787 0.07872133513 0.004016598296
v 0.002799105458 0.0788116591 0.003972094352
v -0.002478495354 0.07337547885 0.006540712058
v -0.002463925641 0.07384758163 0.006319081481
v -0.002390017643 0.07437242733 0.006072709623
v -0.002256417689 0.0748995195 0.00582506578
v -0.002068636077 0.07540500406 0.005587356322
v -0.001827123056 0.07589111345 0.005358528617
v -0.0008149392563 0.07296482673 -0.004317506347
v -0.001209252433 0.07255969968 -0.00412609169
v -0.001557925998 0.07211998263 -0.003918621968
v -0.001856141685 0.07165140685 -0.003697809561
v -0.002101285859 0.07115850438 -0.003465782884
v -0.002291173817 0.07064537524 -0.003224476604
v -0.002423459456 0.07011901266 -0.002977140808
v -0.002497933441 0.06957428753 -0.002721461085
v -0.002512562396 0.06903728978 -0.002469603821
v -0.002463939974 0.06847772276 -0.002207449084
v -0.00099800429 0.06883443378 -0.002380307083
v -0.001013137479 0.06923015466 -0.002565823451
v -0.0009848864567 0.06963634009 -0.002756395402
v -0.0009094122439 0.07004956589 -0.002950408836
v -0.0007947493781 0.07043144241 -0.003129917719
v -0.0006353559546 0.07081160527 -0.003308762039
v -0.0004351106105 0.07117445359 -0.003479638992
v -0.0001957088296 0.07151811334 -0.003641666017
v 8.791841254e-05 0.07184658693 -0.003796707792
v 0.0003903476854 0.0721318725 -0.003931609821
v -0.0003773145512 0.07333299317 -0.004491749286
v 7.544322811e-05 0.07015060814 -0.007413653265
v -0.000329403483 0.06966745728 -0.007162435118
v -0.0005907680779 0.06922243875 -0.00696577806
v -0.0007403535801 0.06889620364 -0.006813536313
v -0.0008909461557 0.06847584361 -0.006631137389
v -0.0009971285 0.06794464646 -0.006370920349
v -0.001026379331 0.06756102374 -0.006195380109
v -0.001011056838 0.06714254348 -0.005999221327
v -0.0009381957638 0.06843230015 -0.00219196335
v -0.0009527466325 0.06674475577 -0.005812839327
v -0.002356601265 0.06794176189 -0.00195652977
v -0.002355520254 0.07231849355 0.007035615337
v -0.0008346264408 0.06803746443 -0.002007204556
v -0.0008500922027 0.06634994548 -0.00562811939
v -0.0008131748226 0.06684309551 -0.006200848167
v -0.0007351026067 0.06645934757 -0.006025277066
v -0.0007816644907 0.06715775848 -0.006490871587
v -0.000844691156 0.06761119612 -0.006551493872
v -0.000758415586 0.06795647344 -0.006797371884
v -0.0006356923344 0.06830379513 -0.007028592829
v -0.000366724671 0.06863432229 -0.007472678523
v -0.0002501641027 0.06900648544 -0.007508223992
v 8.578808432e-05 0.06936009098 -0.007830432769
v 9.259676975e-05 0.06971024344 -0.007622516382
v 0.0003936871034 0.0699558316 -0.007805683425
v 0.0003962829814 0.07045281688 -0.00755651431
v 0.0005474023405 0.0696141976 -0.008275493548
v 0.0003250932505 0.06916383859 -0.008437775972
v -0.0001911119308 0.0685685756 -0.007897733409
v 9.30721646e-05 0.06888095093 -0.008283200172
v -0.0004210259324 0.06809318002 -0.007602139927
v -0.000659872038 0.06764309156 -0.007005997635
v -0.0006159274544 0.06651111853 -0.006497740995
v -0.0005916342232 0.06693508375 -0.00703692334
v -0.0006170733427 0.06608552954 -0.005850409973
v -0.0007044048412 0.06596574 -0.005448489252
v -0.0006877571061 0.06765298681 -0.001827459774
v -0.00219151805 0.06742089921 -0.00171290435
v -0.0005067557204 0.06641623768 -0.007098464234
v -0.0005399320985 0.06717579686 -0.007446406468
v -0.0005297581193 0.06666280812 -0.007411952461
v -0.0004654843993 0.06760420796 -0.007716765344
v -0.0003341471363 0.06797941231 -0.008040102417
v -0.0001643223576 0.06835350914 -0.008270274283
v 9.087124728e-05 0.06857108503 -0.008887668369
v 0.0006360015225 0.06940108354 -0.008731546125
v 0.0003206287653 0.06886421389 -0.009025952635
v 0.001067235354 0.06982238006 -0.008746429152
v 0.0009584133847 0.07017243255 -0.008215885858
v 0.0005821750773 0.06913683639 -0.009154754663
v 0.0008743393725 0.06938549648 -0.009272427048
v -0.001627536001 0.06950162193 -0.009317776464
v -0.001286376025 0.06994627393 -0.009527526301
v -0.0001063486608 0.06825605494 -0.008739216521
v -0.001917875553 0.06902863371 -0.00909492252
v -0.0002670828878 0.06792805202 -0.008584830652
v -0.0003916140102 0.06758461005 -0.008423329608
v -0.0005239073047 0.06687612823 -0.008090632531
v -0.0004771095548 0.06723332833 -0.008258294763
v -0.000531290456 0.06651442027 -0.007920993777
v -0.002459418221 0.06748460298 -0.008368908724
v -0.002335804286 0.06801576544 -0.008618451171
v -0.002154813121 0.06853152161 -0.00886095596
v -0.001913943371 0.06736297543 -0.0127316897
v -0.001619819008 0.06783471549 -0.01295397054
v -0.000897782986 0.0703581267 -0.009722075183
v -0.001275757289 0.06827684934 -0.0131625515
v 0.001188818792 0.06960369524 -0.009375889897
v -0.000466132248 0.07073243108 -0.009899174773
v 0.001598854433 0.07004206928 -0.009038513889
v 0.001512959258 0.07027962156 -0.008591480526
v 4.886971028e-06 0.07106615191 -0.01005738444
v 0.001528249493 0.06979454355 -0.009466632949
v -0.000884080933 0.06868636653 -0.01335601487
v -0.0004498502097 0.06905801853 -0.01353188029
v -0.001085959862 0.06774342184 -0.01291316569
v -0.0007539743257 0.0681385199 -0.01309965506
v -0.001372406435 0.06732096689 -0.01271402679
v -0.00147471159 0.06756610104 -0.01169650564
v 0.001397060313 0.07065777576 -0.008138570377
v 0.0006627964752 0.07033020755 -0.007831793956
v 0.001021176902 0.07050513726 -0.0079984858
v 0.001096667463 0.0709378911 -0.007786603761
v 0.001501620681 0.07114080465 -0.007883194838
v 0.001757838692 0.07094640483 -0.008124886865
v 0.001889687193 0.07129227048 -0.007951233776
v 0.001490495753 0.07282550778 -0.004260896422
v 0.001902277224 0.07298699819 -0.00433813639
v 0.0007185188991 0.07070156009 -0.007669940004
v 0.001108658784 0.07263384256 -0.004169600927
v 0.0007308942122 0.07239597849 -0.004056703717
v 9.880760721e-05 0.07365993862 -0.004646803191
v 0.0006078931115 0.07394198423 -0.004780923272
v 0.001145670217 0.07417682521 -0.004893014928
v 0.001706481764 0.07436204009 -0.004981924581
v 0.002340763124 0.07311331611 -0.004398955907
v 0.002285835185 0.07449599076 -0.005046863791
v -0.0004938322352 0.06727454271 -0.001650739472
v -0.001970651255 0.06691861904 -0.001478187768
v -0.001695080944 0.06643750722 -0.001253605551
v -0.002003263749 0.07129899472 0.007512370744
v -0.00174714442 0.07081941884 0.007736307693
v -0.001439690188 0.07036379548 0.00794882025
v -0.002207041978 0.07180068415 0.007277869463
v 0.0177596018 0.05886143504 0.01327217741
v 0.01731236076 0.05919856297 0.01311567078
v 0.01838717897 0.05882294179 0.0132877863
v 0.01824185518 0.05922424697 0.01420448762
v 0.0191341913 0.05945659093 0.01298803106
v 0.0188232562 0.05901537358 0.01319604408
v 0.01871646338 0.05937481829 0.01413232678
v 0.01909126266 0.06048639092 0.01360957102
v 0.01916515776 0.06001600375 0.01383002244
v 0.01899928805 0.05963919254 0.0140073023
v 0.01893999185 0.08794409605 0.0007350462858
v 0.01937944125 0.08768869918 0.0008532830648
v 0.01966129686 0.08718700652 0.001087318911
v 0.01885697005 0.08753882448 -0.0001789126956
v 0.01937897424 0.08727766587 -5.808791298e-05
v -0.01010266434 0.08722518533 7.487883958e-05
v -0.01031251275 0.08767198597 -0.000134045672
v -0.01067972954 0.08793963764 -0.0002582967109
f 1 2 3
f 2 1 4
f 5 6 1
f 7 8 1
f 1 3 9
f 1 10 5
f 1 11 4
f 9 7 1
f 1 8 12
f 13 10 1
f 1 6 14
f 12 13 1
f 14 11 1
f 15 16 3
f 3 17 18
f 9 3 16
f 17 3 19
f 3 2 20
f 20 21 3
f 18 15 3
f 22 23 3
f 23 19 3
f 3 21 22
f 16 24 9
f 7 9 25
f 24 25 9
f 25 26 7
f 8 7 26
f 26 27 8
f 12 8 27
f 27 28 12
f 29 12 28
f 12 29 13
f 11 28 27
f 11 27 26
f 28 11 14
f 16 4 11
f 24 16 11
f 25 24 11
f 26 25 11
f 4 16 15
f 15 18 4
f 18 30 4
f 30 18 31
f 17 31 18
f 31 17 19
f 31 32 33
f 32 31 19
f 33 30 31
f 34 4 30
f 34 30 33
f 35 33 36
f 32 36 33
f 33 35 34
f 36 32 19
f 37 36 13
f 36 37 35
f 36 19 13
f 35 14 34
f 35 38 14
f 38 35 37
f 37 29 38
f 13 29 37
f 28 38 29
f 14 38 28
f 6 39 14
f 34 14 40
f 41 42 14
f 43 41 14
f 14 42 40
f 14 39 43
f 6 5 44
f 45 46 6
f 47 6 46
f 47 39 6
f 6 48 45
f 6 49 50
f 51 48 6
f 6 44 49
f 51 6 50
f 39 47 52
f 39 52 53
f 39 53 54
f 39 54 43
f 44 5 43
f 41 43 5
f 43 54 44
f 5 10 41
f 42 41 10
f 10 13 42
f 40 42 13
f 55 40 13
f 40 55 34
f 13 56 55
f 56 13 51
f 57 51 13
f 13 19 57
f 58 56 51
f 59 60 51
f 61 58 51
f 51 62 61
f 51 50 62
f 48 51 60
f 51 57 59
f 60 63 48
f 45 48 63
f 63 64 45
f 65 45 64
f 45 65 46
f 47 63 60
f 64 63 47
f 60 34 47
f 60 59 34
f 66 59 57
f 34 59 66
f 57 19 66
f 19 67 68
f 69 67 19
f 70 69 19
f 68 66 19
f 19 23 70
f 66 71 34
f 71 66 68
f 67 72 68
f 68 72 71
f 73 67 69
f 67 73 74
f 74 72 67
f 73 69 46
f 69 70 75
f 76 69 77
f 69 76 46
f 75 77 69
f 78 75 70
f 79 78 70
f 70 23 79
f 23 22 79
f 4 79 80
f 79 4 81
f 79 81 82
f 78 79 82
f 80 79 22
f 82 75 78
f 82 83 84
f 84 85 82
f 83 82 81
f 75 82 85
f 4 86 81
f 81 87 83
f 87 81 86
f 88 89 83
f 83 87 88
f 84 83 89
f 89 90 84
f 91 84 90
f 85 84 91
f 91 92 85
f 75 85 92
f 90 93 91
f 94 91 93
f 92 91 94
f 95 90 89
f 90 95 96
f 96 93 90
f 89 97 95
f 97 89 88
f 97 88 98
f 98 88 87
f 87 99 98
f 86 99 87
f 4 100 86
f 99 86 100
f 101 98 99
f 99 102 101
f 100 102 99
f 98 103 97
f 103 98 101
f 97 103 104
f 104 105 97
f 95 97 105
f 105 106 95
f 107 95 106
f 95 107 96
f 108 96 107
f 93 96 108
f 108 109 93
f 93 109 94
f 110 94 109
f 94 111 92
f 111 94 110
f 75 92 111
f 112 111 110
f 75 111 112
f 109 113 110
f 114 110 113
f 112 110 114
f 108 113 109
f 115 108 116
f 117 116 108
f 113 108 115
f 107 117 108
f 106 118 107
f 117 107 118
f 119 120 106
f 106 105 119
f 118 106 120
f 105 104 119
f 121 119 104
f 104 122 121
f 122 104 103
f 101 122 103
f 122 101 123
f 123 101 102
f 102 124 123
f 125 124 102
f 102 100 125
f 125 100 4
f 126 125 4
f 124 125 126
f 124 127 123
f 126 127 124
f 128 123 129
f 123 128 130
f 129 123 127
f 123 130 122
f 131 121 122
f 122 130 131
f 132 133 121
f 121 131 132
f 119 121 133
f 134 120 119
f 133 134 119
f 135 120 134
f 120 135 136
f 136 137 120
f 120 137 118
f 138 118 137
f 118 138 117
f 117 139 116
f 139 117 138
f 140 139 138
f 138 141 140
f 138 142 143
f 138 144 142
f 143 141 138
f 145 138 137
f 138 145 144
f 137 136 145
f 136 135 146
f 146 147 136
f 147 148 136
f 145 136 148
f 135 149 150
f 150 146 135
f 134 149 135
f 149 134 133
f 151 133 132
f 133 152 149
f 153 133 151
f 133 153 152
f 132 154 151
f 154 132 131
f 131 155 154
f 131 128 155
f 130 128 131
f 128 156 155
f 129 156 128
f 157 154 155
f 158 157 155
f 155 156 158
f 159 151 154
f 154 157 159
f 160 151 159
f 151 160 153
f 153 160 161
f 161 162 153
f 152 153 162
f 162 163 152
f 149 152 163
f 163 150 149
f 164 150 163
f 150 164 165
f 165 146 150
f 146 165 166
f 166 147 146
f 167 148 147
f 147 166 167
f 148 167 168
f 168 169 148
f 148 169 145
f 144 145 169
f 142 144 170
f 169 170 144
f 169 168 171
f 171 170 169
f 168 172 173
f 173 171 168
f 172 168 167
f 167 174 172
f 174 167 166
f 175 166 165
f 166 175 174
f 176 165 164
f 165 176 175
f 177 164 178
f 164 177 176
f 163 178 164
f 178 163 162
f 162 179 178
f 179 162 161
f 180 161 181
f 161 180 179
f 181 161 160
f 160 182 181
f 159 182 160
f 182 159 183
f 159 184 183
f 184 159 157
f 157 158 184
f 185 183 184
f 185 184 186
f 186 184 158
f 187 183 188
f 188 183 185
f 183 187 182
f 182 187 189
f 189 190 182
f 190 181 182
f 191 181 190
f 181 191 180
f 192 180 191
f 180 192 193
f 193 179 180
f 179 193 194
f 194 178 179
f 178 194 177
f 177 194 195
f 195 196 177
f 176 177 196
f 196 197 176
f 175 176 197
f 197 198 175
f 174 175 198
f 172 174 198
f 173 172 198
f 198 199 173
f 200 173 199
f 171 173 200
f 201 198 197
f 198 202 203
f 203 199 198
f 198 204 205
f 205 202 198
f 204 198 206
f 198 201 206
f 207 197 196
f 197 207 201
f 208 196 195
f 196 208 207
f 209 195 210
f 195 209 208
f 210 195 194
f 194 193 210
f 211 210 193
f 193 192 211
f 212 211 192
f 192 213 212
f 191 213 192
f 213 191 214
f 190 214 191
f 214 190 189
f 189 215 214
f 215 189 216
f 216 189 187
f 187 188 216
f 216 217 215
f 217 216 218
f 218 216 188
f 219 215 217
f 215 219 220
f 220 214 215
f 214 220 213
f 213 220 221
f 221 212 213
f 222 212 221
f 212 222 223
f 223 211 212
f 211 223 224
f 224 210 211
f 210 224 209
f 225 209 224
f 209 225 226
f 226 208 209
f 227 207 208
f 208 226 227
f 228 201 207
f 207 227 228
f 229 206 201
f 201 228 229
f 206 229 204
f 230 205 204
f 204 231 230
f 231 204 229
f 229 232 231
f 232 229 228
f 228 233 232
f 233 228 227
f 227 234 233
f 234 227 226
f 226 235 234
f 235 226 225
f 225 236 235
f 236 225 237
f 224 237 225
f 237 224 223
f 223 238 237
f 238 223 222
f 222 239 238
f 239 222 240
f 221 240 222
f 240 221 241
f 241 221 220
f 220 219 241
f 242 241 219
f 219 243 242
f 217 243 219
f 243 217 244
f 218 244 217
f 244 218 245
f 245 218 188
f 244 246 243
f 246 244 247
f 245 247 244
f 248 242 243
f 243 246 248
f 249 242 248
f 242 249 250
f 250 241 242
f 241 250 240
f 251 240 250
f 240 251 239
f 239 252 253
f 252 239 251
f 253 238 239
f 238 253 254
f 254 237 238
f 237 254 236
f 255 236 254
f 236 255 256
f 256 235 236
f 256 234 235
f 234 256 257
f 257 233 234
f 258 232 233
f 233 257 258
f 258 231 232
f 231 258 259
f 260 259 258
f 261 258 257
f 258 261 262
f 258 262 260
f 261 257 256
f 263 256 255
f 256 263 264
f 264 261 256
f 265 255 266
f 255 265 263
f 255 254 253
f 253 266 255
f 266 253 252
f 251 267 252
f 266 252 267
f 267 251 268
f 250 268 251
f 268 250 249
f 249 269 268
f 269 249 270
f 248 270 249
f 270 248 271
f 271 248 246
f 246 272 271
f 247 272 246
f 272 247 273
f 274 273 247
f 247 245 274
f 275 271 272
f 272 276 275
f 273 276 272
f 271 277 270
f 277 271 275
f 270 278 269
f 278 270 277
f 279 269 278
f 269 279 280
f 280 268 269
f 268 280 267
f 281 267 280
f 267 281 266
f 282 266 281
f 266 282 265
f 283 265 282
f 265 283 284
f 284 263 265
f 285 264 263
f 263 284 285
f 264 285 286
f 286 287 264
f 261 264 287
f 287 262 261
f 262 287 288
f 288 260 262
f 289 288 287
f 287 286 289
f 290 286 285
f 291 289 286
f 286 290 291
f 292 285 284
f 285 292 290
f 293 284 283
f 284 293 292
f 282 294 283
f 295 283 294
f 283 295 293
f 294 282 296
f 281 296 282
f 296 281 297
f 281 280 279
f 279 297 281
f 297 279 298
f 278 298 279
f 298 278 299
f 277 299 278
f 299 277 300
f 275 300 277
f 300 275 301
f 301 275 276
f 276 273 302
f 302 303 276
f 276 303 301
f 304 301 305
f 301 304 300
f 305 301 303
f 300 306 299
f 306 300 304
f 299 307 298
f 307 299 306
f 297 298 307
f 308 297 309
f 297 308 296
f 307 309 297
f 310 296 308
f 296 310 294
f 311 294 310
f 294 311 295
f 312 295 311
f 295 312 313
f 313 293 295
f 293 313 314
f 314 292 293
f 314 290 292
f 290 314 315
f 315 291 290
f 316 314 313
f 316 315 314
f 313 317 316
f 317 313 312
f 318 319 312
f 320 312 319
f 312 320 317
f 312 311 318
f 310 318 311
f 308 321 310
f 318 310 321
f 321 308 322
f 309 322 308
f 322 309 323
f 324 323 309
f 309 325 326
f 326 324 309
f 309 307 325
f 306 325 307
f 325 306 327
f 304 327 306
f 327 304 328
f 305 328 304
f 329 305 330
f 328 305 329
f 303 330 305
f 303 302 331
f 331 330 303
f 330 331 332
f 332 333 330
f 330 333 329
f 334 329 333
f 335 329 334
f 329 335 328
f 328 336 327
f 336 328 335
f 327 326 325
f 326 327 336
f 324 326 337
f 336 337 326
f 324 338 323
f 338 324 339
f 324 337 340
f 340 339 324
f 322 323 338
f 341 322 342
f 338 342 322
f 322 341 321
f 343 321 341
f 321 343 318
f 319 318 343
f 319 344 320
f 344 319 345
f 343 345 319
f 346 320 344
f 346 317 320
f 347 348 344
f 344 345 347
f 349 344 348
f 344 349 346
f 345 350 351
f 351 347 345
f 345 343 350
f 341 350 343
f 342 352 341
f 350 341 352
f 352 342 353
f 354 353 342
f 342 338 354
f 339 354 338
f 354 339 355
f 339 340 356
f 339 356 357
f 357 355 339
f 358 356 340
f 340 359 358
f 359 340 337
f 337 336 359
f 335 359 336
f 334 360 335
f 359 335 360
f 360 358 359
f 361 362 358
f 356 358 362
f 358 360 361
f 362 357 356
f 363 364 357
f 355 357 364
f 357 362 363
f 355 365 354
f 365 355 366
f 355 364 367
f 367 366 355
f 353 354 365
f 368 353 369
f 365 369 353
f 353 368 352
f 351 352 368
f 352 351 350
f 347 351 370
f 368 370 351
f 348 347 371
f 370 371 347
f 371 372 348
f 348 373 349
f 373 348 372
f 374 349 373
f 374 346 349
f 373 372 375
f 373 376 374
f 375 377 373
f 373 377 376
f 372 371 378
f 378 375 372
f 371 379 380
f 380 378 371
f 371 370 379
f 370 368 381
f 381 379 370
f 369 381 368
f 381 369 382
f 383 382 369
f 369 365 383
f 366 383 365
f 383 366 384
f 366 367 385
f 366 385 386
f 386 384 366
f 387 385 367
f 367 388 387
f 388 367 364
f 364 363 388
f 389 388 363
f 390 363 362
f 363 390 389
f 362 361 390
f 391 389 390
f 390 392 391
f 392 390 361
f 388 389 393
f 394 393 389
f 389 391 394
f 393 387 388
f 395 396 387
f 385 387 396
f 387 393 395
f 396 386 385
f 384 386 397
f 398 397 386
f 386 396 398
f 399 384 400
f 401 400 384
f 384 397 401
f 384 399 383
f 382 383 399
f 399 402 382
f 403 382 402
f 382 403 381
f 379 381 403
f 403 380 379
f 380 403 404
f 404 405 380
f 378 380 405
f 405 406 378
f 375 378 406
f 405 404 407
f 407 408 405
f 406 405 408
f 404 402 409
f 409 407 404
f 402 404 403
f 402 399 410
f 410 409 402
f 400 410 399
f 400 401 411
f 410 400 412
f 400 411 413
f 413 412 400
f 401 414 415
f 415 411 401
f 414 401 397
f 397 398 414
f 416 414 398
f 417 398 396
f 398 417 416
f 396 395 417
f 418 417 395
f 395 419 418
f 419 395 393
f 393 394 419
f 419 394 420
f 394 391 421
f 421 420 394
f 418 419 422
f 420 422 419
f 417 418 423
f 423 418 424
f 422 424 418
f 423 416 417
f 414 416 425
f 426 425 416
f 416 423 426
f 425 415 414
f 415 425 427
f 427 428 415
f 411 415 428
f 428 413 411
f 413 428 429
f 429 430 413
f 412 413 430
f 430 431 412
f 410 412 431
f 409 410 432
f 431 432 410
f 432 433 409
f 407 409 433
f 433 434 407
f 408 407 434
f 434 435 408
f 406 408 435
f 434 433 436
f 436 437 434
f 435 434 437
f 433 432 438
f 438 436 433
f 432 431 438
f 431 439 440
f 440 438 431
f 431 430 439
f 430 429 441
f 441 439 430
f 442 429 428
f 429 442 443
f 443 441 429
f 428 427 442
f 427 444 445
f 445 442 427
f 444 427 425
f 425 426 444
f 444 426 446
f 426 423 447
f 447 446 426
f 424 447 423
f 448 424 422
f 424 448 449
f 449 447 424
f 450 422 420
f 422 450 448
f 451 448 450
f 448 451 452
f 452 449 448
f 449 452 453
f 453 454 449
f 447 449 454
f 454 446 447
f 455 446 456
f 446 455 444
f 454 456 446
f 445 444 455
f 457 445 458
f 455 458 445
f 442 445 457
f 459 443 442
f 442 457 459
f 459 460 443
f 441 443 460
f 460 461 441
f 439 441 461
f 461 440 439
f 440 461 462
f 462 463 440
f 438 440 463
f 464 465 438
f 436 438 465
f 438 463 464
f 463 462 466
f 466 464 463
f 462 467 468
f 468 466 462
f 467 462 461
f 461 460 467
f 459 467 460
f 469 459 457
f 469 470 459
f 470 471 459
f 472 459 471
f 467 459 472
f 457 458 469
f 473 474 458
f 469 458 474
f 458 455 473
f 456 473 455
f 475 473 456
f 476 456 454
f 456 476 475
f 454 453 476
f 477 453 452
f 453 477 478
f 478 476 453
f 479 452 451
f 452 479 477
f 480 477 479
f 477 480 481
f 481 478 477
f 478 481 482
f 476 478 483
f 482 483 478
f 483 475 476
f 484 485 475
f 473 475 485
f 475 483 484
f 485 474 473
f 474 485 486
f 486 487 474
f 474 487 470
f 470 469 474
f 487 488 470
f 471 470 488
f 488 489 471
f 490 471 489
f 471 490 472
f 491 472 490
f 468 472 491
f 472 468 467
f 491 492 468
f 466 468 492
f 492 493 466
f 464 466 493
f 492 491 494
f 494 495 492
f 493 492 495
f 494 491 496
f 490 496 491
f 496 490 497
f 489 497 490
f 498 489 488
f 489 498 499
f 499 497 489
f 500 488 487
f 488 500 498
f 487 486 500
f 486 501 502
f 502 500 486
f 501 486 485
f 485 484 501
f 503 501 484
f 484 504 503
f 504 484 483
f 483 482 504
f 482 481 505
f 482 505 506
f 482 507 504
f 506 507 482
f 480 505 481
f 480 508 505
f 506 505 508
f 508 509 506
f 510 506 509
f 506 510 507
f 511 507 510
f 503 504 507
f 507 511 503
f 501 503 512
f 503 513 512
f 511 513 503
f 512 502 501
f 502 512 514
f 514 515 502
f 500 502 515
f 515 498 500
f 498 515 516
f 516 499 498
f 499 516 517
f 517 518 499
f 497 499 518
f 518 519 497
f 497 519 496
f 520 496 519
f 496 520 494
f 521 494 520
f 495 494 521
f 519 522 520
f 523 520 522
f 520 523 521
f 519 518 524
f 524 522 519
f 525 524 518
f 518 517 525
f 526 517 516
f 517 526 527
f 527 525 517
f 516 528 526
f 528 516 515
f 515 514 528
f 529 530 514
f 514 530 528
f 513 529 514
f 514 512 513
f 529 513 531
f 511 531 513
f 510 532 511
f 531 511 532
f 509 533 510
f 532 510 533
f 509 534 535
f 509 508 534
f 533 509 535
f 533 536 537
f 536 533 535
f 537 538 533
f 533 538 532
f 531 532 538
f 539 531 540
f 538 540 531
f 531 539 529
f 541 529 539
f 529 541 530
f 542 530 541
f 530 542 526
f 526 528 530
f 542 543 526
f 526 543 527
f 544 527 545
f 545 527 546
f 543 546 527
f 527 544 525
f 524 525 544
f 544 547 524
f 522 524 547
f 547 548 522
f 522 548 523
f 549 523 548
f 523 549 550
f 550 521 523
f 548 547 551
f 551 552 548
f 548 552 549
f 547 544 553
f 553 551 547
f 545 553 544
f 546 554 545
f 555 545 554
f 553 545 555
f 543 556 546
f 554 546 556
f 556 543 557
f 542 557 543
f 541 558 542
f 557 542 558
f 558 541 559
f 541 539 559
f 540 559 539
f 560 559 540
f 540 561 560
f 561 540 538
f 538 537 561
f 562 561 537
f 563 537 536
f 537 563 562
f 564 560 561
f 561 562 564
f 560 564 565
f 565 566 560
f 559 560 566
f 567 568 559
f 559 566 567
f 559 568 558
f 557 558 568
f 556 557 569
f 569 557 570
f 568 570 557
f 571 556 572
f 556 571 554
f 569 572 556
f 573 554 571
f 554 573 555
f 574 555 573
f 575 555 574
f 555 575 553
f 551 553 575
f 575 576 551
f 552 551 576
f 576 577 552
f 578 549 552
f 552 577 578
f 576 575 579
f 579 580 576
f 577 576 580
f 574 579 575
f 573 581 574
f 582 574 581
f 574 582 583
f 579 574 583
f 581 573 584
f 571 584 573
f 585 586 571
f 571 572 585
f 584 571 586
f 587 585 572
f 572 569 587
f 570 587 569
f 588 570 568
f 589 587 570
f 570 590 589
f 570 588 590
f 568 567 588
f 567 591 592
f 591 567 566
f 592 588 567
f 566 565 591
f 593 592 591
f 591 594 593
f 594 591 565
f 595 596 592
f 592 593 595
f 588 592 596
f 596 590 588
f 590 596 597
f 597 589 590
f 589 597 598
f 598 599 589
f 587 589 599
f 599 585 587
f 585 599 600
f 600 586 585
f 601 602 586
f 586 600 601
f 586 602 584
f 603 584 602
f 584 603 581
f 581 604 605
f 604 581 603
f 581 605 582
f 605 606 582
f 607 582 606
f 608 582 607
f 608 583 582
f 609 583 608
f 583 609 610
f 583 610 579
f 611 608 607
f 612 608 613
f 608 611 613
f 608 612 609
f 614 607 615
f 606 615 607
f 607 614 611
f 615 606 616
f 604 616 606
f 606 605 604
f 617 616 604
f 604 603 617
f 602 617 603
f 602 601 618
f 618 617 602
f 601 619 620
f 619 601 600
f 620 618 601
f 600 621 619
f 621 600 599
f 599 598 621
f 622 621 598
f 598 623 622
f 623 598 597
f 597 624 623
f 624 597 596
f 596 595 624
f 623 624 71
f 71 624 595
f 71 622 623
f 625 622 71
f 621 622 625
f 625 619 621
f 626 620 619
f 619 625 626
f 627 628 620
f 620 626 627
f 618 620 628
f 628 629 618
f 617 618 629
f 629 616 617
f 616 629 630
f 630 631 616
f 616 631 615
f 614 615 631
f 632 611 614
f 632 614 633
f 633 614 631
f 634 613 611
f 611 632 634
f 613 635 612
f 635 613 636
f 613 634 636
f 637 609 612
f 612 638 637
f 638 612 635
f 635 639 638
f 636 640 635
f 639 635 640
f 641 636 634
f 640 636 641
f 634 642 641
f 642 634 632
f 632 643 642
f 633 643 632
f 644 643 633
f 645 633 631
f 633 645 644
f 631 630 646
f 631 646 645
f 647 630 629
f 630 647 648
f 648 646 630
f 629 628 647
f 649 647 628
f 628 627 649
f 71 649 627
f 71 627 626
f 71 626 625
f 650 651 71
f 71 651 46
f 71 652 650
f 74 652 71
f 72 74 71
f 71 46 2
f 71 653 77
f 77 75 71
f 2 654 71
f 71 654 653
f 655 656 71
f 656 649 71
f 657 655 71
f 71 658 657
f 71 595 593
f 593 594 71
f 71 75 659
f 594 660 71
f 71 660 661
f 659 658 71
f 661 34 71
f 647 649 656
f 656 648 647
f 655 662 648
f 648 656 655
f 646 648 662
f 662 645 646
f 662 655 657
f 645 662 663
f 657 663 662
f 663 644 645
f 644 663 664
f 657 664 663
f 664 657 658
f 665 658 659
f 658 665 664
f 666 659 75
f 667 659 666
f 659 667 665
f 665 667 668
f 665 668 669
f 669 664 665
f 664 669 644
f 670 669 668
f 643 644 669
f 669 670 643
f 671 668 667
f 672 668 671
f 668 672 670
f 666 673 667
f 667 673 671
f 674 666 75
f 673 666 674
f 674 675 673
f 673 675 676
f 676 671 673
f 677 671 676
f 671 677 672
f 672 677 678
f 678 679 672
f 670 672 679
f 643 670 642
f 679 642 670
f 642 679 680
f 679 678 681
f 681 680 679
f 682 678 677
f 678 682 681
f 676 683 677
f 677 683 682
f 684 676 675
f 683 676 684
f 685 686 675
f 675 674 685
f 675 686 684
f 685 674 75
f 687 685 75
f 686 685 687
f 687 688 686
f 686 688 689
f 689 684 686
f 690 684 689
f 684 690 683
f 683 690 691
f 691 682 683
f 682 691 692
f 692 681 682
f 693 680 681
f 681 694 693
f 694 681 692
f 680 641 642
f 641 680 695
f 680 693 695
f 695 693 696
f 693 694 697
f 697 696 693
f 692 698 694
f 694 698 699
f 699 697 694
f 700 692 691
f 701 692 700
f 702 692 701
f 692 702 698
f 703 691 690
f 691 703 700
f 689 704 690
f 690 704 703
f 705 689 688
f 704 689 705
f 706 707 688
f 688 687 706
f 688 707 705
f 75 706 687
f 708 706 75
f 707 706 708
f 708 709 707
f 707 709 710
f 710 705 707
f 711 705 710
f 705 711 704
f 704 711 712
f 712 703 704
f 703 712 713
f 713 700 703
f 713 701 700
f 714 701 713
f 701 714 702
f 702 714 715
f 715 716 702
f 698 702 716
f 716 699 698
f 717 697 699
f 718 699 716
f 699 718 717
f 719 696 697
f 697 717 719
f 696 720 695
f 696 719 721
f 721 720 696
f 721 719 722
f 719 717 723
f 723 722 719
f 717 718 724
f 724 723 717
f 716 725 718
f 718 725 726
f 726 724 718
f 725 716 715
f 727 715 714
f 715 728 725
f 728 715 727
f 713 729 714
f 729 730 714
f 714 730 727
f 729 713 712
f 731 712 711
f 712 731 729
f 710 732 711
f 711 732 731
f 733 710 709
f 732 710 733
f 734 735 709
f 709 708 734
f 709 735 733
f 734 708 75
f 75 736 734
f 735 734 736
f 736 737 735
f 735 737 738
f 738 733 735
f 739 733 738
f 733 739 732
f 732 739 740
f 740 731 732
f 731 740 741
f 741 729 731
f 730 729 741
f 741 742 730
f 730 742 743
f 743 744 730
f 744 727 730
f 727 745 728
f 745 727 744
f 728 745 746
f 725 728 747
f 746 747 728
f 747 726 725
f 724 726 748
f 726 747 749
f 749 748 726
f 723 724 750
f 748 750 724
f 751 750 748
f 752 748 749
f 748 752 751
f 753 749 747
f 754 749 753
f 749 754 752
f 747 746 753
f 755 746 745
f 756 753 746
f 746 755 756
f 744 757 745
f 745 757 755
f 757 744 743
f 758 743 742
f 743 759 757
f 759 743 758
f 742 741 760
f 760 761 742
f 742 761 758
f 740 762 741
f 763 741 762
f 741 763 760
f 762 740 739
f 738 764 739
f 739 764 762
f 765 738 737
f 764 738 765
f 766 767 764
f 764 767 768
f 764 765 766
f 764 768 769
f 769 762 764
f 762 769 763
f 770 763 769
f 763 770 771
f 771 760 763
f 761 760 771
f 771 772 761
f 761 772 773
f 773 758 761
f 758 774 759
f 774 758 773
f 757 759 775
f 776 775 759
f 759 774 776
f 775 755 757
f 755 775 777
f 777 756 755
f 778 756 777
f 779 753 756
f 756 778 779
f 753 779 754
f 780 752 754
f 754 781 780
f 781 754 779
f 779 782 781
f 782 779 778
f 778 783 782
f 783 778 784
f 777 784 778
f 784 777 785
f 785 777 775
f 775 776 785
f 786 785 776
f 776 787 786
f 787 776 788
f 774 788 776
f 773 788 774
f 789 773 772
f 788 773 789
f 772 771 790
f 772 790 791
f 772 792 789
f 791 792 772
f 771 770 790
f 770 793 791
f 769 793 770
f 791 790 770
f 769 768 793
f 794 768 795
f 768 794 793
f 767 795 768
f 796 793 794
f 793 796 791
f 797 791 796
f 791 798 792
f 798 791 797
f 799 789 792
f 800 799 792
f 792 798 800
f 789 801 788
f 801 789 799
f 788 801 787
f 802 786 787
f 787 803 802
f 803 787 801
f 804 785 786
f 786 805 804
f 805 786 802
f 785 804 784
f 784 806 783
f 806 784 804
f 807 783 806
f 783 807 808
f 808 782 783
f 809 781 782
f 782 808 809
f 810 808 807
f 811 809 808
f 808 810 811
f 807 812 810
f 812 807 813
f 806 813 807
f 813 806 814
f 804 814 806
f 814 804 805
f 805 815 814
f 815 805 816
f 802 816 805
f 816 802 817
f 817 802 803
f 803 818 817
f 819 818 803
f 801 819 803
f 799 819 801
f 819 799 800
f 800 820 819
f 820 800 821
f 821 800 798
f 798 143 821
f 797 143 798
f 821 822 820
f 822 821 823
f 823 821 143
f 820 824 818
f 818 819 820
f 824 820 822
f 825 817 818
f 818 824 825
f 817 826 816
f 826 817 825
f 816 827 815
f 827 816 826
f 828 814 815
f 815 829 828
f 829 815 827
f 814 828 813
f 812 813 828
f 828 830 812
f 831 812 830
f 832 810 812
f 812 831 832
f 810 832 833
f 833 811 810
f 811 833 834
f 811 835 809
f 834 836 811
f 835 811 836
f 781 809 835
f 835 780 781
f 780 835 837
f 836 837 835
f 836 838 837
f 836 834 839
f 838 836 839
f 834 840 841
f 840 834 833
f 841 839 834
f 833 842 840
f 842 833 832
f 832 843 842
f 843 832 831
f 844 831 845
f 831 844 846
f 831 846 843
f 830 845 831
f 830 828 829
f 847 848 830
f 845 830 848
f 830 829 847
f 827 847 829
f 847 827 849
f 826 849 827
f 849 826 850
f 825 850 826
f 850 825 851
f 851 825 824
f 852 850 853
f 850 852 849
f 851 853 850
f 849 854 847
f 854 849 852
f 848 847 854
f 845 848 855
f 854 855 848
f 845 856 844
f 856 845 857
f 855 857 845
f 858 846 844
f 844 859 858
f 859 844 856
f 858 843 846
f 860 842 843
f 843 858 860
f 861 840 842
f 842 860 861
f 862 841 840
f 840 861 862
f 839 841 863
f 864 863 841
f 841 862 864
f 865 862 861
f 866 864 862
f 862 865 866
f 861 867 865
f 867 861 860
f 860 868 867
f 868 860 858
f 858 869 868
f 869 858 859
f 859 870 869
f 856 871 859
f 870 859 871
f 856 872 871
f 873 874 856
f 856 857 873
f 872 856 874
f 857 855 875
f 875 873 857
f 855 854 876
f 876 875 855
f 852 876 854
f 876 852 877
f 853 877 852
f 875 876 878
f 877 878 876
f 873 875 879
f 880 879 875
f 875 878 880
f 874 873 260
f 879 260 873
f 874 881 872
f 881 874 288
f 260 288 874
f 872 882 883
f 883 871 872
f 882 872 881
f 871 883 870
f 884 869 870
f 884 870 883
f 885 868 869
f 869 884 885
f 885 867 868
f 886 865 867
f 867 885 886
f 887 866 865
f 865 886 887
f 864 866 888
f 887 888 866
f 863 864 889
f 888 889 864
f 889 888 890
f 891 890 888
f 888 887 891
f 892 887 886
f 887 892 893
f 893 891 887
f 894 886 885
f 886 894 892
f 885 895 894
f 895 885 884
f 883 896 884
f 897 884 896
f 884 897 895
f 896 883 882
f 882 898 896
f 881 291 882
f 898 882 291
f 291 881 289
f 288 289 881
f 291 315 898
f 897 896 898
f 898 899 897
f 899 898 315
f 900 895 897
f 900 897 899
f 901 894 895
f 895 900 901
f 902 892 894
f 894 901 902
f 903 893 892
f 892 902 903
f 891 893 904
f 903 904 893
f 890 891 905
f 904 905 891
f 890 906 889
f 906 890 907
f 905 907 890
f 908 889 906
f 889 908 863
f 909 906 910
f 906 909 908
f 907 910 906
f 910 907 911
f 905 911 907
f 911 905 912
f 904 912 905
f 912 904 913
f 914 913 904
f 904 903 914
f 915 914 903
f 916 903 902
f 903 916 915
f 916 902 901
f 917 901 900
f 901 917 916
f 899 918 900
f 917 900 918
f 918 899 316
f 315 316 899
f 919 918 346
f 317 346 918
f 918 919 917
f 918 316 317
f 917 919 920
f 916 917 920
f 915 916 920
f 376 915 920
f 915 377 914
f 377 915 376
f 921 914 377
f 914 921 913
f 913 922 912
f 922 913 921
f 923 912 922
f 912 923 911
f 911 924 910
f 924 911 923
f 925 910 924
f 910 925 909
f 909 926 927
f 927 908 909
f 926 909 925
f 908 927 928
f 928 863 908
f 863 928 839
f 928 929 930
f 931 839 928
f 929 928 927
f 928 930 931
f 927 932 933
f 932 927 926
f 927 933 929
f 926 934 935
f 936 937 926
f 925 936 926
f 926 935 932
f 934 926 937
f 936 925 938
f 924 938 925
f 938 924 939
f 923 939 924
f 939 923 940
f 922 940 923
f 922 941 940
f 921 942 922
f 941 922 942
f 942 921 375
f 377 375 921
f 375 406 942
f 435 942 406
f 942 435 941
f 943 940 941
f 941 437 943
f 437 941 435
f 940 943 939
f 939 944 938
f 944 939 943
f 938 945 936
f 945 938 944
f 937 936 945
f 937 946 934
f 937 947 946
f 947 937 948
f 945 948 937
f 949 935 934
f 934 950 949
f 950 934 946
f 935 949 951
f 951 932 935
f 932 951 952
f 952 933 932
f 933 952 953
f 953 929 933
f 952 954 955
f 955 953 952
f 954 952 951
f 951 956 954
f 956 951 949
f 949 957 956
f 957 949 950
f 946 958 950
f 959 950 958
f 950 959 957
f 958 946 947
f 947 960 958
f 960 947 961
f 948 961 947
f 948 945 962
f 962 963 948
f 964 948 963
f 948 964 961
f 944 962 945
f 943 965 944
f 962 944 965
f 965 943 437
f 437 436 965
f 965 465 962
f 465 965 436
f 963 962 465
f 963 966 967
f 963 967 964
f 966 963 465
f 968 964 967
f 964 968 969
f 969 961 964
f 961 969 960
f 970 958 960
f 971 960 969
f 960 971 970
f 958 970 959
f 972 959 970
f 959 972 973
f 959 973 974
f 974 957 959
f 974 956 957
f 975 954 956
f 956 974 975
f 954 975 976
f 976 955 954
f 955 976 977
f 977 978 955
f 953 955 978
f 978 979 953
f 929 953 979
f 978 977 980
f 980 981 978
f 979 978 981
f 980 977 982
f 983 982 977
f 977 976 983
f 984 983 976
f 976 975 984
f 985 984 975
f 975 974 985
f 986 985 974
f 974 973 987
f 987 986 974
f 973 972 987
f 970 988 972
f 972 988 989
f 989 987 972
f 988 970 971
f 990 971 991
f 971 990 988
f 969 991 971
f 991 969 968
f 968 992 991
f 992 968 993
f 967 993 968
f 993 967 966
f 993 994 992
f 994 993 995
f 966 995 993
f 550 992 994
f 992 550 996
f 996 991 992
f 991 996 990
f 988 990 997
f 578 997 990
f 990 996 578
f 997 989 988
f 989 997 998
f 998 999 989
f 987 989 999
f 999 1000 987
f 986 987 1000
f 985 986 1001
f 1000 1001 986
f 984 985 1001
f 983 984 1002
f 1001 1002 984
f 982 983 1003
f 1002 1003 983
f 1003 1004 982
f 1005 982 1004
f 982 1005 980
f 1006 980 1005
f 981 980 1006
f 1004 721 1005
f 722 1005 721
f 1005 722 1006
f 720 721 1004
f 1004 1007 720
f 1007 1004 1003
f 1003 1008 1007
f 1008 1003 1002
f 1002 639 1008
f 639 1002 1001
f 638 1001 1000
f 1001 638 639
f 637 1000 999
f 1000 637 638
f 1009 999 998
f 999 1009 637
f 998 580 1009
f 580 998 577
f 577 998 997
f 997 578 577
f 549 578 996
f 996 550 549
f 994 521 550
f 521 994 495
f 995 495 994
f 495 995 493
f 493 1010 464
f 1010 493 995
f 995 966 1010
f 465 1010 966
f 465 464 1010
f 580 579 610
f 610 1009 580
f 1009 610 609
f 609 637 1009
f 640 1008 639
f 695 1007 1008
f 1008 640 695
f 695 720 1007
f 641 695 640
f 1011 1006 722
f 1006 1012 981
f 1012 1006 1011
f 722 723 1011
f 750 1011 723
f 1011 1013 1012
f 1013 1011 750
f 1014 1012 1013
f 1015 981 1012
f 1012 1014 1015
f 981 1015 979
f 930 979 1015
f 1015 931 930
f 931 1015 1014
f 1013 1016 1014
f 1014 1017 931
f 1017 1014 1016
f 750 751 1013
f 1016 1013 751
f 751 1018 1016
f 1016 838 1017
f 838 1016 1018
f 839 1017 838
f 839 931 1017
f 1018 837 838
f 1018 751 752
f 837 1018 780
f 752 780 1018
f 979 930 929
f 374 376 920
f 346 374 919
f 919 374 920
f 260 879 259
f 230 259 879
f 879 880 230
f 259 230 231
f 205 230 880
f 1019 880 878
f 880 1019 205
f 202 205 1019
f 878 877 1019
f 203 1019 877
f 1019 203 202
f 877 853 203
f 199 203 853
f 853 1020 199
f 853 851 1020
f 199 1020 200
f 1020 851 200
f 824 200 851
f 200 822 1021
f 200 1021 171
f 822 200 824
f 823 1021 822
f 1021 823 1022
f 1022 171 1021
f 171 1022 170
f 1022 823 143
f 143 142 1022
f 170 1022 142
f 143 797 141
f 140 797 1023
f 797 140 141
f 796 1023 797
f 139 140 116
f 1023 116 140
f 116 1023 1024
f 1025 1024 1023
f 1023 796 1025
f 794 1025 796
f 1024 1025 1026
f 1027 1026 1025
f 1025 794 1027
f 116 1024 115
f 115 1024 1026
f 113 115 1026
f 1028 1026 1027
f 1026 1028 113
f 1027 1029 1028
f 1029 1027 795
f 795 1027 794
f 113 1028 114
f 1030 114 1028
f 1028 1029 1030
f 1031 1030 1029
f 795 1032 1029
f 1029 1032 1031
f 1032 795 767
f 1033 1031 1032
f 1032 766 1033
f 767 766 1032
f 1034 1030 1031
f 1031 1035 1034
f 1035 1031 1033
f 1036 114 1030
f 1030 1034 1036
f 114 1036 112
f 112 1036 75
f 1036 1034 75
f 75 1034 1035
f 1035 1037 75
f 1033 1037 1035
f 1037 1033 1038
f 1038 1033 766
f 766 765 1038
f 1038 1039 1037
f 1039 1038 737
f 737 1038 765
f 1037 1039 75
f 1039 736 75
f 737 736 1039
f 1040 1041 34
f 55 1042 34
f 34 1042 1043
f 47 34 1043
f 1044 4 34
f 34 1041 1045
f 661 1046 34
f 34 1047 1040
f 34 1048 1047
f 34 1049 1048
f 34 1050 1049
f 34 1051 1050
f 1052 1051 34
f 1053 1052 34
f 34 1046 1053
f 34 1054 1044
f 1055 1054 34
f 34 1056 1055
f 1057 1056 34
f 1058 1057 34
f 1059 1058 34
f 34 1045 1059
f 1040 1060 1061
f 1060 1040 1047
f 1061 1041 1040
f 1041 1061 1062
f 1062 1045 1041
f 1063 1059 1045
f 1045 1062 1063
f 1059 1063 1064
f 1064 1058 1059
f 1065 1057 1058
f 1058 1064 1065
f 1066 1056 1057
f 1057 1065 1066
f 1067 1055 1056
f 1056 1066 1067
f 1068 1054 1055
f 1055 1067 1068
f 1068 1044 1054
f 1044 1068 1069
f 1069 1068 1070
f 1071 1070 1068
f 1068 1067 1071
f 1072 1071 1067
f 1067 1066 1072
f 1066 1073 1072
f 1073 1066 1065
f 1065 1074 1073
f 1074 1065 1064
f 1064 1075 1074
f 1075 1064 1063
f 1063 1076 1075
f 1076 1063 1062
f 1062 1077 1076
f 1077 1062 1061
f 1078 1061 1060
f 1061 1078 1077
f 1060 1079 1078
f 1079 1060 1080
f 1047 1080 1060
f 1081 1078 1079
f 1078 1081 1082
f 1082 1077 1078
f 1082 1076 1077
f 1083 1075 1076
f 1076 1082 1083
f 1084 1074 1075
f 1075 1083 1084
f 1085 1073 1074
f 1074 1084 1085
f 1086 1072 1073
f 1073 1085 1086
f 1087 1071 1072
f 1072 1086 1087
f 1088 1070 1071
f 1071 1087 1088
f 1070 1089 1069
f 1090 1089 1070
f 1070 1088 1090
f 1091 1069 1089
f 1092 1069 1091
f 1069 1092 1044
f 1089 1093 1091
f 1094 1093 1089
f 1089 1090 1094
f 1090 1088 1095
f 1095 1096 1090
f 1094 1090 1096
f 1088 1087 1097
f 1097 1095 1088
f 1087 1086 1098
f 1098 1097 1087
f 1098 1086 1099
f 1086 1085 1099
f 1100 1099 1085
f 1084 1100 1085
f 1100 1084 1101
f 1084 1083 1102
f 1102 1101 1084
f 1103 1102 1083
f 1083 1082 1103
f 1082 1081 1104
f 1104 1103 1082
f 1105 1104 1081
f 1081 1106 1105
f 1079 1106 1081
f 1105 1103 1104
f 1103 1105 1107
f 1107 1108 1103
f 1109 1103 1110
f 1103 1109 1102
f 1110 1103 1108
f 1101 1102 1109
f 1109 1111 1101
f 1101 1111 1100
f 1100 1112 1099
f 1112 1100 1111
f 1099 1112 1098
f 1097 1098 1112
f 1113 1097 1114
f 1112 1114 1097
f 1097 1113 1095
f 1096 1095 1113
f 1096 1115 1094
f 1115 1096 1113
f 1116 1094 1115
f 1093 1094 1116
f 1116 1117 1093
f 1093 1117 1118
f 1118 1091 1093
f 1115 158 1116
f 156 1116 158
f 1117 1116 156
f 158 1115 186
f 1113 186 1115
f 1119 185 1113
f 186 1113 185
f 1114 1119 1113
f 1120 1121 1114
f 1119 1114 1121
f 1114 1112 1120
f 1120 1112 1122
f 1111 1122 1112
f 1123 1122 1111
f 1109 1123 1111
f 1110 1124 1109
f 1123 1109 1124
f 1125 1110 1108
f 1125 1124 1110
f 1108 1107 1126
f 1108 1127 1125
f 1127 1108 1126
f 1128 1126 1107
f 1129 1107 1105
f 1107 1129 1128
f 1126 1130 1127
f 1131 1126 1128
f 1126 1131 1130
f 1132 1125 1127
f 1127 1133 1132
f 1133 1127 1130
f 1124 1125 1134
f 1135 1134 1125
f 1125 1132 1135
f 1124 1134 1136
f 1136 1123 1124
f 1137 1122 1123
f 1123 1136 1137
f 1138 1120 1122
f 1122 1139 1138
f 1122 1137 1139
f 1120 1138 1140
f 1140 1121 1120
f 1121 1140 188
f 188 1119 1121
f 185 1119 188
f 188 1140 245
f 274 245 1140
f 1140 1138 274
f 1141 274 1138
f 1138 1139 1141
f 1141 1139 1137
f 1137 1142 1141
f 1142 1137 1136
f 1136 1143 1142
f 1143 1136 1134
f 1134 1135 1143
f 332 1143 1135
f 1135 1144 332
f 1144 1135 1132
f 1145 1132 1133
f 1132 1145 1144
f 1130 1146 1133
f 1133 1147 1145
f 1147 1133 1146
f 1146 1130 1131
f 1128 1148 1131
f 1131 1149 1146
f 1149 1131 1148
f 1148 1128 1150
f 1128 1151 1150
f 1151 1128 1129
f 1148 1152 1149
f 1152 1148 1153
f 1150 1153 1148
f 1154 1146 1149
f 1149 1155 1154
f 1155 1149 1152
f 1146 1154 1147
f 1156 1145 1147
f 1147 1157 1156
f 1157 1147 1154
f 1158 1144 1145
f 1145 1156 1158
f 333 332 1144
f 1144 1158 333
f 1143 332 331
f 331 1142 1143
f 302 1141 1142
f 1142 331 302
f 273 274 1141
f 1141 302 273
f 333 1158 334
f 1159 334 1158
f 1158 1156 1159
f 1156 1157 392
f 392 1159 1156
f 1154 421 1157
f 391 392 1157
f 1157 421 391
f 421 1154 1155
f 1152 450 1155
f 1155 420 421
f 420 1155 450
f 1153 451 1152
f 450 1152 451
f 1150 479 1153
f 451 1153 479
f 480 1150 1151
f 479 1150 480
f 1129 1160 1151
f 508 1151 1160
f 1151 508 480
f 1105 1161 1129
f 1162 1129 1161
f 1160 1129 1162
f 1160 1162 1163
f 1163 1164 1160
f 1160 1165 508
f 1165 1160 1164
f 534 508 1165
f 1165 1166 534
f 1164 1166 1165
f 1164 1167 1168
f 1167 1164 1163
f 1168 1166 1164
f 1169 1163 1162
f 1170 1163 1169
f 1163 1170 1167
f 1161 1169 1162
f 1161 1105 1106
f 1106 1169 1161
f 1169 1171 1170
f 1171 1169 1106
f 1172 1170 1171
f 1173 1167 1170
f 1170 1172 1173
f 1167 1173 1174
f 1174 1168 1167
f 1175 1176 1168
f 1166 1168 1176
f 1168 1174 1175
f 1176 535 1166
f 1166 535 534
f 1176 1175 1177
f 1177 536 1176
f 535 1176 536
f 1051 1175 1174
f 1175 1051 1052
f 1052 1177 1175
f 1050 1174 1173
f 1174 1050 1051
f 1049 1173 1172
f 1173 1049 1050
f 1048 1172 1080
f 1171 1080 1172
f 1172 1048 1049
f 1080 1171 1079
f 1106 1079 1171
f 1080 1047 1048
f 536 1177 563
f 1053 563 1177
f 1177 1052 1053
f 563 1053 1046
f 1046 562 563
f 562 1046 661
f 661 564 562
f 564 661 660
f 660 565 564
f 565 660 594
f 361 1159 392
f 1159 361 360
f 360 334 1159
f 156 1178 1117
f 156 129 1178
f 1117 1178 1179
f 1178 129 1180
f 1180 1179 1178
f 1179 1118 1117
f 1181 1118 1179
f 1179 1182 1181
f 1182 1179 1180
f 127 1180 129
f 1180 1183 1182
f 1183 1180 127
f 4 1182 1183
f 1181 1182 4
f 1184 1181 4
f 1118 1181 1184
f 1184 1091 1118
f 1092 1184 4
f 1091 1184 1092
f 4 654 2
f 1185 654 4
f 1186 1185 4
f 80 1186 4
f 4 1183 126
f 1044 1092 4
f 127 126 1183
f 1185 1186 20
f 21 20 1186
f 1186 80 21
f 654 1185 1187
f 1188 1187 1185
f 20 1188 1185
f 1189 653 654
f 1187 1190 654
f 1190 1189 654
f 1190 1187 1191
f 1188 1191 1187
f 1191 1188 2
f 1188 20 2
f 1192 2 46
f 1192 1193 2
f 2 1193 1194
f 1194 1191 2
f 1191 1194 1190
f 1189 1190 1194
f 653 1189 1193
f 1194 1193 1189
f 77 653 1192
f 1193 1192 653
f 76 1192 46
f 1192 76 77
f 46 651 47
f 46 65 1195
f 46 1195 1196
f 46 1196 1197
f 46 1197 73
f 64 47 651
f 651 1198 64
f 651 1199 1198
f 650 1199 651
f 1043 1200 47
f 1200 1201 47
f 47 1201 1202
f 1202 52 47
f 1043 1042 58
f 1200 1043 58
f 58 61 1200
f 1201 1200 61
f 1202 1201 62
f 61 62 1201
f 52 1202 62
f 62 50 52
f 53 52 50
f 50 49 53
f 54 53 49
f 49 44 54
f 56 58 1042
f 1042 55 56
f 1198 1199 1195
f 1196 1195 1199
f 1197 1196 1199
f 1199 650 1197
f 1195 65 1198
f 64 1198 65
f 650 652 1197
f 73 1197 652
f 652 74 73
f 22 21 80
