# XLeRobot camera CAD in SO101 gripper_link metres
v -0.01374088746 0.05871846547 0.01355837909
v 0.02025457931 0.0581788919 0.01368654247
v -0.01089059165 0.05990215808 0.01299334744
v -0.006682682892 0.05818183556 0.01267960187
v -0.01209326138 0.08731079947 0.0001450493641
v -0.01319795385 0.08949753642 -0.0008760897031
v -0.01238650904 0.0600397166 0.01293403756
v -0.0125903973 0.06055147826 0.0126946361
v -0.01185088502 0.05971841241 0.01308238887
v -0.01181793953 0.08687830188 0.0003468814005
v -0.01374422014 0.05829392801 0.01265297955
v -0.01247823461 0.06102950364 0.01247018628
v -0.01123152838 0.08660096585 0.0004748244623
v -0.0133140647 0.08267954945 0.001216847042
v -0.01096533362 0.05945848608 0.01209689132
v -0.01138327832 0.05928769862 0.01217851239
v -0.01062296161 0.06033008521 0.01279100808
v -0.0106384013 0.05985140743 0.0119114347
v 0.01811746605 0.08625883647 0.0005280700022
v 0.01760714974 0.05936635425 0.0131397124
v 0.01724351247 0.05972556044 0.01297219678
v 0.01715781363 0.06027574791 0.01271498715
v 0.01737104575 0.06070638126 0.01251188156
v -0.01179999147 0.05929115164 0.01217846649
v -0.01230675462 0.05952651887 0.01207012817
v -0.01256957181 0.05998184845 0.01185722513
v -0.01256931145 0.06038611875 0.01166758395
v -0.01239060512 0.06073099525 0.01150534529
v -0.01218791767 0.06135741579 0.01231538617
v -0.01059237586 0.06036794001 0.01166902586
v -0.01056034149 0.06077906322 0.01258151593
v -0.01088228917 0.0612789579 0.01234716555
v -0.0109096545 0.06089287412 0.01142413632
v -0.006252527203 0.08256747212 0.00124346895
v -0.01158491158 0.0611002714 0.01132927122
v -0.0112224338 0.061455129 0.0122658732
v -0.01166437235 0.06153105852 0.01223171658
v -0.01209067255 0.06098503306 0.01138512529
v -0.01320128704 0.08907299742 -0.001781489554
v -0.01128100321 0.08620051781 -0.0004414842693
v -0.01206000036 0.0867970445 -0.000718413161
v -0.0117627495 0.08641489397 -0.0005403089285
v -0.01210532837 0.08728727894 -0.0009481283349
v -0.01207745367 0.08781388149 -9.077171631e-05
v 0.01803616249 0.08780482271 -0.0001970405987
v 0.0207975132 0.08895796212 -0.0007479270095
v -0.00613974982 0.0889609201 -0.001754867135
v 0.01771453239 0.08743942511 -2.465842421e-05
v -0.0117860304 0.08823197958 -0.0002878179166
v -0.01123426749 0.08844800117 -0.0003912042728
v 0.0176165428 0.08703113794 0.0001673677764
v -0.011151649 0.08803673099 -0.001303018706
v -0.01164402753 0.08789988574 -0.001236844116
v -0.01192648125 0.08764476579 -0.001116498429
v -0.01075786874 0.08626087698 -0.0004717467045
v -0.0105900124 0.0867400026 0.0004073503655
v 0.01777475938 0.08659320775 0.0003719630902
v -0.01016852245 0.0871479472 0.000214715283
v 0.01766459723 0.08635730663 -0.000621364241
v 0.01766091353 0.08693286678 -0.0008910842716
v -0.01013904998 0.08786509867 -0.0001211475237
v -0.01063122827 0.08837059849 -0.0003564335374
v 0.01792847017 0.0873038049 -0.001066253132
v 0.01832691526 0.08751667757 -0.00116744648
v 0.01849019102 0.08797086082 -0.0002765679325
v 0.01791239593 0.08601215366 -0.0004604743655
v 0.01899345713 0.08619031903 0.0005582904835
v 0.01837784109 0.08575209924 -0.0003417562777
v 0.01828974559 0.06105687061 0.012344315
v 0.01770373615 0.06095966982 0.01239191143
v 0.02068140218 0.08213996115 0.001345009622
v 0.01896093567 0.08577266954 -0.000351474759
v 0.01946388998 0.08651938277 0.000400497228
v 0.01935642873 0.08600838791 -0.0004639729704
v 0.01808538933 0.06063489853 0.01143827795
v 0.01885688185 0.0608151143 0.01245544191
v 0.01882373628 0.06042771128 0.01153313799
v 0.01759803157 0.06047041703 0.01151743863
v 0.01728129345 0.0601878864 0.01165097174
v 0.01714436968 0.0596919289 0.01188399828
v 0.0005716926036 0.06868905264 0.0077260672
v 0.001462252961 0.06829649636 0.007906776601
v 0.0009100425244 0.06426641387 -0.001246033674
v 0.001450340275 0.06406104295 -0.001151718961
v 0.001842021392 0.06819712253 0.007951760905
v 0.0002162169664 0.06888454838 0.007635426724
v 0.0004204677512 0.06450463575 -0.001355991067
v 0.001206257645 0.06566017096 -0.001900927668
v 0.001595077859 0.06547481887 -0.001815440332
v 0.00200151664 0.06532443764 -0.001746416073
v 0.002028900022 0.06390027914 -0.001078460143
v 0.002521764005 0.06805634204 0.008015315607
v 0.002431126232 0.06520876188 -0.001693746981
v 0.002625629102 0.06379186192 -0.001029866088
v 0.001757828725 0.06371823351 -0.005394738002
v 0.002172772179 0.06357352482 -0.005339785499
v 0.001257399491 0.06392686994 -0.005501174344
v 0.0008324679719 0.06588353191 -0.002004292833
v -7.46037659e-05 0.06480284281 -0.001494000731
v -0.0002482229788 0.06919285319 0.007492587386
v 0.0004840880601 0.06614006568 -0.002123290322
v -0.0005545514227 0.06516025133 -0.001659824541
v 0.0007874084048 0.06420849655 -0.005631241329
v 0.0009991074374 0.06415588895 -0.006106185507
v 0.001423671193 0.0639124167 -0.005980568922
v 0.001877600473 0.06370053896 -0.006209687551
v 0.002240551932 0.06359879984 -0.005828296413
v 0.002837771544 0.06343994642 -0.005268869614
v 0.002871735282 0.06513223185 -0.001659483856
v 0.003287216783 0.06373702733 -0.001006435716
v 0.003274162469 0.06798182441 0.008047438458
v 0.00380947157 0.06798397684 0.008044511325
v 0.003462292029 0.06508960305 -0.001641717506
v 0.003848285316 0.06374348854 -0.001011595346
v 0.003517066542 0.06339660331 -0.005260202029
v 0.003306792267 0.06343229597 -0.005758556785
v 0.002682396953 0.0634797638 -0.00610820429
v 0.002292836424 0.06352027728 -0.006429533077
v 0.001322807923 0.0639123448 -0.006629565326
v 0.001750409576 0.06359537314 -0.006910558592
v 0.0008098077061 0.06429360967 -0.006463980292
v 0.0004521587181 0.06447073696 -0.005740006996
v 0.0001013703595 0.06648658989 -0.002284406548
v -0.0009896990474 0.06555987313 -0.001845600238
v -0.0006845502419 0.06954596649 0.007328608448
v -0.001081914122 0.06993685524 0.007146777507
v -0.001364642806 0.06598191802 -0.002042127072
v -0.0001555025683 0.06507204643 -0.006035607954
v -0.0002608668085 0.06692234781 -0.00248737383
v 0.0001346343933 0.064748734 -0.005883791253
v 0.0002896685734 0.06472481167 -0.006336356828
v 0.0005630725065 0.06447276002 -0.006871625658
v 0.0007351899265 0.06421787923 -0.007212299707
v 0.001155270127 0.06388407924 -0.007129537723
v 0.001414070446 0.06351615907 -0.00752315315
v 0.001820981715 0.06332080783 -0.007433050742
v 0.002238274268 0.0633893674 -0.006901764557
v 0.002831793464 0.06330270526 -0.006721945358
v 0.003026679305 0.06338216372 -0.006379638038
v 0.003425897773 0.06335759454 -0.006357857553
v 0.003425590506 0.06321680904 -0.006807989889
v 0.003091363616 0.06301472853 -0.007294198162
v 0.003560037445 0.06299677246 -0.00728751337
v 0.00269610161 0.06306832237 -0.007317900469
v 0.002300162164 0.06315882545 -0.007358890608
v 0.0004009676691 0.0619561879 -0.006788058502
v 0.0009286836148 0.06170220958 -0.006670925423
v 0.00148241448 0.06149672252 -0.006576572707
v 0.001078659135 0.0637203337 -0.007617660862
v -9.747543479e-05 0.06225707995 -0.006927319309
v 0.0003251572131 0.06463758541 -0.007372543938
v 0.0007713344824 0.06395083002 -0.007724618953
v 0.000417618195 0.06428229242 -0.007878770647
v 9.916332703e-05 0.06499200084 -0.006808358333
v -0.000185319416 0.06525328171 -0.006435848367
v -0.0004522184384 0.06548869781 -0.006221098276
v -0.0001711349106 0.06536868701 -0.006944434544
v -0.0003844272442 0.06567645849 -0.006820928016
v 3.498582915e-05 0.06504347602 -0.007467647653
v 0.000115357183 0.06465259372 -0.008051280731
v -0.001349202049 0.06339042539 -0.007454147743
v -0.0009726926424 0.06297550199 -0.007260982844
v -0.0005593723545 0.06260057261 -0.007086687539
v -0.0001275715011 0.06056943916 -0.01055366337
v 0.0003687263162 0.06026756414 -0.01041393379
v 0.0008955112205 0.0600118656 -0.01029597063
v 0.001438740094 0.05980791317 -0.01020232914
v 0.001989031377 0.05965603457 -0.01013311976
v 0.002040637148 0.06134500845 -0.006507468374
v 0.002482886539 0.06126418232 -0.006471133179
v 0.002571688348 0.05954943638 -0.01008525986
v 0.002110607716 0.06009515633 -0.01033952439
v 0.002611660916 0.06000147155 -0.01029743903
v 0.001586446148 0.06024131354 -0.01040613726
v 0.001080157631 0.06043428694 -0.01049476345
v 0.0005982873163 0.06067155676 -0.01060424703
v 0.0001448098126 0.06095101333 -0.01073361811
v -0.0005885122169 0.06091459859 -0.01071381815
v -0.001004342074 0.06129471084 -0.01089052729
v -0.001391540739 0.06172703412 -0.0110918254
v -0.001684301745 0.06384715621 -0.00766709046
v -0.0001368970082 0.06505558502 -0.008239304773
v -0.00023537996 0.06546248988 -0.007865456753
v -0.0002787888093 0.06563031027 -0.007430124136
v -0.0004113642185 0.06599092415 -0.007878616669
v -0.0004491460092 0.06595933843 -0.007241825911
v -0.0003088114761 0.065438568 -0.008418258958
v -0.0004711170802 0.06598042667 -0.008671429736
v -0.00218604239 0.0648156233 -0.008119363139
v -0.001959573757 0.06431622554 -0.007886044748
v -0.001725400539 0.06219027252 -0.01130781524
v -0.001103299934 0.06214257855 -0.01128775886
v -0.000722902973 0.06168828926 -0.01107613334
v -0.0002671675619 0.06126287213 -0.01087834011
v 0.0002091754881 0.06136799481 -0.009794952846
v 0.0006615806811 0.06109503733 -0.009668929005
v 0.001145186322 0.06086282007 -0.009561748169
v 0.001845687652 0.06061626316 -0.009442321942
v 0.002531801559 0.06045274074 -0.009377633519
v 0.003378588101 0.05993797485 -0.01027053388
v 0.001177668985 0.0612700433 -0.0100226028
v 0.002458586389 0.06083486363 -0.009805569626
v 0.003012275947 0.0608054599 -0.009832572619
v 0.001953786047 0.06125766521 -0.01024887888
v 0.002367536051 0.06114386149 -0.01019580866
v 0.001643042202 0.06108117819 -0.009938079069
v 0.0007496574185 0.0614969169 -0.01012747637
v 0.0003490595845 0.06176086923 -0.01024978289
v -1.879725715e-05 0.06204921023 -0.01037817416
v -0.0002910490011 0.06173170188 -0.009967441552
v -0.0006572309909 0.06206935637 -0.01012457955
v -0.0009990603569 0.0624574245 -0.0103052465
v -0.001387166087 0.06256822268 -0.01148629879
v -0.001995825299 0.06266189142 -0.01152796481
v -0.002212961895 0.06315107106 -0.01175654313
v -0.002356128276 0.06532996492 -0.008359918386
v -0.002379652868 0.06366812017 -0.01199836752
v -0.002469956266 0.06586149509 -0.00860872534
v -0.001801029725 0.06346933342 -0.01190732577
v -0.001618678834 0.06301208157 -0.01169357734
v -0.001296294575 0.06287405343 -0.0104995024
v -0.0009394626027 0.06317480564 -0.01090341155
v -0.0006875214487 0.06278729495 -0.01072255014
v -0.0003901965006 0.0624189001 -0.01055032538
v 5.669521637e-05 0.06238992569 -0.01076677841
v 0.000380995864 0.0620955749 -0.01063003017
v 0.0007468446529 0.06183087117 -0.01051073748
v 0.001117426975 0.0616085031 -0.01040815746
v 0.001509928609 0.06141860259 -0.01032039974
v 0.002465558758 0.06139027224 -0.01050725372
v 0.002064980285 0.06149854215 -0.01055667818
v 0.001675624475 0.06164259371 -0.01062253202
v 0.001306537987 0.06182089561 -0.01070514451
v 0.0009620372658 0.06203336634 -0.01080623356
v 0.0006379380395 0.06227015889 -0.01091405705
v 0.0003419714947 0.06253811316 -0.01103855248
v -0.0002324448658 0.06271205213 -0.01091724739
v -0.000484694889 0.06305733583 -0.01107821435
v -0.0006980859052 0.06342415223 -0.01124946172
v -0.001147332276 0.06358240495 -0.0110937547
v -0.001520373839 0.06326282571 -0.01067997358
v -0.001721452452 0.06370422567 -0.01088572687
v -0.001935618803 0.06395124905 -0.01213280639
v -0.002489418381 0.06419988506 -0.01224731441
v -0.002524894108 0.06640123468 -0.008861607948
v -0.002016488999 0.06444246392 -0.01236284179
v -0.002540313372 0.06474083543 -0.01250078406
v -0.001878167045 0.06417878955 -0.01110765547
v -0.001423899429 0.06444331447 -0.01149642618
v -0.001309195006 0.06400612876 -0.01129184513
v -0.000869927319 0.06380761146 -0.01142858125
v -0.0003525885375 0.06348522241 -0.01148009223
v -0.0001559395558 0.06314860174 -0.01132295779
v 7.617276216e-05 0.06283203298 -0.01117533779
v 0.0006128723775 0.06295445285 -0.01150231912
v 0.001118421594 0.06248405326 -0.01128475309
v 0.001508585736 0.06205462302 -0.01099921757
v 0.00191970051 0.06186380587 -0.01091317056
v 0.002359018417 0.06172270928 -0.01085112446
v 0.002632719367 0.06195504036 -0.01111997602
v 0.001769725461 0.0622626189 -0.01125708667
v 0.002174409435 0.06209721391 -0.01118567108
v 0.001224770995 0.06306816903 -0.01177619102
v 0.001666278295 0.06270511847 -0.01160692517
v 0.0008664395415 0.06350592267 -0.0119801866
v 0.0002236515189 0.06350592539 -0.01175965998
v -0.0005107459841 0.06383671678 -0.01164433347
v -0.0009986096665 0.06420447696 -0.01161421606
v -0.001083237432 0.06461217052 -0.01180512655
v -0.001489798213 0.06488789736 -0.01170468708
v -0.001982127039 0.06466643137 -0.01133592564
v -0.002042932307 0.06493774997 -0.01259498599
v -0.002531396781 0.06528298082 -0.01275502864
v -0.002520154689 0.06694266857 -0.009115507743
v -0.00203195756 0.06516056041 -0.01156744458
v -0.002014762187 0.06543427278 -0.01282791135
v -0.001506720569 0.06533491288 -0.01191411947
v -0.001122718042 0.06502401588 -0.01199802843
v -0.0007080188573 0.0645743635 -0.01198944908
v -0.0006296398295 0.06420075781 -0.0118145666
v -3.788053032e-05 0.06411622775 -0.01204482031
v 0.0006109070191 0.06399870088 -0.0122102811
v 0.001048022396 0.06396438854 -0.01231707197
v 0.001292131162 0.06354947894 -0.0121234044
v 0.001622439832 0.06318615754 -0.01195421677
v 0.002024123097 0.06289183585 -0.01181808803
v 0.00210095779 0.06246399916 -0.01149495274
v 0.002608028807 0.06229006247 -0.01141926209
v 0.002418475705 0.06269438365 -0.01172534014
v 0.002169004752 0.06321509173 -0.01206759826
v 0.002595635132 0.06299870828 -0.01196917307
v 0.001841022701 0.06348779821 -0.01219553399
v 0.001584168442 0.06380265837 -0.01234263188
v 0.0008992242627 0.06441470695 -0.01252763614
v 0.001391570436 0.06415691855 -0.01250642118
v 0.0004681129516 0.0645273958 -0.01245763908
v -0.0001607890155 0.06476127125 -0.01234677791
v -0.0007448235122 0.06495196687 -0.01216638426
v -0.001116569888 0.06543819285 -0.01219226607
v -0.001474003647 0.06578261099 -0.01212429375
v -0.002027114459 0.06565760301 -0.01180050582
v -0.002463031965 0.06582089733 -0.01300751129
v -0.001932205042 0.0659247331 -0.01305819547
v -0.001392265117 0.06622540567 -0.01233222554
v -0.001968063 0.06614966939 -0.01203148788
v -0.001064704925 0.06585001358 -0.01238562641
v -0.000739885657 0.06533272264 -0.01234494795
v 0.0004439675655 0.06507142153 -0.0127127064
v -0.0001380516187 0.06539450107 -0.01264512496
v 0.000852024124 0.0648824146 -0.01274677234
v 0.0012913788 0.06454530846 -0.01268939701
v 0.001697520932 0.06455667024 -0.01277214914
v 0.001864092847 0.0641030396 -0.01256225159
v 0.002155226024 0.06369870297 -0.01237206149
v 0.00256415894 0.06339843844 -0.01223196041
v 0.002488494916 0.0639074632 -0.01252601527
v 0.002194717234 0.06432907008 -0.01272320284
v 0.001274904467 0.06493625894 -0.01287303638
v 0.001699502934 0.06504289616 -0.01299997352
v 0.002104430699 0.06481468758 -0.01295051384
v 0.0009082890824 0.06534966277 -0.01296610231
v 0.0005392342528 0.06560943345 -0.01296529079
v 0.000155618563 0.06577135184 -0.01289796873
v -0.000152955262 0.0660950009 -0.0128967761
v -0.0006930816621 0.06571019411 -0.01252215921
v -0.0006050113326 0.06608148374 -0.01269660018
v -0.0009684431264 0.06625359205 -0.012575141
v -0.001262068928 0.06665856506 -0.01253585564
v -0.001854430577 0.06663638656 -0.01226010894
v -0.001795994102 0.0664057499 -0.01328424637
v -0.002335544257 0.06635067062 -0.01325639415
v -0.002150837208 0.0668651558 -0.01349831588
v -0.001607397882 0.06687233664 -0.01350372616
v -0.001688521968 0.06710843286 -0.01248206594
v -0.001085113538 0.06707727363 -0.0127328467
v -0.0008274223599 0.06664783434 -0.01276063691
v -0.0004769440682 0.06644246973 -0.01286626302
v 0.0003497508869 0.06623196683 -0.01312047163
v 0.0001373449032 0.06675550902 -0.0131940044
v -0.0003093759029 0.06679055242 -0.01303012536
v 0.001065380253 0.06579711408 -0.0131764647
v 0.0007503655062 0.06611898291 -0.01320499439
v 0.001335785609 0.06532688071 -0.01305483864
v 0.002219025891 0.06526850097 -0.0131639087
v 0.001856736162 0.06549105121 -0.01321140375
v 0.002522971522 0.06472138064 -0.01294164539
v 0.00216624392 0.06588310371 -0.01339803872
v 0.002539325354 0.06567853252 -0.01335660753
v 0.002722901898 0.06528385294 -0.0132059785
v 0.001494754225 0.06569825613 -0.01323076465
v 0.001724279472 0.06602900686 -0.01338710019
v 0.001317639697 0.06620760553 -0.01336988105
v 0.001068777228 0.06658001783 -0.0134223904
v 0.0006894728457 0.06676408452 -0.01337124964
v 0.0005811180076 0.06731652915 -0.01345865558
v -0.0001044385505 0.06712146741 -0.01318606696
v 0.0001357185618 0.06743237643 -0.01333268268
v -0.0004203469019 0.06738720784 -0.013108729
v -0.0006442703583 0.06702673919 -0.01293891994
v -0.0008636876155 0.06747694369 -0.01292099907
v -0.0005987212478 0.06785553361 -0.01309946648
v -0.0001576520284 0.06772568699 -0.01326845844
v 0.0001410303755 0.0680389092 -0.01341639625
v 0.0004093932564 0.0677201663 -0.01346868588
v 0.001138459776 0.06722430974 -0.01358866057
v 0.001137336218 0.06778606552 -0.01368064699
v 0.0007126248418 0.06798138279 -0.01359226005
v 0.001654827831 0.06656439164 -0.01353844995
v 0.001482037126 0.06697503303 -0.01360913512
v 0.002017627394 0.06632100808 -0.01352347222
v 0.00257069015 0.06618926646 -0.01354087156
v 0.003008086446 0.06592676722 -0.01347526167
v 0.003169620972 0.0655685406 -0.01334096111
v 0.003094941241 0.06511607792 -0.01313945742
v 0.003523080264 0.0659975977 -0.01351010771
v 0.003547893487 0.0652186495 -0.01318895964
v 0.00373711128 0.06556038861 -0.01333944255
v 0.003071585002 0.06636445242 -0.01362471736
v 0.002380587094 0.06654626218 -0.01363165085
v 0.002776381939 0.06670216274 -0.01370660006
v 0.002063279903 0.06685368824 -0.01367555553
v 0.001973416281 0.06728784059 -0.01375760888
v 0.001680018723 0.06759492962 -0.01376446736
v 0.001768703629 0.06814261745 -0.0138485348
v 0.001043730576 0.06821431853 -0.01370270075
v 0.001398867749 0.06841614784 -0.01379865282
v 0.0008334679112 0.06857635426 -0.01367096899
v 0.0004721493973 0.06832314978 -0.01355087309
v 4.895592825e-05 0.06853137615 -0.01341871596
v -0.0002934334214 0.06820806608 -0.01326592866
v -0.0008920279621 0.06840450712 -0.01309272814
v -0.001205148295 0.06799681237 -0.01290041725
v 0.0004257742465 0.06882233066 -0.01355656679
v -0.0005357116657 0.06878168896 -0.01327089819
v 0.0008328017509 0.06907779401 -0.01367786991
v 0.001220738546 0.06879571166 -0.01377521996
v 0.001774454267 0.06858495208 -0.01387918406
v 0.001630783273 0.06897912805 -0.01386277141
v 0.002292276905 0.06786100826 -0.01389148432
v 0.002464311803 0.06838106438 -0.01396206744
v 0.002166713978 0.06871899114 -0.0139434752
v 0.00252380041 0.06750631746 -0.01386204924
v 0.002526934717 0.06706362602 -0.01377570496
v 0.003027620567 0.06718617659 -0.01383502983
v 0.003200127103 0.06679336072 -0.01374934408
v 0.003590651717 0.06639483728 -0.01364155322
v 0.003545485994 0.06721661825 -0.01385117478
v 0.003640631584 0.06679420032 -0.01375254001
v 0.003111220853 0.06762156092 -0.01391825649
v 0.002949325257 0.06801204015 -0.013964566
v 0.002571886607 0.06881699019 -0.01399091534
v 0.003029430219 0.06845498049 -0.01400610087
v 0.002985628457 0.06887794011 -0.01402100897
v 0.002058548192 0.06912458733 -0.01393252045
v 0.002500127052 0.06923066976 -0.01398388118
v 0.001720131763 0.06947236659 -0.01386611719
v 0.001265773219 0.06929519152 -0.01378141323
v 0.0002911322583 0.06942962909 -0.01357776491
v -0.0001400336582 0.06912446551 -0.01343308765
v 3.527663285e-05 0.0688268535 -0.01442623961
v -0.0003765979921 0.06849938338 -0.01427117619
v 0.0004810598095 0.06911542739 -0.0145631934
v 0.0007540229675 0.06969454778 -0.0137036764
v 0.0009562658891 0.06936227774 -0.01468068849
v 0.002191830844 0.06960767716 -0.01393128785
v 0.001243868338 0.06991639001 -0.01380950085
v 0.002676632162 0.06969978301 -0.01397628485
v 0.002951399388 0.06929641144 -0.01401636989
v 0.003407678433 0.06932120763 -0.01402964578
v 0.003404256303 0.06890128644 -0.01403349414
v 0.003627823533 0.06843766653 -0.01401663591
v 0.003612769065 0.06804904836 -0.01398186002
v 0.003712621786 0.06762912551 -0.01392401147
v 0.004059918373 0.06715338205 -0.01382342307
v 0.004064809082 0.06672103895 -0.01372018696
v 0.004303696167 0.06752867252 -0.01387908015
v 0.004550166065 0.06699915321 -0.01375293434
v 0.004326692239 0.06817795677 -0.01396521017
v 0.003823598055 0.06888675186 -0.01402822078
v 0.004239138549 0.0688345084 -0.01400525271
v 0.003864620313 0.06930469269 -0.01402357222
v 0.00316430887 0.06974581963 -0.01400053808
v 0.003660356361 0.06975329226 -0.01400387298
v 0.001755560114 0.07009290762 -0.01389415374
v 0.002274821312 0.07022066975 -0.01395637827
v 0.001975309219 0.06972142671 -0.01485282615
v 0.001456532379 0.06956510809 -0.01477763179
v 0.0005347644794 0.06967328319 -0.01482492855
v 0.001071157614 0.06991249341 -0.0149390638
v 2.701241919e-05 0.06938665917 -0.01468866385
v 0.0005136242415 0.07135340101 -0.01119487858
v 0.001048417396 0.07159588628 -0.01131054624
v 0.001607278631 0.07178888027 -0.01140309036
v 0.001632379665 0.07010241182 -0.01503019163
v 0.002510127048 0.06983053191 -0.01490595223
v 0.002212656439 0.07024083413 -0.01509723019
v 0.002787492276 0.07030033843 -0.01399730682
v 0.003046081034 0.06989148634 -0.0149364972
v 0.003954707954 0.0703129131 -0.01400323033
v 0.004157162126 0.06970972951 -0.01398639942
v 0.004317531886 0.06924697046 -0.01399820606
v 0.004761878264 0.06914879143 -0.01395380356
v 0.004647068766 0.06874502629 -0.01396480062
v 0.005042758161 0.06861941193 -0.0139073411
v 0.00499343832 0.06796909712 -0.01386836873
v 0.005193133961 0.06901114357 -0.01389083546
v 0.004643748217 0.06962414771 -0.01394803097
v 0.005118435105 0.06949509687 -0.01388927275
v 0.003526937843 0.0699035311 -0.01494391786
v 0.004105554151 0.06986977871 -0.01493017073
v 0.0046889399 0.06977586067 -0.0148883183
v 0.004448657395 0.07025468614 -0.01398009551
v 0.002804150353 0.07032595399 -0.01513931589
v 0.003401455122 0.07035724383 -0.01515618986
v 0.002774695936 0.07201930991 -0.01151542946
v 0.002184584269 0.07193048038 -0.01147160946
v 0.002262889642 0.07007607124 -0.01060226217
v 0.00264959013 0.07016780263 -0.01064670412
v 0.001891432753 0.06995165309 -0.01054256444
v 0.001972770402 0.07027663988 -0.00995664136
v 0.00245045632 0.07026672846 -0.01032154895
v 0.002832168689 0.07042388596 -0.01018655233
v 0.003044822697 0.07022386049 -0.01067444251
v 0.00344091013 0.07024359274 -0.01068514114
v 0.003371776616 0.07205447909 -0.0115341156
v 0.003969926802 0.07203564697 -0.01152747937
v 0.004000178282 0.07033446425 -0.01514769945
v 0.004591898355 0.07025804889 -0.01511403934
v 0.00517302416 0.07012856266 -0.01505545829
v 0.005217512551 0.06963980219 -0.01482645652
v 0.004997152151 0.07013608707 -0.01392628776
v 0.005576689251 0.06932389325 -0.01381068486
v 0.005607247618 0.06883525187 -0.01380989383
v 0.005514324024 0.06997357311 -0.01385201048
v 0.006013636217 0.06911239235 -0.01371311852
v 0.005727739966 0.0694570711 -0.0147426471
v 0.005737458537 0.0699472464 -0.01497251008
v 0.005145077455 0.0718372716 -0.01143878121
v 0.005710269114 0.07165983646 -0.01135765175
v 0.004562857242 0.071963006 -0.01149559576
v 0.003840326682 0.07022802089 -0.01067931384
v 0.004234041899 0.07017623124 -0.01065646865
v 0.003610837239 0.07046067062 -0.01022287184
v 0.003220043429 0.07042601164 -0.01028142749
v 0.002366764246 0.07042897813 -0.009973637574
v 0.002653125402 0.07064930607 -0.009778616486
v 0.003112362399 0.07061377165 -0.009948004155
v 0.002050331134 0.07071620662 -0.009462252595
v 0.002594974057 0.07105885828 -0.009333158864
v 0.003150823252 0.07093120703 -0.009563665892
v 0.00353528846 0.07072310729 -0.009815096408
v 0.004016423609 0.07039988953 -0.01026907472
v 0.003922352576 0.07060226364 -0.00994983493
v 0.004400774435 0.07036313559 -0.01018002086
v 0.004622642198 0.07008923452 -0.01061710931
v 0.004997127766 0.06996793491 -0.01056159481
v 0.005359056599 0.06981299854 -0.01049028404
v 0.006253549476 0.07143225507 -0.01125293365
v 0.006279199469 0.06971596269 -0.01486604913
v 0.006215488054 0.06922923968 -0.01463760892
v 0.006012679313 0.06976454672 -0.01375581374
v 0.006792659864 0.06943714422 -0.01473719714
v 0.006675625935 0.06895872605 -0.01451245652
v 0.006769372155 0.07115674537 -0.01112564173
v 0.005699833303 0.06962688879 -0.01040426068
v 0.00515390809 0.07012622319 -0.01007089579
v 0.005610197295 0.0698900796 -0.009997453295
v 0.004791772097 0.07022999314 -0.01019242076
v 0.004339729378 0.07063818647 -0.009778217119
v 0.004708817277 0.07044879948 -0.009880641173
v 0.003979105163 0.07091392786 -0.009558618271
v 0.00351770188 0.07103617247 -0.009474721673
v 0.002969961299 0.07152166367 -0.009055620321
v 0.002171584957 0.07101436313 -0.009242468299
v 0.002467326685 0.07144375622 -0.009036077414
v 0.002771338214 0.07319237347 -0.005438563069
v 0.003217679918 0.07323687268 -0.005461062024
v 0.003436707803 0.0715481867 -0.009070202571
v 0.004350040693 0.07095202666 -0.009438462585
v 0.003824061057 0.07153353817 -0.009067852575
v 0.004787426686 0.07074850482 -0.009483881941
v 0.00511012613 0.07041054914 -0.009674329788
v 0.005448719629 0.07016144623 -0.009738484911
v 0.006020674087 0.06941023639 -0.01030385643
v 0.006070369664 0.06960655716 -0.009801784502
v 0.00590749643 0.06991446608 -0.009580421672
v 0.007252838859 0.07083584042 -0.01097694228
v 0.00727274508 0.06911367332 -0.01458727967
v 0.007103795566 0.06864815421 -0.01436839583
v 0.006484636359 0.06951224213 -0.01363924385
v 0.007697653177 0.07047383001 -0.01080882572
v 0.007715384762 0.06874825258 -0.01441755913
v 0.006316005445 0.06916537303 -0.01019012095
v 0.006234899885 0.06974667177 -0.009360407424
v 0.006394258052 0.06932467878 -0.009678525303
v 0.006004329858 0.0701640326 -0.009210013457
v 0.005545403119 0.0704396472 -0.0093431291
v 0.005147783375 0.07072038487 -0.009332697218
v 0.004558032057 0.07143109733 -0.009022927106
v 0.004113618786 0.07320408563 -0.005448979508
v 0.003666079986 0.07324058878 -0.005464453486
v 0.003488534087 0.07460255678 -0.006102178747
v 0.002882654921 0.07457522494 -0.006087137425
v 0.004087284545 0.07457490715 -0.006091412624
v 0.004678721504 0.07449354808 -0.006055435364
v 0.004554053334 0.0731272731 -0.005414578912
v 0.004984582776 0.07301129028 -0.005361776244
v 0.005134113529 0.07125832307 -0.008943065918
v 0.005832109824 0.07055292726 -0.00904343384
v 0.005618882224 0.07106387837 -0.008837230024
v 0.006507284791 0.06998555355 -0.008848417955
v 0.006238504505 0.07034610005 -0.008873290714
v 0.006529291335 0.06945100876 -0.009260196224
v 0.006756720466 0.06897075295 -0.00940522092
v 0.006582312794 0.06889570364 -0.01006465381
v 0.008101428594 0.07007270731 -0.01062221622
v 0.008115860762 0.0683445328 -0.01422972654
v 0.00749594635 0.06830043684 -0.01420678804
v 0.006816234236 0.06860488554 -0.009929138758
v 0.008458777208 0.06963758218 -0.01041950003
v 0.006941294311 0.0692509097 -0.00878657021
v 0.007144386086 0.06855330201 -0.008922731525
v 0.00701986773 0.06849453349 -0.009385243614
v 0.006794850511 0.06972136208 -0.008698188297
v 0.00651321102 0.0704778752 -0.008591680975
v 0.006835174614 0.07018349059 -0.008454896748
v 0.00617180546 0.070733925 -0.008710457802
v 0.005400022732 0.072856868 -0.005290889127
v 0.00618108543 0.07243319877 -0.005095082565
v 0.005797168709 0.07266562919 -0.005202676626
v 0.005258062634 0.07435940961 -0.005994663815
v 0.005819599021 0.07417388546 -0.005909729639
v 0.005892056805 0.07840584346 0.003150068562
v 0.005339785842 0.07859284553 0.00306441663
v 0.006420273756 0.07817137148 0.003258080597
v 0.006358284995 0.07393864446 -0.005801406019
v 0.006868788615 0.0736559613 -0.005670728552
v 0.007345298634 0.07332907379 -0.005519197859
v 0.006526568616 0.07217454136 -0.004975063248
v 0.006834737986 0.07189292506 -0.004844166795
v 0.00712496609 0.07156992297 -0.004693746918
v 0.007112283392 0.06987222857 -0.00830998399
v 0.00708789089 0.06948558441 -0.008472748153
v 0.007300657402 0.06916113443 -0.008319656533
v 0.007158076654 0.06890423459 -0.008638754604
v 0.007366312021 0.06862482278 -0.008393410588
v 0.007416321493 0.06824246104 -0.008423705113
v 0.00730640535 0.06795273056 -0.008938727299
v 0.007189746863 0.0679555309 -0.009626036581
v 0.007018906066 0.06829274852 -0.00978352789
v 0.007488421812 0.06771894038 -0.008367867519
v 0.007321657789 0.06760276449 -0.009461102219
v 0.007415240518 0.06749615571 -0.008809556847
v 0.007669461764 0.06801939458 -0.007899933141
v 0.007572045284 0.06835288574 -0.00808189327
v 0.007611897304 0.06908063979 -0.007939457466
v 0.00737304615 0.06951164151 -0.008141836782
v 0.007365147587 0.07123925458 -0.004539604591
v 0.008179609537 0.07255509088 -0.005159340055
v 0.008529000014 0.07211575721 -0.004954615478
v 0.007783798478 0.07296077668 -0.005348113184
v 0.007814755994 0.07720960623 0.003703938464
v 0.007385928744 0.07757019712 0.003536424474
v 0.006919881664 0.07789176947 0.003387355296
v 0.00820248438 0.07681335943 0.003888319439
v 0.0085447098 0.07638665193 0.004087151786
v 0.008839210232 0.07593288741 0.004298845023
v 0.008828130269 0.07164780765 -0.004736291812
v 0.007577069921 0.0708746769 -0.004369430063
v 0.007746654841 0.07049027643 -0.004189777605
v 0.007840319561 0.0684834365 -0.007658904794
v 0.007659632549 0.06751173753 -0.007856396405
v 0.007934040513 0.06803993699 -0.007447706461
v 0.007506445963 0.0672937137 -0.008344835621
v 0.007410660824 0.06725248784 -0.009297179148
v 0.007463739284 0.06711187737 -0.008710294347
v 0.009027174161 0.06867053771 -0.009968128747
v 0.009231657179 0.06814041504 -0.009720292947
v 0.009374642585 0.06759814545 -0.009466533406
v 0.007461511221 0.06689100438 -0.009127867895
v 0.007487113986 0.06684705559 -0.008358644311
v 0.007627403783 0.06709972092 -0.007792990114
v 0.007974031814 0.06758006512 -0.00721930635
v 0.007990019641 0.06932064595 -0.003642243372
v 0.007949062965 0.06973087689 -0.003834472415
v 0.007866828393 0.07011958697 -0.004016422142
v 0.009073819213 0.07115682778 -0.004506975212
v 0.009265153562 0.07064489766 -0.004267596106
v 0.009081084176 0.07546165831 0.004518899803
v 0.01964149956 0.08679641695 -0.0008345229587
v 0.02079417961 0.0885334091 -0.001653325932
v 0.01958059807 0.08631876468 -0.0006104272533
v 0.01912108167 0.06001042309 0.01172748809
v 0.02025124591 0.05775433796 0.01278114398
v 0.00941321861 0.07446064602 0.004987067602
v 0.009272134801 0.07497361917 0.00474705179
v 0.0095120523 0.07383210047 0.00528125796
v 0.009518829296 0.07311360777 0.005618266337
v 0.009441707085 0.0724889875 0.005911480742
v 0.004769657949 0.07872999406 0.003002194433
v 0.004152816741 0.0788186955 0.002962914119
v 0.009397343836 0.07012829013 -0.004025832957
v 0.009470681678 0.06962741761 -0.003791332477
v 0.009493079241 0.06906870525 -0.003529412691
v 0.009450300936 0.06851408271 -0.003269199857
v 0.009305185289 0.07193880692 0.006169905984
v 0.009349383843 0.06797926335 -0.003018034738
v 0.007933434613 0.06849996299 -0.003257233742
v 0.007984023454 0.06890201777 -0.003445930832
v 0.007957087682 0.06712652875 -0.007012592849
v 0.007838636044 0.06810317454 -0.003070815409
v 0.007893095292 0.06670666433 -0.006814687172
v 0.00919013595 0.0674564679 -0.002772310223
v 0.009119295734 0.07143521562 0.006406727735
v 0.008974724665 0.06695199163 -0.002534968965
v 0.007700816168 0.06771728667 -0.002889362947
v 0.007787332261 0.06631399407 -0.006630049931
v 0.007521706183 0.06633299318 -0.007444881144
v 0.007600039377 0.0667183245 -0.007608047466
v 0.007464496407 0.06647642592 -0.008148572941
v 0.007361551472 0.06600362841 -0.00795631191
v 0.007410983542 0.06597391373 -0.007275887895
v 0.007639057817 0.06593246159 -0.006450577307
v 0.007521181493 0.06734562913 -0.002714431114
v 0.008879976347 0.07095048165 0.006634900594
v 0.008704106197 0.06646823421 -0.002307138179
v 0.00859060765 0.07049091399 0.006851463705
v 0.008381827809 0.06601174002 -0.002091900199
v 0.007300989405 0.06699122131 -0.002547438845
v 0.007449209113 0.06556544511 -0.006277762972
v 0.007261342893 0.06562548942 -0.007109903379
v 0.007201011318 0.06555048937 -0.007728384995
v 0.00737427819 0.06581558783 -0.008623275065
v 0.007269923296 0.06547711263 -0.008464184
v 0.007465127702 0.06639018727 -0.008892867878
v 0.009334941236 0.06544888386 -0.008458587512
v 0.009177577984 0.06492561098 -0.008212655078
v 0.007125603823 0.06514006886 -0.008305614041
v 0.008963942096 0.0644205203 -0.00797502828
v 0.007041439602 0.06525108867 -0.007393933627
v 0.006904668616 0.06495947442 -0.007661589275
v 0.006946776339 0.06482086795 -0.008155283467
v 0.007073954857 0.06529291006 -0.006953063826
v 0.007217641303 0.06521437279 -0.006112497454
v 0.007043436477 0.06665913016 -0.002390777281
v 0.008253193472 0.07005907656 0.007055187151
v 0.00801064469 0.06558649213 -0.001891139998
v 0.007870958952 0.06965895349 0.007244279919
v 0.007594378658 0.06519688366 -0.00170691653
v 0.006750408965 0.06635180469 -0.002245593103
v 0.006951680697 0.06489028694 -0.005959473615
v 0.006844143782 0.06497017158 -0.006810746534
v 0.006741889799 0.06480064806 -0.00734959494
v 0.006633649693 0.0643995926 -0.007955757694
v 0.008392263488 0.06350261143 -0.0075425397
v 0.008703994467 0.06395120052 -0.00775402417
v 0.009149583887 0.0631885628 -0.01181582727
v 0.008932577317 0.06268674077 -0.01157973454
v 0.009311000823 0.0637095399 -0.01206072225
v 0.009433525961 0.06598076162 -0.008708361562
v 0.009414381669 0.06424269463 -0.01231110081
v 0.008819298208 0.06379842226 -0.01210064966
v 0.008670157181 0.06332166854 -0.01187655885
v 0.008468696793 0.06285943322 -0.01165906442
v 0.008672927928 0.06222381627 -0.01136172639
v 0.008217991076 0.06241884839 -0.01145155595
v 0.008030621077 0.06307906745 -0.007342582839
v 0.008361752944 0.06178120805 -0.01115304832
v 0.006464584295 0.06448332001 -0.007237356664
v 0.006280086638 0.06403364411 -0.007783692772
v 0.006587001583 0.0646781703 -0.006672645102
v 0.006650326087 0.06459026972 -0.00581765354
v 0.006424599411 0.06607215355 -0.002113265312
v 0.007449439462 0.06929613989 0.007415897957
v 0.007137446512 0.06484700284 -0.001541180177
v 0.006990864339 0.06897185136 0.007569648116
v 0.006643810457 0.0645399392 -0.001395385275
v 0.006070044066 0.06582362422 -0.001995428504
v 0.006317914849 0.06431934667 -0.005689437897
v 0.006299004451 0.06441081963 -0.006546016272
v 0.006087577767 0.06414408427 -0.007083657848
v 0.005915109853 0.06374802817 -0.007648438451
v 0.007176768813 0.06234042764 -0.006993098906
v 0.007626265308 0.06269313239 -0.007160138956
v 0.00798426021 0.06134717012 -0.01094810861
v 0.007600226442 0.06163992178 -0.01108404674
v 0.007929810904 0.0620161239 -0.01126165606
v 0.008472415744 0.0633059275 -0.01073790025
v 0.008222475748 0.06286446309 -0.01052996502
v 0.008672173567 0.06376716154 -0.0109548953
v 0.007902373032 0.06323415759 -0.01096366336
v 0.007658450246 0.06284411398 -0.01077992363
v 0.007925384842 0.0624480093 -0.01033361022
v 0.007373082486 0.06247822055 -0.01060729003
v 0.007221945429 0.06128557905 -0.01091651224
v 0.007584170266 0.06206073606 -0.01015075869
v 0.007582071633 0.06096774738 -0.01076873918
v 0.006664239943 0.06201380646 -0.006838045511
v 0.007113848244 0.06060664473 -0.0105977127
v 0.00576417242 0.06386460062 -0.007129010335
v 0.005565270781 0.06353007504 -0.007544952883
v 0.005965346144 0.0641577552 -0.006427271412
v 0.005596229888 0.06386465319 -0.006751319057
v 0.005777537676 0.06397181141 -0.005529029364
v 0.00569067113 0.06560882225 -0.001893311083
v 0.005288928885 0.06542866979 -0.001807340507
v 0.005260189906 0.06372591525 -0.005423403975
v 0.005137509142 0.06372673873 -0.005796176758
v 0.005424418588 0.0638447003 -0.00625912497
v 0.005193415659 0.0636652526 -0.006671635407
v 0.005424567901 0.06367080683 -0.007040530695
v 0.005114529792 0.06331362172 -0.007441782153
v 0.006126187659 0.06174286305 -0.006709029599
v 0.006594305137 0.06028481781 -0.0104448572
v 0.006803887676 0.06096495936 -0.01076462908
v 0.00626693383 0.06063321616 -0.01060708607
v 0.007202101449 0.06170622001 -0.009983126478
v 0.006688836204 0.06183243227 -0.01030194868
v 0.007048691204 0.06213978963 -0.01044740889
v 0.007214471225 0.06277868355 -0.01097584659
v 0.006934105179 0.06245292155 -0.01082198329
v 0.006618058271 0.06215322033 -0.01068033872
v 0.006271375997 0.06188415791 -0.01055289507
v 0.006296541716 0.0615589426 -0.01017229606
v 0.006781751622 0.06138726981 -0.009832004517
v 0.006329903013 0.06110864473 -0.009699714637
v 0.005695775424 0.06036775055 -0.01048050338
v 0.006085655853 0.06003337638 -0.0103250849
v 0.005594540183 0.06153457228 -0.006609412594
v 0.00508343131 0.0634893697 -0.007032437052
v 0.004585860903 0.06338443281 -0.006801100025
v 0.004573024235 0.06313448121 -0.00735579846
v 0.004812461088 0.06359044271 -0.006287763748
v 0.0046458223 0.0635775154 -0.005723319291
v 0.004823815141 0.06357885409 -0.005356072225
v 0.004360090097 0.06347438735 -0.006262498245
v 0.003943653958 0.06326932999 -0.006755187543
v 0.004102527483 0.06304235573 -0.007310877924
v 0.005048117193 0.06137529131 -0.006532723777
v 0.004455199779 0.06125819062 -0.006475625508
v 0.005547258339 0.05982536034 -0.01022557774
v 0.005848679736 0.0608718003 -0.009586883723
v 0.00514693409 0.06017789335 -0.01038946731
v 0.005876463454 0.06132235001 -0.01005980203
v 0.005431539119 0.06112458717 -0.009965480153
v 0.005896134033 0.06164734938 -0.01044051346
v 0.0060441821 0.06208191901 -0.01084557308
v 0.006361702412 0.06232918576 -0.01096269557
v 0.006650707417 0.06260414525 -0.01109268009
v 0.006091469361 0.06251633583 -0.01123267017
v 0.006458032172 0.06290746586 -0.01142938317
v 0.0056461693 0.06216510692 -0.01105806014
v 0.005700741045 0.06186433775 -0.01074228008
v 0.005497402775 0.06144596279 -0.01034462087
v 0.005078072546 0.06128136192 -0.0102659017
v 0.0049680247 0.06096819135 -0.009890390433
v 0.00527965366 0.06066470573 -0.009487073785
v 0.004613031981 0.06004929589 -0.01032720075
v 0.00499655543 0.05966736447 -0.01014948782
v 0.00439570183 0.05955389145 -0.01009404525
v 0.003876359487 0.06119832005 -0.006445425323
v 0.003819748745 0.05949815267 -0.01006579678
v 0.003437025296 0.06118802123 -0.006438984019
v 0.004070908619 0.05997014165 -0.01028809268
v 0.004764323082 0.06052620137 -0.00942041478
v 0.004489259917 0.06085433745 -0.009835264015
v 0.004642667233 0.06115543392 -0.01020525944
v 0.005335198305 0.06167891396 -0.01065397667
v 0.004950841778 0.06152732931 -0.0105814878
v 0.004996303073 0.06183747346 -0.01090237189
v 0.005105854821 0.06224968415 -0.0112704857
v 0.005684797364 0.06260303801 -0.01143430444
v 0.006155431035 0.06304820898 -0.01164476944
v 0.006519176024 0.06356922062 -0.011890427
v 0.006908560569 0.06290455194 -0.01123447325
v 0.006847675701 0.0634754545 -0.01169922695
v 0.007131071772 0.06322534955 -0.01138569855
v 0.007317847552 0.063565985 -0.01154610398
v 0.006968484711 0.06413363194 -0.01207713473
v 0.00609642295 0.06357090682 -0.01202983374
v 0.006335014071 0.06406961083 -0.01226457796
v 0.005753109353 0.06312467717 -0.01181934295
v 0.005318381022 0.0627486571 -0.01164144027
v 0.004512390348 0.06233816653 -0.01144451512
v 0.004461819799 0.06199625105 -0.0111454678
v 0.004923124651 0.06251691596 -0.01153150678
v 0.004551748175 0.06141116104 -0.0105255347
v 0.004449094506 0.06168338093 -0.01083607533
v 0.004185304085 0.06106900554 -0.01016404194
v 0.003984035691 0.06078440993 -0.009802599291
v 0.004230838314 0.06043317689 -0.00937482276
v 0.003727247167 0.06103173709 -0.01015024714
v 0.003484440936 0.06078369638 -0.009821384669
v 0.00412822198 0.06132995063 -0.01048635016
v 0.003989491662 0.06160734681 -0.01080460722
v 0.003850239569 0.06220044177 -0.01138372057
v 0.003822309284 0.06188934188 -0.01109791968
v 0.004691237845 0.06277068654 -0.01176921065
v 0.004232893377 0.06261037254 -0.01169448742
v 0.005165285305 0.06307344819 -0.0119143789
v 0.005521752928 0.06341493958 -0.01207584399
v 0.005796018502 0.06381310667 -0.01226353739
v 0.006459887077 0.0646021738 -0.01251478096
v 0.005977682063 0.06425277235 -0.01247036171
v 0.00537020108 0.06385849633 -0.01238271701
v 0.005542655789 0.06421675945 -0.01255093948
v 0.005128181691 0.06353166134 -0.01222699056
v 0.004790164811 0.06324481315 -0.01209204799
v 0.004355291092 0.06300325733 -0.01197584572
v 0.003905251333 0.06288454215 -0.01192108119
v 0.003850247023 0.06253870984 -0.01166274957
v 0.003358848518 0.06250861056 -0.01164525464
v 0.003232697363 0.06187117265 -0.01108253452
v 0.00319096907 0.06218886529 -0.01137378392
v 0.003314509388 0.0615805745 -0.01079292383
v 0.003698184462 0.06128928347 -0.01046620134
v 0.003270045692 0.06102844228 -0.01014666549
v 0.003286832323 0.06128549047 -0.01046175547
v 0.002734436582 0.06163766256 -0.01081229199
v 0.002876558089 0.06131839871 -0.01047492615
v 0.002858182011 0.06257096468 -0.01167270345
v 0.003067629296 0.06287561267 -0.0119139399
v 0.003500780519 0.06284582766 -0.01190212478
v 0.003937530357 0.06324483742 -0.01216661826
v 0.004515532372 0.06350013701 -0.01228883716
v 0.004921892475 0.06387399827 -0.01246368568
v 0.005156633334 0.06431100268 -0.01266965909
v 0.005638646461 0.06460645984 -0.01273281755
v 0.00605942264 0.06471664937 -0.01268819979
v 0.005634647644 0.0649999502 -0.01291891931
v 0.005223625659 0.06478291293 -0.01289334313
v 0.004655813315 0.06419955372 -0.01267149423
v 0.004805787079 0.06466489802 -0.01289022872
v 0.004369536185 0.06386479924 -0.01251322613
v 0.003960345484 0.06364901693 -0.01241249729
v 0.00346842524 0.06318537665 -0.01213604257
v 0.003523027079 0.06355120888 -0.01236433866
v 0.003055502244 0.06323018071 -0.0121560198
v 0.002946831731 0.06362822411 -0.01239652795
v 0.003248683949 0.06394142198 -0.01257952194
v 0.003896124145 0.06401578084 -0.01261579489
v 0.004204354538 0.06425420794 -0.01272825267
v 0.004395282509 0.06473843418 -0.01295671454
v 0.004743747918 0.06516131432 -0.01312244073
v 0.005155201991 0.06526237012 -0.0131162827
v 0.006038214844 0.06518586095 -0.01290811137
v 0.005554109591 0.06538440303 -0.01309850314
v 0.00646578318 0.06514689059 -0.01277019325
v 0.006352077431 0.06568228152 -0.01302084405
v 0.005914637665 0.06564256847 -0.01312178805
v 0.005391239969 0.06575569479 -0.01327081415
v 0.004933200723 0.06568917939 -0.01331490594
v 0.004482267048 0.06556761698 -0.01331235907
v 0.004187145822 0.06530314978 -0.01321987769
v 0.003987673818 0.06488228705 -0.01303306955
v 0.003814894078 0.06440082449 -0.01280656887
v 0.003243769829 0.06430408972 -0.01275926943
v 0.002760039536 0.06418197658 -0.01268913291
v 0.002956119085 0.06463541584 -0.01291337606
v 0.003457144685 0.06475290565 -0.01297033012
v 0.004058022696 0.06586759663 -0.01345137561
v 0.004569734065 0.0660473152 -0.01348163181
v 0.00514266472 0.06607919743 -0.01342318104
v 0.005693396216 0.06606795967 -0.01332049197
v 0.006123810256 0.06618620778 -0.01325627877
v 0.006889614506 0.06605459007 -0.01297899177
v 0.007057467029 0.0654344941 -0.01268764813
v 0.007084934865 0.06477971296 -0.01238056612
v 0.007667156097 0.06504066609 -0.012238899
v 0.007641270893 0.06466229373 -0.0120613998
v 0.007573933637 0.06428712991 -0.01188518812
v 0.007593521278 0.06579690546 -0.01259322244
v 0.007651223893 0.06542061541 -0.01241696937
v 0.007355995039 0.06652480536 -0.01293366277
v 0.007494886726 0.06616605485 -0.01276594884
v 0.006409968983 0.06651412206 -0.01327238341
v 0.006725662967 0.06673878197 -0.01323173617
v 0.005789808839 0.06663929682 -0.0134675242
v 0.005383757846 0.06644544497 -0.01349633966
v 0.004836809406 0.06635638576 -0.01355163424
v 0.004471525178 0.0665805439 -0.01365419219
v 0.004107969772 0.06627618224 -0.01358945511
v 0.004997347115 0.06676022863 -0.01364251421
v 0.005363512397 0.0670236464 -0.01364616796
v 0.006006604727 0.06701331294 -0.01350619379
v 0.00717848732 0.06686913492 -0.01309447286
v 0.006963626029 0.06719637901 -0.01324710135
v 0.00627338681 0.06730398406 -0.01349432923
v 0.007860692578 0.06633253198 -0.01264466977
v 0.007710054842 0.06672414602 -0.01282768627
v 0.007967351817 0.06593055534 -0.01245654713
v 0.008029441268 0.06552028109 -0.01226439933
v 0.008046085767 0.06510641809 -0.01207037532
v 0.008385139955 0.06584824631 -0.01219128927
v 0.008426511095 0.06540188733 -0.01198210801
v 0.008294666956 0.06629031011 -0.01239821272
v 0.00815621056 0.06672155566 -0.01259982153
v 0.007517114147 0.06709985455 -0.0130032009
v 0.007971276839 0.06713678253 -0.01279399439
v 0.007283822345 0.06745664351 -0.01316960863
v 0.006714213791 0.06750208558 -0.01338955082
v 0.005497132024 0.06744443284 -0.01370376996
v 0.005718327608 0.06776724581 -0.01370756902
v 0.006433257323 0.06778308171 -0.01352030716
v 0.004861559828 0.06732407977 -0.01378519805
v 0.005784069655 0.06826425651 -0.01374353781
v 0.006122023222 0.06803825975 -0.01363880645
v 0.006706886969 0.06809724168 -0.01346788618
v 0.007012987286 0.06778984375 -0.01332488417
v 0.007741334318 0.06753452219 -0.01297962822
v 0.007468995478 0.06790954304 -0.01315440295
v 0.00803138753 0.0681203396 -0.01299227202
v 0.008260999023 0.0677791137 -0.0128365175
v 0.008550517151 0.06723152276 -0.01257601638
v 0.008746577958 0.06672209007 -0.01234082606
v 0.008874336846 0.06621016001 -0.01210109733
v 0.008942061135 0.06572541861 -0.01187415213
v 0.008418674858 0.06495396077 -0.01177200023
v 0.008017251463 0.06469382569 -0.01187675659
v 0.00895591698 0.06522718175 -0.01164055185
v 0.008361477151 0.06450852197 -0.01156292279
v 0.008957432927 0.06478217423 -0.01256244439
v 0.008944738937 0.06527825198 -0.01279500909
v 0.008876967349 0.06577399182 -0.01302721929
v 0.008775983763 0.06618720857 -0.01322062158
v 0.008655375533 0.06654707026 -0.01338889947
v 0.008417378283 0.06707303956 -0.0136346778
v 0.007704395279 0.06851884972 -0.01317793167
v 0.008156629152 0.06750761506 -0.01383745994
v 0.007334849685 0.0688862184 -0.01334882457
v 0.007156462873 0.06825826165 -0.01331680512
v 0.006807624864 0.06857672847 -0.0134648912
v 0.006367862905 0.06837612305 -0.01359739787
v 0.006425192338 0.06886270291 -0.01359751909
v 0.00600006595 0.06862298457 -0.01371177377
v 0.00692679479 0.06921855584 -0.01350315727
v 0.00784802018 0.06791905855 -0.01402925578
v 0.008469773925 0.06790707371 -0.01402589696
v 0.00877370912 0.06744022543 -0.01380810405
v 0.009033071945 0.06693094346 -0.01357025297
v 0.00923239635 0.06640028671 -0.01332215924
v 0.009368450007 0.06586208437 -0.01307027183
v 0.009443321669 0.06532444904 -0.01281844851
v 0.009458689547 0.06478335913 -0.01256478282
v 0.008915460085 0.0642868838 -0.01233004808
v 0.008915286094 0.06473315108 -0.01140875338
v 0.009473319426 0.06652029862 -0.008961482563
v 0.009453715366 0.06706097394 -0.009214942723
v 0.008766554966 0.06917248135 -0.01020254344
v 0.005422965466 0.06845872276 -0.01383337205
v 0.0088203842 0.06424470244 -0.01117936575
v 0.00825542609 0.06407043778 -0.01135721415
v 0.008101897606 0.0636441323 -0.01115669632
v 0.007823961221 0.06388522687 -0.01149697004
v 0.007942992808 0.064285327 -0.01168498573
v 0.007662037415 0.06349892073 -0.01131520269
v 0.007465482368 0.06392013411 -0.01171273895
v 0.007458220405 0.0631287646 -0.01114087645
v 0.002816793495 0.06106725312 -0.01016360381
v 0.003330766381 0.06040546928 -0.009358203957
v 0.003230216583 0.05949276334 -0.01006108765
v 0.002961195228 0.06120696429 -0.006446133317
v 0.003929651731 0.06341154624 -0.006222833862
v 0.003802997237 0.06344147021 -0.005662814429
v 0.00421794977 0.06348838156 -0.005688478966
v 0.003954301218 0.06341653346 -0.005276662534
v 0.004405539536 0.06348040194 -0.005307525201
v 0.004006560652 0.06511810006 -0.001657001953
v 0.00445625944 0.06518581784 -0.001690423287
v 0.004424848339 0.06379840872 -0.001039504279
v 0.004997504226 0.06390602223 -0.001092019445
v 0.004879929898 0.06528878856 -0.001740247272
v 0.005556842906 0.06406307121 -0.001167722264
v 0.004875827965 0.06811681498 0.007978387047
v 0.005436149761 0.06825924221 0.007909541742
v 0.004301960044 0.0680232888 0.008024347025
v 0.005982010402 0.06845182714 0.007817196466
v 0.006119054403 0.0642791537 -0.001271169827
v 0.0065010698 0.06869004951 0.0077035863
v -0.0008044742213 0.07718410955 0.00374755302
v -0.00119024035 0.07678355009 0.003936793571
v -0.0104196536 0.08645162703 -0.0005624199909
v -0.01018443882 0.08675130876 -0.0007038903803
v -0.002446380809 0.07287294284 0.00577508769
v -0.001531199927 0.07635014443 0.004141268041
v 0.003423777087 0.07884775346 0.002951936206
v -0.0003777943184 0.07754816596 0.003575280337
v 8.514143008e-05 0.07787207999 0.003421696903
v 0.0005809318377 0.07815362055 0.003287859422
v 0.00110447596 0.07838999018 0.00317510733
v 0.001651341652 0.07857909357 0.003084427646
v 0.002217253453 0.07871930388 0.003016607325
v 0.002802838124 0.07880962784 0.002972103381
v -0.002474762688 0.0733734476 0.005540721088
v -0.002460192975 0.07384555038 0.005319090511
v -0.002386284977 0.07437039608 0.005072718653
v -0.002252685023 0.07489748825 0.004825074809
v -0.002064903411 0.07540297281 0.004587365352
v -0.00182339039 0.0758890822 0.004358537646
v -0.0008112065901 0.07296279547 -0.005317497318
v -0.001205519767 0.07255766843 -0.00512608266
v -0.001554193332 0.07211795138 -0.004918612939
v -0.001852409019 0.0716493756 -0.004697800532
v -0.002097553193 0.07115647313 -0.004465773854
v -0.002287441151 0.07064334399 -0.004224467575
v -0.00241972679 0.07011698141 -0.003977131779
v -0.002494200775 0.06957225628 -0.003721452056
v -0.00250882973 0.06903525853 -0.003469594792
v -0.002460207308 0.06847569151 -0.003207440055
v -0.0009942716239 0.06883240253 -0.003380298054
v -0.001009404813 0.06922812341 -0.003565814422
v -0.0009811537906 0.06963430883 -0.003756386372
v -0.0009056795778 0.07004753464 -0.003950399806
v -0.000791016712 0.07042941115 -0.00412990869
v -0.0006316232884 0.07080957402 -0.00430875301
v -0.0004313779443 0.07117242234 -0.004479629963
v -0.0001919761635 0.07151608209 -0.004641656987
v 9.16510787e-05 0.07184455568 -0.004796698763
v 0.0003940803516 0.07212984125 -0.004931600792
v -0.000373581885 0.07333096192 -0.005491740256
v 7.917589427e-05 0.07014857689 -0.008413644236
v -0.0003256708168 0.06966542603 -0.008162426089
v -0.0005870354118 0.0692204075 -0.00796576903
v -0.0007366209139 0.06889417239 -0.007813527284
v -0.0008872134896 0.06847381236 -0.007631128359
v -0.0009933958338 0.0679426152 -0.00737091132
v -0.001022646665 0.06755899249 -0.00719537108
v -0.001007324172 0.06714051223 -0.006999212297
v -0.0009344630976 0.06843026889 -0.00319195432
v -0.0009490139663 0.06674272452 -0.006812830298
v -0.002352868599 0.06793973064 -0.002956520741
v -0.002351787588 0.0723164623 0.006035624367
v -0.0008308937747 0.06803543317 -0.003007195527
v -0.0008463595365 0.06634791422 -0.006628110361
v -0.0008094421564 0.06684106426 -0.007200839138
v -0.0007313699406 0.06645731632 -0.007025268036
v -0.0007779318245 0.06715572723 -0.007490862558
v -0.0008409584899 0.06760916487 -0.007551484842
v -0.0007546829198 0.06795444219 -0.007797362855
v -0.0006319596683 0.06830176388 -0.0080285838
v -0.0003629920048 0.06863229104 -0.008472669494
v -0.0002464314365 0.06900445419 -0.008508214963
v 8.952075048e-05 0.06935805973 -0.00883042374
v 9.632943592e-05 0.06970821219 -0.008622507353
v 0.0003974197696 0.06995380035 -0.008805674395
v 0.0004000156476 0.07045078563 -0.008556505281
v 0.0005511350067 0.06961216635 -0.009275484519
v 0.0003288259167 0.06916180734 -0.009437766943
v -0.0001873792646 0.06856654435 -0.00889772438
v 9.680483076e-05 0.06887891967 -0.009283191142
v -0.0004172932662 0.06809114877 -0.008602130897
v -0.0006561393719 0.06764106031 -0.008005988605
v -0.0006121947882 0.06650908728 -0.007497731965
v -0.000587901557 0.0669330525 -0.008036914311
v -0.0006133406765 0.06608349829 -0.006850400943
v -0.0007006721751 0.06596370875 -0.006448480223
v -0.0006840244399 0.06765095556 -0.002827450744
v -0.002187785384 0.06741886796 -0.00271289532
v -0.0005030230542 0.06641420643 -0.008098455205
v -0.0005361994323 0.06717376561 -0.008446397439
v -0.0005260254531 0.06666077687 -0.008411943431
v -0.0004617517332 0.06760217671 -0.008716756315
v -0.0003304144702 0.06797738105 -0.009040093388
v -0.0001605896914 0.06835147789 -0.009270265254
v 9.460391344e-05 0.06856905378 -0.009887659339
v 0.0006397341887 0.06939905228 -0.009731537095
v 0.0003243614315 0.06886218264 -0.01002594361
v 0.00107096802 0.06982034881 -0.009746420123
v 0.0009621460509 0.0701704013 -0.009215876828
v 0.0005859077434 0.06913480514 -0.01015474563
v 0.0008780720387 0.06938346523 -0.01027241802
v -0.001623803335 0.06949959068 -0.01031776743
v -0.001282643359 0.06994424268 -0.01052751727
v -0.0001026159947 0.06825402369 -0.009739207491
v -0.001914142887 0.06902660246 -0.01009491349
v -0.0002633502216 0.06792602077 -0.009584821623
v -0.000387881344 0.0675825788 -0.009423320579
v -0.0005201746385 0.06687409698 -0.009090623502
v -0.0004733768886 0.06723129708 -0.009258285734
v -0.0005275577899 0.06651238902 -0.008920984747
v -0.002455685554 0.06748257173 -0.009368899694
v -0.002332071619 0.06801373418 -0.009618442141
v -0.002151080454 0.06852949036 -0.00986094693
v -0.001910210705 0.06736094418 -0.01373168067
v -0.001616086342 0.06783268424 -0.01395396151
v -0.0008940503199 0.07035609545 -0.01072206615
v -0.001272024623 0.06827481809 -0.01416254247
v 0.001192551458 0.06960166398 -0.01037588087
v -0.0004623995819 0.07073039982 -0.01089916574
v 0.0016025871 0.07004003803 -0.01003850486
v 0.001516691924 0.07027759031 -0.009591471497
v 8.61963719e-06 0.07106412066 -0.01105737541
v 0.001531982159 0.0697925123 -0.01046662392
v -0.0008803482669 0.06868433528 -0.01435600584
v -0.0004461175435 0.06905598728 -0.01453187126
v -0.001082227196 0.06774139059 -0.01391315667
v -0.0007502416595 0.06813648865 -0.01409964603
v -0.001368673769 0.06731893564 -0.01371401776
v -0.001470978923 0.06756406978 -0.01269649661
v 0.001400792979 0.07065574451 -0.009138561347
v 0.0006665291414 0.0703281763 -0.008831784927
v 0.001024909568 0.07050310601 -0.008998476771
v 0.001100400129 0.07093585985 -0.008786594732
v 0.001505353347 0.0711387734 -0.008883185809
v 0.001761571358 0.07094437357 -0.009124877835
v 0.00189341986 0.07129023923 -0.008951224747
v 0.001494228419 0.07282347653 -0.005260887392
v 0.00190600989 0.07298496694 -0.005338127361
v 0.0007222515653 0.07069952884 -0.008669930975
v 0.00111239145 0.07263181131 -0.005169591898
v 0.0007346268784 0.07239394724 -0.005056694688
v 0.0001025402734 0.07365790737 -0.005646794161
v 0.0006116257777 0.07393995298 -0.005780914243
v 0.001149402884 0.07417479395 -0.005893005899
v 0.00171021443 0.07436000884 -0.005981915551
v 0.00234449579 0.07311128486 -0.005398946877
v 0.002289567851 0.0744939595 -0.006046854761
v -0.0004900995691 0.06727251146 -0.002650730442
v -0.001966918589 0.06691658779 -0.002478178739
v -0.001691348278 0.06643547597 -0.002253596522
v -0.001999531083 0.07129696347 0.006512379774
v -0.001743411754 0.07081738759 0.006736316723
v -0.001435957522 0.07036176423 0.006948829279
v -0.002203309312 0.0717986529 0.006277878493
v 0.01776333446 0.05885940379 0.01227218644
v 0.01731609343 0.05919653171 0.01211567981
v 0.01839091164 0.05882091054 0.01228779533
v 0.01824558785 0.05922221572 0.01320449665
v 0.01913792396 0.05945455968 0.01198804009
v 0.01882698887 0.05901334233 0.01219605311
v 0.01872019604 0.05937278704 0.01313233581
v 0.01909499532 0.06048435967 0.01260958005
v 0.01916889043 0.0600139725 0.01283003147
v 0.01900302072 0.05963716129 0.01300731133
v 0.01894372451 0.08794206479 -0.0002649446848
v 0.01938317392 0.08768666792 -0.0001467079057
v 0.01966502953 0.08718497527 8.732794083e-05
v 0.01886070272 0.08753679322 -0.001178903666
v 0.0193827069 0.08727563462 -0.001058078884
v -0.01009893168 0.08722315408 -0.000925112131
v -0.01030878009 0.08766995472 -0.001134036643
v -0.01067599687 0.08793760639 -0.001258287681
f 1 2 3
f 2 1 4
f 5 6 1
f 7 8 1
f 1 3 9
f 1 10 5
f 1 11 4
f 9 7 1
f 1 8 12
f 13 10 1
f 1 6 14
f 12 13 1
f 14 11 1
f 15 16 3
f 3 17 18
f 9 3 16
f 17 3 19
f 3 2 20
f 20 21 3
f 18 15 3
f 22 23 3
f 23 19 3
f 3 21 22
f 16 24 9
f 7 9 25
f 24 25 9
f 25 26 7
f 8 7 26
f 26 27 8
f 12 8 27
f 27 28 12
f 29 12 28
f 12 29 13
f 11 28 27
f 11 27 26
f 28 11 14
f 16 4 11
f 24 16 11
f 25 24 11
f 26 25 11
f 4 16 15
f 15 18 4
f 18 30 4
f 30 18 31
f 17 31 18
f 31 17 19
f 31 32 33
f 32 31 19
f 33 30 31
f 34 4 30
f 34 30 33
f 35 33 36
f 32 36 33
f 33 35 34
f 36 32 19
f 37 36 13
f 36 37 35
f 36 19 13
f 35 14 34
f 35 38 14
f 38 35 37
f 37 29 38
f 13 29 37
f 28 38 29
f 14 38 28
f 6 39 14
f 34 14 40
f 41 42 14
f 43 41 14
f 14 42 40
f 14 39 43
f 6 5 44
f 45 46 6
f 47 6 46
f 47 39 6
f 6 48 45
f 6 49 50
f 51 48 6
f 6 44 49
f 51 6 50
f 39 47 52
f 39 52 53
f 39 53 54
f 39 54 43
f 44 5 43
f 41 43 5
f 43 54 44
f 5 10 41
f 42 41 10
f 10 13 42
f 40 42 13
f 55 40 13
f 40 55 34
f 13 56 55
f 56 13 51
f 57 51 13
f 13 19 57
f 58 56 51
f 59 60 51
f 61 58 51
f 51 62 61
f 51 50 62
f 48 51 60
f 51 57 59
f 60 63 48
f 45 48 63
f 63 64 45
f 65 45 64
f 45 65 46
f 47 63 60
f 64 63 47
f 60 34 47
f 60 59 34
f 66 59 57
f 34 59 66
f 57 19 66
f 19 67 68
f 69 67 19
f 70 69 19
f 68 66 19
f 19 23 70
f 66 71 34
f 71 66 68
f 67 72 68
f 68 72 71
f 73 67 69
f 67 73 74
f 74 72 67
f 73 69 46
f 69 70 75
f 76 69 77
f 69 76 46
f 75 77 69
f 78 75 70
f 79 78 70
f 70 23 79
f 23 22 79
f 4 79 80
f 79 4 81
f 79 81 82
f 78 79 82
f 80 79 22
f 82 75 78
f 82 83 84
f 84 85 82
f 83 82 81
f 75 82 85
f 4 86 81
f 81 87 83
f 87 81 86
f 88 89 83
f 83 87 88
f 84 83 89
f 89 90 84
f 91 84 90
f 85 84 91
f 91 92 85
f 75 85 92
f 90 93 91
f 94 91 93
f 92 91 94
f 95 90 89
f 90 95 96
f 96 93 90
f 89 97 95
f 97 89 88
f 97 88 98
f 98 88 87
f 87 99 98
f 86 99 87
f 4 100 86
f 99 86 100
f 101 98 99
f 99 102 101
f 100 102 99
f 98 103 97
f 103 98 101
f 97 103 104
f 104 105 97
f 95 97 105
f 105 106 95
f 107 95 106
f 95 107 96
f 108 96 107
f 93 96 108
f 108 109 93
f 93 109 94
f 110 94 109
f 94 111 92
f 111 94 110
f 75 92 111
f 112 111 110
f 75 111 112
f 109 113 110
f 114 110 113
f 112 110 114
f 108 113 109
f 115 108 116
f 117 116 108
f 113 108 115
f 107 117 108
f 106 118 107
f 117 107 118
f 119 120 106
f 106 105 119
f 118 106 120
f 105 104 119
f 121 119 104
f 104 122 121
f 122 104 103
f 101 122 103
f 122 101 123
f 123 101 102
f 102 124 123
f 125 124 102
f 102 100 125
f 125 100 4
f 126 125 4
f 124 125 126
f 124 127 123
f 126 127 124
f 128 123 129
f 123 128 130
f 129 123 127
f 123 130 122
f 131 121 122
f 122 130 131
f 132 133 121
f 121 131 132
f 119 121 133
f 134 120 119
f 133 134 119
f 135 120 134
f 120 135 136
f 136 137 120
f 120 137 118
f 138 118 137
f 118 138 117
f 117 139 116
f 139 117 138
f 140 139 138
f 138 141 140
f 138 142 143
f 138 144 142
f 143 141 138
f 145 138 137
f 138 145 144
f 137 136 145
f 136 135 146
f 146 147 136
f 147 148 136
f 145 136 148
f 135 149 150
f 150 146 135
f 134 149 135
f 149 134 133
f 151 133 132
f 133 152 149
f 153 133 151
f 133 153 152
f 132 154 151
f 154 132 131
f 131 155 154
f 131 128 155
f 130 128 131
f 128 156 155
f 129 156 128
f 157 154 155
f 158 157 155
f 155 156 158
f 159 151 154
f 154 157 159
f 160 151 159
f 151 160 153
f 153 160 161
f 161 162 153
f 152 153 162
f 162 163 152
f 149 152 163
f 163 150 149
f 164 150 163
f 150 164 165
f 165 146 150
f 146 165 166
f 166 147 146
f 167 148 147
f 147 166 167
f 148 167 168
f 168 169 148
f 148 169 145
f 144 145 169
f 142 144 170
f 169 170 144
f 169 168 171
f 171 170 169
f 168 172 173
f 173 171 168
f 172 168 167
f 167 174 172
f 174 167 166
f 175 166 165
f 166 175 174
f 176 165 164
f 165 176 175
f 177 164 178
f 164 177 176
f 163 178 164
f 178 163 162
f 162 179 178
f 179 162 161
f 180 161 181
f 161 180 179
f 181 161 160
f 160 182 181
f 159 182 160
f 182 159 183
f 159 184 183
f 184 159 157
f 157 158 184
f 185 183 184
f 185 184 186
f 186 184 158
f 187 183 188
f 188 183 185
f 183 187 182
f 182 187 189
f 189 190 182
f 190 181 182
f 191 181 190
f 181 191 180
f 192 180 191
f 180 192 193
f 193 179 180
f 179 193 194
f 194 178 179
f 178 194 177
f 177 194 195
f 195 196 177
f 176 177 196
f 196 197 176
f 175 176 197
f 197 198 175
f 174 175 198
f 172 174 198
f 173 172 198
f 198 199 173
f 200 173 199
f 171 173 200
f 201 198 197
f 198 202 203
f 203 199 198
f 198 204 205
f 205 202 198
f 204 198 206
f 198 201 206
f 207 197 196
f 197 207 201
f 208 196 195
f 196 208 207
f 209 195 210
f 195 209 208
f 210 195 194
f 194 193 210
f 211 210 193
f 193 192 211
f 212 211 192
f 192 213 212
f 191 213 192
f 213 191 214
f 190 214 191
f 214 190 189
f 189 215 214
f 215 189 216
f 216 189 187
f 187 188 216
f 216 217 215
f 217 216 218
f 218 216 188
f 219 215 217
f 215 219 220
f 220 214 215
f 214 220 213
f 213 220 221
f 221 212 213
f 222 212 221
f 212 222 223
f 223 211 212
f 211 223 224
f 224 210 211
f 210 224 209
f 225 209 224
f 209 225 226
f 226 208 209
f 227 207 208
f 208 226 227
f 228 201 207
f 207 227 228
f 229 206 201
f 201 228 229
f 206 229 204
f 230 205 204
f 204 231 230
f 231 204 229
f 229 232 231
f 232 229 228
f 228 233 232
f 233 228 227
f 227 234 233
f 234 227 226
f 226 235 234
f 235 226 225
f 225 236 235
f 236 225 237
f 224 237 225
f 237 224 223
f 223 238 237
f 238 223 222
f 222 239 238
f 239 222 240
f 221 240 222
f 240 221 241
f 241 221 220
f 220 219 241
f 242 241 219
f 219 243 242
f 217 243 219
f 243 217 244
f 218 244 217
f 244 218 245
f 245 218 188
f 244 246 243
f 246 244 247
f 245 247 244
f 248 242 243
f 243 246 248
f 249 242 248
f 242 249 250
f 250 241 242
f 241 250 240
f 251 240 250
f 240 251 239
f 239 252 253
f 252 239 251
f 253 238 239
f 238 253 254
f 254 237 238
f 237 254 236
f 255 236 254
f 236 255 256
f 256 235 236
f 256 234 235
f 234 256 257
f 257 233 234
f 258 232 233
f 233 257 258
f 258 231 232
f 231 258 259
f 260 259 258
f 261 258 257
f 258 261 262
f 258 262 260
f 261 257 256
f 263 256 255
f 256 263 264
f 264 261 256
f 265 255 266
f 255 265 263
f 255 254 253
f 253 266 255
f 266 253 252
f 251 267 252
f 266 252 267
f 267 251 268
f 250 268 251
f 268 250 249
f 249 269 268
f 269 249 270
f 248 270 249
f 270 248 271
f 271 248 246
f 246 272 271
f 247 272 246
f 272 247 273
f 274 273 247
f 247 245 274
f 275 271 272
f 272 276 275
f 273 276 272
f 271 277 270
f 277 271 275
f 270 278 269
f 278 270 277
f 279 269 278
f 269 279 280
f 280 268 269
f 268 280 267
f 281 267 280
f 267 281 266
f 282 266 281
f 266 282 265
f 283 265 282
f 265 283 284
f 284 263 265
f 285 264 263
f 263 284 285
f 264 285 286
f 286 287 264
f 261 264 287
f 287 262 261
f 262 287 288
f 288 260 262
f 289 288 287
f 287 286 289
f 290 286 285
f 291 289 286
f 286 290 291
f 292 285 284
f 285 292 290
f 293 284 283
f 284 293 292
f 282 294 283
f 295 283 294
f 283 295 293
f 294 282 296
f 281 296 282
f 296 281 297
f 281 280 279
f 279 297 281
f 297 279 298
f 278 298 279
f 298 278 299
f 277 299 278
f 299 277 300
f 275 300 277
f 300 275 301
f 301 275 276
f 276 273 302
f 302 303 276
f 276 303 301
f 304 301 305
f 301 304 300
f 305 301 303
f 300 306 299
f 306 300 304
f 299 307 298
f 307 299 306
f 297 298 307
f 308 297 309
f 297 308 296
f 307 309 297
f 310 296 308
f 296 310 294
f 311 294 310
f 294 311 295
f 312 295 311
f 295 312 313
f 313 293 295
f 293 313 314
f 314 292 293
f 314 290 292
f 290 314 315
f 315 291 290
f 316 314 313
f 316 315 314
f 313 317 316
f 317 313 312
f 318 319 312
f 320 312 319
f 312 320 317
f 312 311 318
f 310 318 311
f 308 321 310
f 318 310 321
f 321 308 322
f 309 322 308
f 322 309 323
f 324 323 309
f 309 325 326
f 326 324 309
f 309 307 325
f 306 325 307
f 325 306 327
f 304 327 306
f 327 304 328
f 305 328 304
f 329 305 330
f 328 305 329
f 303 330 305
f 303 302 331
f 331 330 303
f 330 331 332
f 332 333 330
f 330 333 329
f 334 329 333
f 335 329 334
f 329 335 328
f 328 336 327
f 336 328 335
f 327 326 325
f 326 327 336
f 324 326 337
f 336 337 326
f 324 338 323
f 338 324 339
f 324 337 340
f 340 339 324
f 322 323 338
f 341 322 342
f 338 342 322
f 322 341 321
f 343 321 341
f 321 343 318
f 319 318 343
f 319 344 320
f 344 319 345
f 343 345 319
f 346 320 344
f 346 317 320
f 347 348 344
f 344 345 347
f 349 344 348
f 344 349 346
f 345 350 351
f 351 347 345
f 345 343 350
f 341 350 343
f 342 352 341
f 350 341 352
f 352 342 353
f 354 353 342
f 342 338 354
f 339 354 338
f 354 339 355
f 339 340 356
f 339 356 357
f 357 355 339
f 358 356 340
f 340 359 358
f 359 340 337
f 337 336 359
f 335 359 336
f 334 360 335
f 359 335 360
f 360 358 359
f 361 362 358
f 356 358 362
f 358 360 361
f 362 357 356
f 363 364 357
f 355 357 364
f 357 362 363
f 355 365 354
f 365 355 366
f 355 364 367
f 367 366 355
f 353 354 365
f 368 353 369
f 365 369 353
f 353 368 352
f 351 352 368
f 352 351 350
f 347 351 370
f 368 370 351
f 348 347 371
f 370 371 347
f 371 372 348
f 348 373 349
f 373 348 372
f 374 349 373
f 374 346 349
f 373 372 375
f 373 376 374
f 375 377 373
f 373 377 376
f 372 371 378
f 378 375 372
f 371 379 380
f 380 378 371
f 371 370 379
f 370 368 381
f 381 379 370
f 369 381 368
f 381 369 382
f 383 382 369
f 369 365 383
f 366 383 365
f 383 366 384
f 366 367 385
f 366 385 386
f 386 384 366
f 387 385 367
f 367 388 387
f 388 367 364
f 364 363 388
f 389 388 363
f 390 363 362
f 363 390 389
f 362 361 390
f 391 389 390
f 390 392 391
f 392 390 361
f 388 389 393
f 394 393 389
f 389 391 394
f 393 387 388
f 395 396 387
f 385 387 396
f 387 393 395
f 396 386 385
f 384 386 397
f 398 397 386
f 386 396 398
f 399 384 400
f 401 400 384
f 384 397 401
f 384 399 383
f 382 383 399
f 399 402 382
f 403 382 402
f 382 403 381
f 379 381 403
f 403 380 379
f 380 403 404
f 404 405 380
f 378 380 405
f 405 406 378
f 375 378 406
f 405 404 407
f 407 408 405
f 406 405 408
f 404 402 409
f 409 407 404
f 402 404 403
f 402 399 410
f 410 409 402
f 400 410 399
f 400 401 411
f 410 400 412
f 400 411 413
f 413 412 400
f 401 414 415
f 415 411 401
f 414 401 397
f 397 398 414
f 416 414 398
f 417 398 396
f 398 417 416
f 396 395 417
f 418 417 395
f 395 419 418
f 419 395 393
f 393 394 419
f 419 394 420
f 394 391 421
f 421 420 394
f 418 419 422
f 420 422 419
f 417 418 423
f 423 418 424
f 422 424 418
f 423 416 417
f 414 416 425
f 426 425 416
f 416 423 426
f 425 415 414
f 415 425 427
f 427 428 415
f 411 415 428
f 428 413 411
f 413 428 429
f 429 430 413
f 412 413 430
f 430 431 412
f 410 412 431
f 409 410 432
f 431 432 410
f 432 433 409
f 407 409 433
f 433 434 407
f 408 407 434
f 434 435 408
f 406 408 435
f 434 433 436
f 436 437 434
f 435 434 437
f 433 432 438
f 438 436 433
f 432 431 438
f 431 439 440
f 440 438 431
f 431 430 439
f 430 429 441
f 441 439 430
f 442 429 428
f 429 442 443
f 443 441 429
f 428 427 442
f 427 444 445
f 445 442 427
f 444 427 425
f 425 426 444
f 444 426 446
f 426 423 447
f 447 446 426
f 424 447 423
f 448 424 422
f 424 448 449
f 449 447 424
f 450 422 420
f 422 450 448
f 451 448 450
f 448 451 452
f 452 449 448
f 449 452 453
f 453 454 449
f 447 449 454
f 454 446 447
f 455 446 456
f 446 455 444
f 454 456 446
f 445 444 455
f 457 445 458
f 455 458 445
f 442 445 457
f 459 443 442
f 442 457 459
f 459 460 443
f 441 443 460
f 460 461 441
f 439 441 461
f 461 440 439
f 440 461 462
f 462 463 440
f 438 440 463
f 464 465 438
f 436 438 465
f 438 463 464
f 463 462 466
f 466 464 463
f 462 467 468
f 468 466 462
f 467 462 461
f 461 460 467
f 459 467 460
f 469 459 457
f 469 470 459
f 470 471 459
f 472 459 471
f 467 459 472
f 457 458 469
f 473 474 458
f 469 458 474
f 458 455 473
f 456 473 455
f 475 473 456
f 476 456 454
f 456 476 475
f 454 453 476
f 477 453 452
f 453 477 478
f 478 476 453
f 479 452 451
f 452 479 477
f 480 477 479
f 477 480 481
f 481 478 477
f 478 481 482
f 476 478 483
f 482 483 478
f 483 475 476
f 484 485 475
f 473 475 485
f 475 483 484
f 485 474 473
f 474 485 486
f 486 487 474
f 474 487 470
f 470 469 474
f 487 488 470
f 471 470 488
f 488 489 471
f 490 471 489
f 471 490 472
f 491 472 490
f 468 472 491
f 472 468 467
f 491 492 468
f 466 468 492
f 492 493 466
f 464 466 493
f 492 491 494
f 494 495 492
f 493 492 495
f 494 491 496
f 490 496 491
f 496 490 497
f 489 497 490
f 498 489 488
f 489 498 499
f 499 497 489
f 500 488 487
f 488 500 498
f 487 486 500
f 486 501 502
f 502 500 486
f 501 486 485
f 485 484 501
f 503 501 484
f 484 504 503
f 504 484 483
f 483 482 504
f 482 481 505
f 482 505 506
f 482 507 504
f 506 507 482
f 480 505 481
f 480 508 505
f 506 505 508
f 508 509 506
f 510 506 509
f 506 510 507
f 511 507 510
f 503 504 507
f 507 511 503
f 501 503 512
f 503 513 512
f 511 513 503
f 512 502 501
f 502 512 514
f 514 515 502
f 500 502 515
f 515 498 500
f 498 515 516
f 516 499 498
f 499 516 517
f 517 518 499
f 497 499 518
f 518 519 497
f 497 519 496
f 520 496 519
f 496 520 494
f 521 494 520
f 495 494 521
f 519 522 520
f 523 520 522
f 520 523 521
f 519 518 524
f 524 522 519
f 525 524 518
f 518 517 525
f 526 517 516
f 517 526 527
f 527 525 517
f 516 528 526
f 528 516 515
f 515 514 528
f 529 530 514
f 514 530 528
f 513 529 514
f 514 512 513
f 529 513 531
f 511 531 513
f 510 532 511
f 531 511 532
f 509 533 510
f 532 510 533
f 509 534 535
f 509 508 534
f 533 509 535
f 533 536 537
f 536 533 535
f 537 538 533
f 533 538 532
f 531 532 538
f 539 531 540
f 538 540 531
f 531 539 529
f 541 529 539
f 529 541 530
f 542 530 541
f 530 542 526
f 526 528 530
f 542 543 526
f 526 543 527
f 544 527 545
f 545 527 546
f 543 546 527
f 527 544 525
f 524 525 544
f 544 547 524
f 522 524 547
f 547 548 522
f 522 548 523
f 549 523 548
f 523 549 550
f 550 521 523
f 548 547 551
f 551 552 548
f 548 552 549
f 547 544 553
f 553 551 547
f 545 553 544
f 546 554 545
f 555 545 554
f 553 545 555
f 543 556 546
f 554 546 556
f 556 543 557
f 542 557 543
f 541 558 542
f 557 542 558
f 558 541 559
f 541 539 559
f 540 559 539
f 560 559 540
f 540 561 560
f 561 540 538
f 538 537 561
f 562 561 537
f 563 537 536
f 537 563 562
f 564 560 561
f 561 562 564
f 560 564 565
f 565 566 560
f 559 560 566
f 567 568 559
f 559 566 567
f 559 568 558
f 557 558 568
f 556 557 569
f 569 557 570
f 568 570 557
f 571 556 572
f 556 571 554
f 569 572 556
f 573 554 571
f 554 573 555
f 574 555 573
f 575 555 574
f 555 575 553
f 551 553 575
f 575 576 551
f 552 551 576
f 576 577 552
f 578 549 552
f 552 577 578
f 576 575 579
f 579 580 576
f 577 576 580
f 574 579 575
f 573 581 574
f 582 574 581
f 574 582 583
f 579 574 583
f 581 573 584
f 571 584 573
f 585 586 571
f 571 572 585
f 584 571 586
f 587 585 572
f 572 569 587
f 570 587 569
f 588 570 568
f 589 587 570
f 570 590 589
f 570 588 590
f 568 567 588
f 567 591 592
f 591 567 566
f 592 588 567
f 566 565 591
f 593 592 591
f 591 594 593
f 594 591 565
f 595 596 592
f 592 593 595
f 588 592 596
f 596 590 588
f 590 596 597
f 597 589 590
f 589 597 598
f 598 599 589
f 587 589 599
f 599 585 587
f 585 599 600
f 600 586 585
f 601 602 586
f 586 600 601
f 586 602 584
f 603 584 602
f 584 603 581
f 581 604 605
f 604 581 603
f 581 605 582
f 605 606 582
f 607 582 606
f 608 582 607
f 608 583 582
f 609 583 608
f 583 609 610
f 583 610 579
f 611 608 607
f 612 608 613
f 608 611 613
f 608 612 609
f 614 607 615
f 606 615 607
f 607 614 611
f 615 606 616
f 604 616 606
f 606 605 604
f 617 616 604
f 604 603 617
f 602 617 603
f 602 601 618
f 618 617 602
f 601 619 620
f 619 601 600
f 620 618 601
f 600 621 619
f 621 600 599
f 599 598 621
f 622 621 598
f 598 623 622
f 623 598 597
f 597 624 623
f 624 597 596
f 596 595 624
f 623 624 71
f 71 624 595
f 71 622 623
f 625 622 71
f 621 622 625
f 625 619 621
f 626 620 619
f 619 625 626
f 627 628 620
f 620 626 627
f 618 620 628
f 628 629 618
f 617 618 629
f 629 616 617
f 616 629 630
f 630 631 616
f 616 631 615
f 614 615 631
f 632 611 614
f 632 614 633
f 633 614 631
f 634 613 611
f 611 632 634
f 613 635 612
f 635 613 636
f 613 634 636
f 637 609 612
f 612 638 637
f 638 612 635
f 635 639 638
f 636 640 635
f 639 635 640
f 641 636 634
f 640 636 641
f 634 642 641
f 642 634 632
f 632 643 642
f 633 643 632
f 644 643 633
f 645 633 631
f 633 645 644
f 631 630 646
f 631 646 645
f 647 630 629
f 630 647 648
f 648 646 630
f 629 628 647
f 649 647 628
f 628 627 649
f 71 649 627
f 71 627 626
f 71 626 625
f 650 651 71
f 71 651 46
f 71 652 650
f 74 652 71
f 72 74 71
f 71 46 2
f 71 653 77
f 77 75 71
f 2 654 71
f 71 654 653
f 655 656 71
f 656 649 71
f 657 655 71
f 71 658 657
f 71 595 593
f 593 594 71
f 71 75 659
f 594 660 71
f 71 660 661
f 659 658 71
f 661 34 71
f 647 649 656
f 656 648 647
f 655 662 648
f 648 656 655
f 646 648 662
f 662 645 646
f 662 655 657
f 645 662 663
f 657 663 662
f 663 644 645
f 644 663 664
f 657 664 663
f 664 657 658
f 665 658 659
f 658 665 664
f 666 659 75
f 667 659 666
f 659 667 665
f 665 667 668
f 665 668 669
f 669 664 665
f 664 669 644
f 670 669 668
f 643 644 669
f 669 670 643
f 671 668 667
f 672 668 671
f 668 672 670
f 666 673 667
f 667 673 671
f 674 666 75
f 673 666 674
f 674 675 673
f 673 675 676
f 676 671 673
f 677 671 676
f 671 677 672
f 672 677 678
f 678 679 672
f 670 672 679
f 643 670 642
f 679 642 670
f 642 679 680
f 679 678 681
f 681 680 679
f 682 678 677
f 678 682 681
f 676 683 677
f 677 683 682
f 684 676 675
f 683 676 684
f 685 686 675
f 675 674 685
f 675 686 684
f 685 674 75
f 687 685 75
f 686 685 687
f 687 688 686
f 686 688 689
f 689 684 686
f 690 684 689
f 684 690 683
f 683 690 691
f 691 682 683
f 682 691 692
f 692 681 682
f 693 680 681
f 681 694 693
f 694 681 692
f 680 641 642
f 641 680 695
f 680 693 695
f 695 693 696
f 693 694 697
f 697 696 693
f 692 698 694
f 694 698 699
f 699 697 694
f 700 692 691
f 701 692 700
f 702 692 701
f 692 702 698
f 703 691 690
f 691 703 700
f 689 704 690
f 690 704 703
f 705 689 688
f 704 689 705
f 706 707 688
f 688 687 706
f 688 707 705
f 75 706 687
f 708 706 75
f 707 706 708
f 708 709 707
f 707 709 710
f 710 705 707
f 711 705 710
f 705 711 704
f 704 711 712
f 712 703 704
f 703 712 713
f 713 700 703
f 713 701 700
f 714 701 713
f 701 714 702
f 702 714 715
f 715 716 702
f 698 702 716
f 716 699 698
f 717 697 699
f 718 699 716
f 699 718 717
f 719 696 697
f 697 717 719
f 696 720 695
f 696 719 721
f 721 720 696
f 721 719 722
f 719 717 723
f 723 722 719
f 717 718 724
f 724 723 717
f 716 725 718
f 718 725 726
f 726 724 718
f 725 716 715
f 727 715 714
f 715 728 725
f 728 715 727
f 713 729 714
f 729 730 714
f 714 730 727
f 729 713 712
f 731 712 711
f 712 731 729
f 710 732 711
f 711 732 731
f 733 710 709
f 732 710 733
f 734 735 709
f 709 708 734
f 709 735 733
f 734 708 75
f 75 736 734
f 735 734 736
f 736 737 735
f 735 737 738
f 738 733 735
f 739 733 738
f 733 739 732
f 732 739 740
f 740 731 732
f 731 740 741
f 741 729 731
f 730 729 741
f 741 742 730
f 730 742 743
f 743 744 730
f 744 727 730
f 727 745 728
f 745 727 744
f 728 745 746
f 725 728 747
f 746 747 728
f 747 726 725
f 724 726 748
f 726 747 749
f 749 748 726
f 723 724 750
f 748 750 724
f 751 750 748
f 752 748 749
f 748 752 751
f 753 749 747
f 754 749 753
f 749 754 752
f 747 746 753
f 755 746 745
f 756 753 746
f 746 755 756
f 744 757 745
f 745 757 755
f 757 744 743
f 758 743 742
f 743 759 757
f 759 743 758
f 742 741 760
f 760 761 742
f 742 761 758
f 740 762 741
f 763 741 762
f 741 763 760
f 762 740 739
f 738 764 739
f 739 764 762
f 765 738 737
f 764 738 765
f 766 767 764
f 764 767 768
f 764 765 766
f 764 768 769
f 769 762 764
f 762 769 763
f 770 763 769
f 763 770 771
f 771 760 763
f 761 760 771
f 771 772 761
f 761 772 773
f 773 758 761
f 758 774 759
f 774 758 773
f 757 759 775
f 776 775 759
f 759 774 776
f 775 755 757
f 755 775 777
f 777 756 755
f 778 756 777
f 779 753 756
f 756 778 779
f 753 779 754
f 780 752 754
f 754 781 780
f 781 754 779
f 779 782 781
f 782 779 778
f 778 783 782
f 783 778 784
f 777 784 778
f 784 777 785
f 785 777 775
f 775 776 785
f 786 785 776
f 776 787 786
f 787 776 788
f 774 788 776
f 773 788 774
f 789 773 772
f 788 773 789
f 772 771 790
f 772 790 791
f 772 792 789
f 791 792 772
f 771 770 790
f 770 793 791
f 769 793 770
f 791 790 770
f 769 768 793
f 794 768 795
f 768 794 793
f 767 795 768
f 796 793 794
f 793 796 791
f 797 791 796
f 791 798 792
f 798 791 797
f 799 789 792
f 800 799 792
f 792 798 800
f 789 801 788
f 801 789 799
f 788 801 787
f 802 786 787
f 787 803 802
f 803 787 801
f 804 785 786
f 786 805 804
f 805 786 802
f 785 804 784
f 784 806 783
f 806 784 804
f 807 783 806
f 783 807 808
f 808 782 783
f 809 781 782
f 782 808 809
f 810 808 807
f 811 809 808
f 808 810 811
f 807 812 810
f 812 807 813
f 806 813 807
f 813 806 814
f 804 814 806
f 814 804 805
f 805 815 814
f 815 805 816
f 802 816 805
f 816 802 817
f 817 802 803
f 803 818 817
f 819 818 803
f 801 819 803
f 799 819 801
f 819 799 800
f 800 820 819
f 820 800 821
f 821 800 798
f 798 143 821
f 797 143 798
f 821 822 820
f 822 821 823
f 823 821 143
f 820 824 818
f 818 819 820
f 824 820 822
f 825 817 818
f 818 824 825
f 817 826 816
f 826 817 825
f 816 827 815
f 827 816 826
f 828 814 815
f 815 829 828
f 829 815 827
f 814 828 813
f 812 813 828
f 828 830 812
f 831 812 830
f 832 810 812
f 812 831 832
f 810 832 833
f 833 811 810
f 811 833 834
f 811 835 809
f 834 836 811
f 835 811 836
f 781 809 835
f 835 780 781
f 780 835 837
f 836 837 835
f 836 838 837
f 836 834 839
f 838 836 839
f 834 840 841
f 840 834 833
f 841 839 834
f 833 842 840
f 842 833 832
f 832 843 842
f 843 832 831
f 844 831 845
f 831 844 846
f 831 846 843
f 830 845 831
f 830 828 829
f 847 848 830
f 845 830 848
f 830 829 847
f 827 847 829
f 847 827 849
f 826 849 827
f 849 826 850
f 825 850 826
f 850 825 851
f 851 825 824
f 852 850 853
f 850 852 849
f 851 853 850
f 849 854 847
f 854 849 852
f 848 847 854
f 845 848 855
f 854 855 848
f 845 856 844
f 856 845 857
f 855 857 845
f 858 846 844
f 844 859 858
f 859 844 856
f 858 843 846
f 860 842 843
f 843 858 860
f 861 840 842
f 842 860 861
f 862 841 840
f 840 861 862
f 839 841 863
f 864 863 841
f 841 862 864
f 865 862 861
f 866 864 862
f 862 865 866
f 861 867 865
f 867 861 860
f 860 868 867
f 868 860 858
f 858 869 868
f 869 858 859
f 859 870 869
f 856 871 859
f 870 859 871
f 856 872 871
f 873 874 856
f 856 857 873
f 872 856 874
f 857 855 875
f 875 873 857
f 855 854 876
f 876 875 855
f 852 876 854
f 876 852 877
f 853 877 852
f 875 876 878
f 877 878 876
f 873 875 879
f 880 879 875
f 875 878 880
f 874 873 260
f 879 260 873
f 874 881 872
f 881 874 288
f 260 288 874
f 872 882 883
f 883 871 872
f 882 872 881
f 871 883 870
f 884 869 870
f 884 870 883
f 885 868 869
f 869 884 885
f 885 867 868
f 886 865 867
f 867 885 886
f 887 866 865
f 865 886 887
f 864 866 888
f 887 888 866
f 863 864 889
f 888 889 864
f 889 888 890
f 891 890 888
f 888 887 891
f 892 887 886
f 887 892 893
f 893 891 887
f 894 886 885
f 886 894 892
f 885 895 894
f 895 885 884
f 883 896 884
f 897 884 896
f 884 897 895
f 896 883 882
f 882 898 896
f 881 291 882
f 898 882 291
f 291 881 289
f 288 289 881
f 291 315 898
f 897 896 898
f 898 899 897
f 899 898 315
f 900 895 897
f 900 897 899
f 901 894 895
f 895 900 901
f 902 892 894
f 894 901 902
f 903 893 892
f 892 902 903
f 891 893 904
f 903 904 893
f 890 891 905
f 904 905 891
f 890 906 889
f 906 890 907
f 905 907 890
f 908 889 906
f 889 908 863
f 909 906 910
f 906 909 908
f 907 910 906
f 910 907 911
f 905 911 907
f 911 905 912
f 904 912 905
f 912 904 913
f 914 913 904
f 904 903 914
f 915 914 903
f 916 903 902
f 903 916 915
f 916 902 901
f 917 901 900
f 901 917 916
f 899 918 900
f 917 900 918
f 918 899 316
f 315 316 899
f 919 918 346
f 317 346 918
f 918 919 917
f 918 316 317
f 917 919 920
f 916 917 920
f 915 916 920
f 376 915 920
f 915 377 914
f 377 915 376
f 921 914 377
f 914 921 913
f 913 922 912
f 922 913 921
f 923 912 922
f 912 923 911
f 911 924 910
f 924 911 923
f 925 910 924
f 910 925 909
f 909 926 927
f 927 908 909
f 926 909 925
f 908 927 928
f 928 863 908
f 863 928 839
f 928 929 930
f 931 839 928
f 929 928 927
f 928 930 931
f 927 932 933
f 932 927 926
f 927 933 929
f 926 934 935
f 936 937 926
f 925 936 926
f 926 935 932
f 934 926 937
f 936 925 938
f 924 938 925
f 938 924 939
f 923 939 924
f 939 923 940
f 922 940 923
f 922 941 940
f 921 942 922
f 941 922 942
f 942 921 375
f 377 375 921
f 375 406 942
f 435 942 406
f 942 435 941
f 943 940 941
f 941 437 943
f 437 941 435
f 940 943 939
f 939 944 938
f 944 939 943
f 938 945 936
f 945 938 944
f 937 936 945
f 937 946 934
f 937 947 946
f 947 937 948
f 945 948 937
f 949 935 934
f 934 950 949
f 950 934 946
f 935 949 951
f 951 932 935
f 932 951 952
f 952 933 932
f 933 952 953
f 953 929 933
f 952 954 955
f 955 953 952
f 954 952 951
f 951 956 954
f 956 951 949
f 949 957 956
f 957 949 950
f 946 958 950
f 959 950 958
f 950 959 957
f 958 946 947
f 947 960 958
f 960 947 961
f 948 961 947
f 948 945 962
f 962 963 948
f 964 948 963
f 948 964 961
f 944 962 945
f 943 965 944
f 962 944 965
f 965 943 437
f 437 436 965
f 965 465 962
f 465 965 436
f 963 962 465
f 963 966 967
f 963 967 964
f 966 963 465
f 968 964 967
f 964 968 969
f 969 961 964
f 961 969 960
f 970 958 960
f 971 960 969
f 960 971 970
f 958 970 959
f 972 959 970
f 959 972 973
f 959 973 974
f 974 957 959
f 974 956 957
f 975 954 956
f 956 974 975
f 954 975 976
f 976 955 954
f 955 976 977
f 977 978 955
f 953 955 978
f 978 979 953
f 929 953 979
f 978 977 980
f 980 981 978
f 979 978 981
f 980 977 982
f 983 982 977
f 977 976 983
f 984 983 976
f 976 975 984
f 985 984 975
f 975 974 985
f 986 985 974
f 974 973 987
f 987 986 974
f 973 972 987
f 970 988 972
f 972 988 989
f 989 987 972
f 988 970 971
f 990 971 991
f 971 990 988
f 969 991 971
f 991 969 968
f 968 992 991
f 992 968 993
f 967 993 968
f 993 967 966
f 993 994 992
f 994 993 995
f 966 995 993
f 550 992 994
f 992 550 996
f 996 991 992
f 991 996 990
f 988 990 997
f 578 997 990
f 990 996 578
f 997 989 988
f 989 997 998
f 998 999 989
f 987 989 999
f 999 1000 987
f 986 987 1000
f 985 986 1001
f 1000 1001 986
f 984 985 1001
f 983 984 1002
f 1001 1002 984
f 982 983 1003
f 1002 1003 983
f 1003 1004 982
f 1005 982 1004
f 982 1005 980
f 1006 980 1005
f 981 980 1006
f 1004 721 1005
f 722 1005 721
f 1005 722 1006
f 720 721 1004
f 1004 1007 720
f 1007 1004 1003
f 1003 1008 1007
f 1008 1003 1002
f 1002 639 1008
f 639 1002 1001
f 638 1001 1000
f 1001 638 639
f 637 1000 999
f 1000 637 638
f 1009 999 998
f 999 1009 637
f 998 580 1009
f 580 998 577
f 577 998 997
f 997 578 577
f 549 578 996
f 996 550 549
f 994 521 550
f 521 994 495
f 995 495 994
f 495 995 493
f 493 1010 464
f 1010 493 995
f 995 966 1010
f 465 1010 966
f 465 464 1010
f 580 579 610
f 610 1009 580
f 1009 610 609
f 609 637 1009
f 640 1008 639
f 695 1007 1008
f 1008 640 695
f 695 720 1007
f 641 695 640
f 1011 1006 722
f 1006 1012 981
f 1012 1006 1011
f 722 723 1011
f 750 1011 723
f 1011 1013 1012
f 1013 1011 750
f 1014 1012 1013
f 1015 981 1012
f 1012 1014 1015
f 981 1015 979
f 930 979 1015
f 1015 931 930
f 931 1015 1014
f 1013 1016 1014
f 1014 1017 931
f 1017 1014 1016
f 750 751 1013
f 1016 1013 751
f 751 1018 1016
f 1016 838 1017
f 838 1016 1018
f 839 1017 838
f 839 931 1017
f 1018 837 838
f 1018 751 752
f 837 1018 780
f 752 780 1018
f 979 930 929
f 374 376 920
f 346 374 919
f 919 374 920
f 260 879 259
f 230 259 879
f 879 880 230
f 259 230 231
f 205 230 880
f 1019 880 878
f 880 1019 205
f 202 205 1019
f 878 877 1019
f 203 1019 877
f 1019 203 202
f 877 853 203
f 199 203 853
f 853 1020 199
f 853 851 1020
f 199 1020 200
f 1020 851 200
f 824 200 851
f 200 822 1021
f 200 1021 171
f 822 200 824
f 823 1021 822
f 1021 823 1022
f 1022 171 1021
f 171 1022 170
f 1022 823 143
f 143 142 1022
f 170 1022 142
f 143 797 141
f 140 797 1023
f 797 140 141
f 796 1023 797
f 139 140 116
f 1023 116 140
f 116 1023 1024
f 1025 1024 1023
f 1023 796 1025
f 794 1025 796
f 1024 1025 1026
f 1027 1026 1025
f 1025 794 1027
f 116 1024 115
f 115 1024 1026
f 113 115 1026
f 1028 1026 1027
f 1026 1028 113
f 1027 1029 1028
f 1029 1027 795
f 795 1027 794
f 113 1028 114
f 1030 114 1028
f 1028 1029 1030
f 1031 1030 1029
f 795 1032 1029
f 1029 1032 1031
f 1032 795 767
f 1033 1031 1032
f 1032 766 1033
f 767 766 1032
f 1034 1030 1031
f 1031 1035 1034
f 1035 1031 1033
f 1036 114 1030
f 1030 1034 1036
f 114 1036 112
f 112 1036 75
f 1036 1034 75
f 75 1034 1035
f 1035 1037 75
f 1033 1037 1035
f 1037 1033 1038
f 1038 1033 766
f 766 765 1038
f 1038 1039 1037
f 1039 1038 737
f 737 1038 765
f 1037 1039 75
f 1039 736 75
f 737 736 1039
f 1040 1041 34
f 55 1042 34
f 34 1042 1043
f 47 34 1043
f 1044 4 34
f 34 1041 1045
f 661 1046 34
f 34 1047 1040
f 34 1048 1047
f 34 1049 1048
f 34 1050 1049
f 34 1051 1050
f 1052 1051 34
f 1053 1052 34
f 34 1046 1053
f 34 1054 1044
f 1055 1054 34
f 34 1056 1055
f 1057 1056 34
f 1058 1057 34
f 1059 1058 34
f 34 1045 1059
f 1040 1060 1061
f 1060 1040 1047
f 1061 1041 1040
f 1041 1061 1062
f 1062 1045 1041
f 1063 1059 1045
f 1045 1062 1063
f 1059 1063 1064
f 1064 1058 1059
f 1065 1057 1058
f 1058 1064 1065
f 1066 1056 1057
f 1057 1065 1066
f 1067 1055 1056
f 1056 1066 1067
f 1068 1054 1055
f 1055 1067 1068
f 1068 1044 1054
f 1044 1068 1069
f 1069 1068 1070
f 1071 1070 1068
f 1068 1067 1071
f 1072 1071 1067
f 1067 1066 1072
f 1066 1073 1072
f 1073 1066 1065
f 1065 1074 1073
f 1074 1065 1064
f 1064 1075 1074
f 1075 1064 1063
f 1063 1076 1075
f 1076 1063 1062
f 1062 1077 1076
f 1077 1062 1061
f 1078 1061 1060
f 1061 1078 1077
f 1060 1079 1078
f 1079 1060 1080
f 1047 1080 1060
f 1081 1078 1079
f 1078 1081 1082
f 1082 1077 1078
f 1082 1076 1077
f 1083 1075 1076
f 1076 1082 1083
f 1084 1074 1075
f 1075 1083 1084
f 1085 1073 1074
f 1074 1084 1085
f 1086 1072 1073
f 1073 1085 1086
f 1087 1071 1072
f 1072 1086 1087
f 1088 1070 1071
f 1071 1087 1088
f 1070 1089 1069
f 1090 1089 1070
f 1070 1088 1090
f 1091 1069 1089
f 1092 1069 1091
f 1069 1092 1044
f 1089 1093 1091
f 1094 1093 1089
f 1089 1090 1094
f 1090 1088 1095
f 1095 1096 1090
f 1094 1090 1096
f 1088 1087 1097
f 1097 1095 1088
f 1087 1086 1098
f 1098 1097 1087
f 1098 1086 1099
f 1086 1085 1099
f 1100 1099 1085
f 1084 1100 1085
f 1100 1084 1101
f 1084 1083 1102
f 1102 1101 1084
f 1103 1102 1083
f 1083 1082 1103
f 1082 1081 1104
f 1104 1103 1082
f 1105 1104 1081
f 1081 1106 1105
f 1079 1106 1081
f 1105 1103 1104
f 1103 1105 1107
f 1107 1108 1103
f 1109 1103 1110
f 1103 1109 1102
f 1110 1103 1108
f 1101 1102 1109
f 1109 1111 1101
f 1101 1111 1100
f 1100 1112 1099
f 1112 1100 1111
f 1099 1112 1098
f 1097 1098 1112
f 1113 1097 1114
f 1112 1114 1097
f 1097 1113 1095
f 1096 1095 1113
f 1096 1115 1094
f 1115 1096 1113
f 1116 1094 1115
f 1093 1094 1116
f 1116 1117 1093
f 1093 1117 1118
f 1118 1091 1093
f 1115 158 1116
f 156 1116 158
f 1117 1116 156
f 158 1115 186
f 1113 186 1115
f 1119 185 1113
f 186 1113 185
f 1114 1119 1113
f 1120 1121 1114
f 1119 1114 1121
f 1114 1112 1120
f 1120 1112 1122
f 1111 1122 1112
f 1123 1122 1111
f 1109 1123 1111
f 1110 1124 1109
f 1123 1109 1124
f 1125 1110 1108
f 1125 1124 1110
f 1108 1107 1126
f 1108 1127 1125
f 1127 1108 1126
f 1128 1126 1107
f 1129 1107 1105
f 1107 1129 1128
f 1126 1130 1127
f 1131 1126 1128
f 1126 1131 1130
f 1132 1125 1127
f 1127 1133 1132
f 1133 1127 1130
f 1124 1125 1134
f 1135 1134 1125
f 1125 1132 1135
f 1124 1134 1136
f 1136 1123 1124
f 1137 1122 1123
f 1123 1136 1137
f 1138 1120 1122
f 1122 1139 1138
f 1122 1137 1139
f 1120 1138 1140
f 1140 1121 1120
f 1121 1140 188
f 188 1119 1121
f 185 1119 188
f 188 1140 245
f 274 245 1140
f 1140 1138 274
f 1141 274 1138
f 1138 1139 1141
f 1141 1139 1137
f 1137 1142 1141
f 1142 1137 1136
f 1136 1143 1142
f 1143 1136 1134
f 1134 1135 1143
f 332 1143 1135
f 1135 1144 332
f 1144 1135 1132
f 1145 1132 1133
f 1132 1145 1144
f 1130 1146 1133
f 1133 1147 1145
f 1147 1133 1146
f 1146 1130 1131
f 1128 1148 1131
f 1131 1149 1146
f 1149 1131 1148
f 1148 1128 1150
f 1128 1151 1150
f 1151 1128 1129
f 1148 1152 1149
f 1152 1148 1153
f 1150 1153 1148
f 1154 1146 1149
f 1149 1155 1154
f 1155 1149 1152
f 1146 1154 1147
f 1156 1145 1147
f 1147 1157 1156
f 1157 1147 1154
f 1158 1144 1145
f 1145 1156 1158
f 333 332 1144
f 1144 1158 333
f 1143 332 331
f 331 1142 1143
f 302 1141 1142
f 1142 331 302
f 273 274 1141
f 1141 302 273
f 333 1158 334
f 1159 334 1158
f 1158 1156 1159
f 1156 1157 392
f 392 1159 1156
f 1154 421 1157
f 391 392 1157
f 1157 421 391
f 421 1154 1155
f 1152 450 1155
f 1155 420 421
f 420 1155 450
f 1153 451 1152
f 450 1152 451
f 1150 479 1153
f 451 1153 479
f 480 1150 1151
f 479 1150 480
f 1129 1160 1151
f 508 1151 1160
f 1151 508 480
f 1105 1161 1129
f 1162 1129 1161
f 1160 1129 1162
f 1160 1162 1163
f 1163 1164 1160
f 1160 1165 508
f 1165 1160 1164
f 534 508 1165
f 1165 1166 534
f 1164 1166 1165
f 1164 1167 1168
f 1167 1164 1163
f 1168 1166 1164
f 1169 1163 1162
f 1170 1163 1169
f 1163 1170 1167
f 1161 1169 1162
f 1161 1105 1106
f 1106 1169 1161
f 1169 1171 1170
f 1171 1169 1106
f 1172 1170 1171
f 1173 1167 1170
f 1170 1172 1173
f 1167 1173 1174
f 1174 1168 1167
f 1175 1176 1168
f 1166 1168 1176
f 1168 1174 1175
f 1176 535 1166
f 1166 535 534
f 1176 1175 1177
f 1177 536 1176
f 535 1176 536
f 1051 1175 1174
f 1175 1051 1052
f 1052 1177 1175
f 1050 1174 1173
f 1174 1050 1051
f 1049 1173 1172
f 1173 1049 1050
f 1048 1172 1080
f 1171 1080 1172
f 1172 1048 1049
f 1080 1171 1079
f 1106 1079 1171
f 1080 1047 1048
f 536 1177 563
f 1053 563 1177
f 1177 1052 1053
f 563 1053 1046
f 1046 562 563
f 562 1046 661
f 661 564 562
f 564 661 660
f 660 565 564
f 565 660 594
f 361 1159 392
f 1159 361 360
f 360 334 1159
f 156 1178 1117
f 156 129 1178
f 1117 1178 1179
f 1178 129 1180
f 1180 1179 1178
f 1179 1118 1117
f 1181 1118 1179
f 1179 1182 1181
f 1182 1179 1180
f 127 1180 129
f 1180 1183 1182
f 1183 1180 127
f 4 1182 1183
f 1181 1182 4
f 1184 1181 4
f 1118 1181 1184
f 1184 1091 1118
f 1092 1184 4
f 1091 1184 1092
f 4 654 2
f 1185 654 4
f 1186 1185 4
f 80 1186 4
f 4 1183 126
f 1044 1092 4
f 127 126 1183
f 1185 1186 20
f 21 20 1186
f 1186 80 21
f 654 1185 1187
f 1188 1187 1185
f 20 1188 1185
f 1189 653 654
f 1187 1190 654
f 1190 1189 654
f 1190 1187 1191
f 1188 1191 1187
f 1191 1188 2
f 1188 20 2
f 1192 2 46
f 1192 1193 2
f 2 1193 1194
f 1194 1191 2
f 1191 1194 1190
f 1189 1190 1194
f 653 1189 1193
f 1194 1193 1189
f 77 653 1192
f 1193 1192 653
f 76 1192 46
f 1192 76 77
f 46 651 47
f 46 65 1195
f 46 1195 1196
f 46 1196 1197
f 46 1197 73
f 64 47 651
f 651 1198 64
f 651 1199 1198
f 650 1199 651
f 1043 1200 47
f 1200 1201 47
f 47 1201 1202
f 1202 52 47
f 1043 1042 58
f 1200 1043 58
f 58 61 1200
f 1201 1200 61
f 1202 1201 62
f 61 62 1201
f 52 1202 62
f 62 50 52
f 53 52 50
f 50 49 53
f 54 53 49
f 49 44 54
f 56 58 1042
f 1042 55 56
f 1198 1199 1195
f 1196 1195 1199
f 1197 1196 1199
f 1199 650 1197
f 1195 65 1198
f 64 1198 65
f 650 652 1197
f 73 1197 652
f 652 74 73
f 22 21 80
