# XLeRobot camera CAD in SO101 gripper_link metres
v -0.01112408039 0.02432557088 -0.02853440839
v -0.005867648385 0.02420525671 -0.02556783643
v -0.006275424384 0.02421336609 -0.02478065585
v -0.006007683402 0.02620811174 -0.02534813439
v -0.006284899413 0.02621443206 -0.02448323348
v -0.00711580182 0.02424662167 -0.01533942029
v -0.007824117661 0.02425677442 -0.01582582693
v -0.006741695624 0.02424189897 -0.0146989237
v -0.006232104972 0.02421437925 -0.02389255626
v -0.008589973934 0.02426894632 -0.01587948678
v -0.005326053093 0.02619589654 -0.02593150618
v -0.004965325978 0.02418969405 -0.02606607684
v -0.006016426427 0.02620539212 -0.02675105449
v -0.00712422557 0.02622574787 -0.02543333221
v -0.006736089107 0.02621813898 -0.02611284608
v -0.007182070974 0.02623068614 -0.02355611635
v -0.00607722984 0.02621284729 -0.02360555461
v -0.007312948075 0.02623119145 -0.02428183687
v -0.007286349053 0.0262296015 -0.02482567041
v -0.006680382712 0.02424239066 -0.01415953393
v -0.005824183788 0.02420950923 -0.02325274669
v -0.006792465436 0.02224277092 -0.01474462233
v -0.006713868767 0.02224315557 -0.01401698824
v -0.007238483337 0.02224832728 -0.01543251578
v -0.007954970925 0.02225911758 -0.0158292824
v -0.008572979952 0.02226866778 -0.01588176627
v -0.00910855568 0.02227746661 -0.01573884993
v -0.009273079692 0.02428039863 -0.01565278663
v -0.008414128776 0.02226962602 -0.0141781061
v -0.006875417899 0.02224687403 -0.01343250226
v -0.006831208115 0.02424625736 -0.01340090951
v 0.001991906847 0.02408497041 -0.02357183171
v -0.004106516347 0.02418291151 -0.0228507046
v 0.00243605546 0.02407865936 -0.02308370883
v -0.004737265403 0.02419331935 -0.02276590619
v -0.005317107727 0.02420229497 -0.02289384341
v -0.005446107086 0.02620412329 -0.0229741116
v -0.006749168534 0.02622549942 -0.02274793173
v -0.007062541531 0.02822930721 -0.02331329482
v -0.007270530432 0.02823097499 -0.02412909285
v -0.007272993704 0.02822980701 -0.02469031212
v -0.007168564069 0.02822702993 -0.02521508822
v -0.01106885374 0.02828763309 -0.0273726694
v -0.006578440718 0.02822327077 -0.02259407345
v -0.0111276304 0.02831634039 -0.01138746368
v -0.006313849667 0.02621946658 -0.02232495564
v -0.004484831923 0.02618947006 -0.02273327913
v -0.005700672265 0.02621063249 -0.02193023657
v -0.003417092003 0.02417109344 -0.02328337712
v -0.003629330983 0.02617517285 -0.02307091504
v 0.001802538656 0.02408626284 -0.02421999313
v 0.001872414932 0.02608611539 -0.02393957379
v 0.002459916648 0.02607854158 -0.0230613999
v 0.002943414546 0.02407103757 -0.02280356456
v 0.003190858583 0.02606754803 -0.02275362268
v 0.002724414673 0.02607704851 -0.0217905201
v 0.001934847039 0.02608893296 -0.02215739962
v 0.001491288853 0.02609502038 -0.02257177377
v 0.001071013109 0.02610060264 -0.02314837861
v 0.0008065627639 0.02610295582 -0.02396856416
v 0.001900221132 0.02608328188 -0.02497235092
v 0.001897515156 0.0240834873 -0.02502819464
v 0.003112669284 0.024061839 -0.02602810659
v -0.003115796104 0.02416531101 -0.02379547457
v -0.003082870498 0.0261650638 -0.02372613638
v 0.002395328079 0.02407401424 -0.02567520311
v -0.002809765849 0.02616374305 -0.02239113039
v -0.003612238787 0.02617757665 -0.02189506411
v -0.004475366112 0.02619161262 -0.02171861008
v -0.005049291059 0.02620061456 -0.0217548347
v -0.005557003284 0.02820848766 -0.02190430263
v -0.004982895051 0.02819967324 -0.02174597758
v -0.006047211204 0.02821582004 -0.02215443972
v -0.004260575031 0.028188285 -0.02173817233
v -0.003404723995 0.02817407144 -0.02197297463
v -0.002249903699 0.02615338757 -0.02308516595
v -0.002684612274 0.02816161448 -0.02248601043
v -0.002949852906 0.02616102018 -0.02460650609
v -0.002979898484 0.02416190763 -0.02432579781
v -0.001973152974 0.02614744105 -0.02381696937
v 0.003986091334 0.0240479139 -0.02597383451
v 0.006463256134 0.02400414787 -0.02802646061
v 0.003369986069 0.02605767928 -0.02606397302
v -0.003176844977 0.02416350532 -0.0252489403
v 0.002441405096 0.02607303887 -0.02571064929
v 0.00249116651 0.02606994829 -0.02691296893
v 0.00202099958 0.02607788157 -0.02666125471
v 0.001546842446 0.02608623975 -0.02629106092
v 0.003345161176 0.02605595737 -0.02710288677
v 0.00424088152 0.02604426064 -0.02588084322
v 0.004306397247 0.02604092504 -0.02698216392
v 0.004697491392 0.02403742093 -0.02550482739
v 0.004893898771 0.02603510903 -0.02530155858
v 0.00521276581 0.02602758541 -0.02649264606
v 0.004849481718 0.02803293446 -0.02675670862
v 0.004029411306 0.02804525847 -0.02706246395
v 0.003173193429 0.02805878064 -0.02708683573
v 0.002395433574 0.02807169385 -0.02686059621
v 0.001873435868 0.02808069324 -0.02654174555
v 0.001034671801 0.0260959555 -0.02554781934
v 0.001399328847 0.02808905377 -0.02609168634
v -0.001877393692 0.02814424659 -0.02466368678
v -0.002028847903 0.0281452948 -0.02531327609
v -0.002311203601 0.02814841255 -0.0259175786
v 0.006526787494 0.02800363505 -0.02803497508
v 0.005469203922 0.02802415271 -0.02627427142
v 0.005792511621 0.02601974321 -0.02581786479
v 0.005107877777 0.02403294651 -0.02471262523
v 0.005159977236 0.02603279673 -0.0244151944
v 0.006087723952 0.02601656167 -0.02513424573
v 0.005002090555 0.0240361391 -0.0237590419
v 0.01580845783 0.02389626638 -0.008991139872
v 0.006205316021 0.02601630675 -0.02440579913
v 0.004833276162 0.02604006174 -0.02337235515
v 0.005977188616 0.0280176131 -0.02555106348
v 0.006195945146 0.02801583177 -0.02474919964
v -0.004942230626 0.02818781111 -0.02711338489
v 0.006502619252 0.02800270297 -0.0280841286
v -0.004233640189 0.02817643501 -0.02710747677
v 0.01139778235 0.02794001812 -0.01810485285
v 0.006052945561 0.02757366205 -0.02898473534
v -0.00353679517 0.02816566313 -0.02693845341
v -0.002856185073 0.0281559062 -0.02651115061
v -0.002515984335 0.02615096996 -0.026147403
v -0.002038992427 0.0261453938 -0.02528752762
v -0.001905833835 0.02614491065 -0.02447823944
v -0.003294048834 0.02616489306 -0.02544874635
v -0.003202455596 0.02616078537 -0.02673672935
v -0.004052260502 0.02617559385 -0.02602320416
v -0.003773980752 0.02616926759 -0.0269910363
v -0.00446487224 0.02617992979 -0.02713742983
v -0.005637186218 0.02819914035 -0.02691515815
v -0.005323907628 0.02619373597 -0.02703476842
v -0.004749000767 0.02618654672 -0.02607123932
v -0.004188078955 0.02417780023 -0.02601274336
v -0.003689220953 0.02417002277 -0.02577424846
v -0.001948669695 0.02814719522 -0.02375744611
v 0.002288766683 0.02808384341 -0.02197315539
v -0.002250180041 0.0281534003 -0.02305045227
v 0.001618758668 0.02809341941 -0.02247220028
v 0.001191319093 0.02809894372 -0.02300498094
v 0.0008939778728 0.02810222011 -0.02372210339
v 0.0008112214243 0.02810167972 -0.02458142773
v 0.0009950110199 0.0280969818 -0.02539523259
v 0.00301512019 0.02807273179 -0.02174013794
v 0.0153402175 0.0262388481 -0.01002527073
v 0.006005789474 0.02457593919 -0.02897694863
v 0.01503010058 0.02792158047 -0.01071019731
v 0.006040193211 0.02802112409 -0.02342234124
v 0.005649519331 0.02802890737 -0.02271532317
v 0.006221365714 0.02801663271 -0.02415446808
v 0.003712271768 0.02806165864 -0.02169048409
v 0.005098053005 0.02803865774 -0.02220111214
v 0.004549630636 0.02804802637 -0.02188887451
v 0.003544787723 0.02606435781 -0.02167850713
v 0.004025081662 0.02605417133 -0.02279079978
v 0.004416508353 0.02605025276 -0.02184130337
v 0.005099586068 0.02603850982 -0.02221480503
v 0.005535995901 0.0260306293 -0.02263318139
v 0.005896942453 0.02602390001 -0.02313806849
v 0.006092638942 0.02601955753 -0.02368566589
v 0.004461220475 0.02404606963 -0.02304624895
v 0.003711184223 0.02405913255 -0.0227377147
v 0.02029539717 0.02383820324 -0.009165027424
v 0.02028423183 0.02387212096 -0.006489301403
v -0.01120103415 0.02432497042 -0.009092966149
v 0.01578428626 0.02389774605 -0.009040301677
v -0.007452686883 0.0242576293 -0.01273167039
v -0.007214423317 0.0222532233 -0.01296571645
v -0.007791389463 0.02226299568 -0.01257612549
v -0.008266054137 0.02427099635 -0.01247287275
v -0.01470329881 0.02443199067 -0.006706672075
v -0.01469768097 0.0244411961 -0.009525161552
v -0.01120079169 0.02432606247 -0.009142035879
v -0.01011376294 0.02429702937 -0.01400845068
v -0.009103635255 0.02428400145 -0.01260590676
v -0.009793192568 0.02429381316 -0.01320558907
v -0.01469869211 0.02494673729 -0.006178288912
v 0.02029372034 0.02456912528 -0.005989755307
v 0.02048690705 0.03581452521 -0.009992059394
v 0.02047000685 0.03576123299 -0.005973659791
v -0.0145200065 0.03635369534 -0.00609864962
v -0.01450537613 0.03634143776 -0.01012735663
v -0.01120031993 0.02433546128 -0.00923971838
v -0.01120055304 0.02432956302 -0.009190993212
v -0.01119184295 0.02470255667 -0.009954729292
v -0.01468561093 0.02507394321 -0.01007540769
v -0.01119874674 0.02438495306 -0.00946146856
v -0.0110572046 0.02792817967 -0.02892535241
v -0.01107585673 0.02736338721 -0.02909678114
v -0.01112844256 0.02836562049 -0.0107503178
v -0.0111717349 0.02593572166 -0.01011568964
v -0.01111097672 0.02495119487 -0.02905528277
v -0.01112260684 0.02884107331 -0.01013380799
v 0.01535102198 0.02840289222 -0.01006004093
v -0.0144642451 0.03918971695 -0.008963166418
v 0.02052777285 0.03867781888 -0.008804521688
v 0.0203128088 0.02472928187 -0.009973394143
v 0.02048131272 0.03643859609 -0.005409605641
v -0.01425382851 0.05654809736 0.008291939825
v -0.01428505739 0.05580015446 0.01319904863
v 0.02073850707 0.05602934513 0.008454643961
v 0.02070717947 0.05505504141 0.01315372652
v -0.01427225206 0.05654347478 0.01346912496
v -0.01424346422 0.05719591019 0.008524315392
v 0.02070964869 0.05549809311 0.0135027882
v 0.02074601188 0.05668101343 0.008637225004
v 0.02072116095 0.05616311135 0.01352473084
v 0.003228029953 0.05658145355 0.013393637
v -0.009332290156 0.06086978853 0.01142881996
v -0.01039009528 0.06053553417 0.01158933301
v -0.0110400433 0.06094266646 0.01140069959
v -0.01120818831 0.0616449679 0.01107148107
v -0.009020175213 0.07095975103 0.006696553935
v -0.01380791273 0.08303389149 0.001052508228
v -0.01414920419 0.0626928243 0.005952965333
v 0.003257670972 0.05726795678 0.008432788643
v -0.009592862542 0.05890246938 0.007715177456
v -0.0111599851 0.06004579248 0.007183743208
v -0.01112266949 0.05919969906 0.007580215789
v -0.01042371828 0.05878375949 0.007772424988
v 0.01624739099 0.05842321552 0.007843531218
v 0.0173015546 0.0584489731 0.007827238586
v 0.02084609907 0.06213735994 0.006084897859
v 0.01776094918 0.0589841681 0.00757494304
v 0.01775846055 0.05954681037 0.007311247935
v 0.01699093688 0.06011090583 0.01168806123
v 0.01598731826 0.06042435858 0.01154301279
v 0.02118745177 0.08247842816 0.001184441664
v 0.01759369916 0.06046610694 0.01151903333
v 0.017871312 0.06119176302 0.01117747757
v -0.009179193828 0.06160896626 0.01108149861
v 0.003398366436 0.06623503622 0.008866388875
v -0.009206665895 0.05951167766 0.007426358419
v -0.01065217409 0.06232952581 0.01074915283
v -0.004520759405 0.07088834517 0.006713516551
v -0.009034104255 0.06917666283 0.002893874613
v -0.008924345326 0.07639135048 0.004149294613
v -0.01056716403 0.06060418358 0.006920198743
v -0.004600566786 0.06636200275 0.00883623284
v -0.009651429456 0.06227302325 0.01077233635
v -0.00983762178 0.06053756335 0.006947952265
v -0.009348150834 0.06022008623 0.007095176134
v -0.004614557209 0.06457890027 0.005033553392
v 0.0113972994 0.06610808381 0.008896544515
v 0.003384376211 0.06445194773 0.005063709297
v 0.01579787838 0.06104969333 0.01125211366
v 0.01579444549 0.05907053891 0.007541329206
v 0.01732037503 0.06008218292 0.007062510588
v 0.01741839748 0.06178863275 0.01089943623
v 0.01649044558 0.06196430503 0.01082103805
v 0.01648961265 0.06012731538 0.007043605686
v 0.01605030326 0.06163395494 0.01097734638
v 0.01594659125 0.05984646954 0.007178932286
v 0.00334844776 0.06241509233 0.006018930968
v 0.01583749524 0.06125874618 0.01115412064
v 0.01586601428 0.06134518035 0.01111347969
v 0.01585056429 0.06130228976 0.01113365314
v 0.01590387114 0.06142862554 0.01107422073
v 0.01588378298 0.0613873285 0.01109365204
v 0.01595076022 0.06150819789 0.01103672929
v 0.0159262171 0.06146893666 0.01105522806
v 0.01597743961 0.06154630493 0.01101876496
v 0.01597652255 0.07056300407 0.00679079178
v 0.01147710676 0.07063440997 0.006773829056
v 0.01138330931 0.06432498025 0.005093865221
v -0.008938274229 0.07460826404 0.0003466158882
v -0.01373179223 0.08624162239 -0.005089356987
v -0.004534688331 0.06910524107 0.002910837082
v -0.00442492952 0.07631994462 0.004166257251
v -0.004438920374 0.07453684297 0.0003635783335
v -0.01005012543 0.08320909623 -0.003681643759
v -0.01065640466 0.08367544782 -0.003898364193
v 0.02126367089 0.0861182752 -0.005037812279
v 0.003761841262 0.08584882349 -0.004970785886
v -0.01372131105 0.08687107882 -0.005125790508
v -0.009561190939 0.08505372445 -0.004548894332
v -0.01026294203 0.08492711289 -0.004486832041
v -0.01076835078 0.08442878919 -0.004250971451
v -0.01059647911 0.08540189677 -7.006022699e-05
v -0.01077140522 0.0858821523 -0.0002941909086
v -0.00928410033 0.0833168867 -0.003735345624
v -0.004359051761 0.07906316882 -0.001759137951
v -0.009929437044 0.08496621725 0.0001318113724
v -0.004345061793 0.08084627206 0.00204354221
v 0.003653871589 0.08071930392 0.002073697183
v 0.003689800223 0.08275616025 0.001118475629
v 0.003639881546 0.07893621637 -0.001728982278
v -0.008821846852 0.08378218525 -0.003955009873
v -0.0092208522 0.08513356466 5.083494229e-05
v -0.008763990076 0.08560449013 -0.0001716739918
v -0.0106392186 0.08636034073 -0.0005191982931
v -0.01370943838 0.08820721909 -0.001389090704
v -0.01019019414 0.08676899594 -0.0007127710168
v -0.009503642156 0.0868013616 -0.0007300199244
v -0.008901948863 0.08648194171 -0.0005840784809
v -0.008819222682 0.08457215408 -0.004325376297
v 0.02127727297 0.08769673516 -0.001287330111
v -0.0137065831 0.08853456044 -0.002130891477
v 0.003775770057 0.08763190826 -0.001168107975
v 0.01165280466 0.08059235116 0.002103853713
v 0.01656267883 0.08474709836 0.0001359687493
v 0.01619177908 0.08566145892 -0.0002900317528
v 0.01648793102 0.08442040447 -0.004347604347
v 0.01163881476 0.0788092495 -0.001698825363
v 0.0175233381 0.08463523402 -0.004451378657
v 0.02125949192 0.08557108926 -0.004904819258
v 0.01750107566 0.0864312051 -0.0006562663318
v 0.01666275196 0.08624966554 -0.0005677908563
v 0.01626950377 0.08331044533 -0.003827262067
v 0.02128499651 0.0879555372 -0.002074993468
v 0.0181255021 0.08497505566 2.516173443e-05
v 0.01820795883 0.08586509327 -0.0003931841314
v 0.02127653252 0.08680936302 -0.004594991029
v -0.01371569918 0.08736514207 -0.004725590146
v 0.01811200405 0.08415673256 -0.004229625245
v 0.01822811257 0.08347891285 -0.003912304688
v 0.01778315724 0.08292521208 -0.003651648144
v 0.01738514198 0.08456454287 0.000220374426
v 0.01709261949 0.0827748213 -0.003578098705
v 0.01596253156 0.06877990065 0.002988112287
v 0.01605836157 0.07421150182 0.0004408536712
v 0.01155894654 0.07428292202 0.0004238898818
v 0.01607235149 0.07599460357 0.004243532531
v 0.01157293664 0.0760660094 0.004226569788
v 0.01146317769 0.0688513217 0.002971149896
v 0.01576029239 0.02390163667 -0.00908934615
v 0.01575732391 0.02390227451 -0.009095382304
v 0.01570532513 0.02391982903 -0.009201957138
v 0.01568938232 0.02392761052 -0.009234620009
v 0.02029721591 0.02410250843 -0.00974742923
v 0.01566634472 0.02394096648 -0.009282037741
v 0.01571278044 0.02391657677 -0.0091866235
v 0.0156799248 0.02393277507 -0.009254054115
v 0.01578380089 0.02389780473 -0.009041367904
v 0.01573641722 0.02390792242 -0.009138160578
v 0.01573114464 0.02390964785 -0.009149000272
v 0.01565512741 0.0239483785 -0.009305099551
v 0.01564366663 0.02395661274 -0.009328759261
v 0.01563099264 0.02396650321 -0.009354917508
v 0.01562141003 0.02397453539 -0.009374674558
v 0.01560758122 0.02398707502 -0.009403348601
v 0.01559969542 0.02399467328 -0.009419671144
v 0.01558489294 0.02400990826 -0.009450248254
v 0.01557846172 0.02401699521 -0.00946364269
v 0.01556311009 0.02403489744 -0.009495493762
v 0.01555783126 0.02404142749 -0.009506480778
v 0.01554223342 0.0240618747 -0.009538977667
v 0.015537864 0.02406792327 -0.009548082905
v 0.01552226236 0.02409068977 -0.009580607285
v 0.01551855945 0.0240964056 -0.009588349938
v 0.01550331961 0.02412121881 -0.009620316113
v 0.01550004029 0.02412681381 -0.009627181667
v 0.01548528257 0.02415327866 -0.009658042925
v 0.01548224496 0.0241590743 -0.009664486251
v 0.01546942691 0.02418452768 -0.009691489308
v 0.01546529589 0.02419313991 -0.009700183584
v 0.0154505289 0.02422584348 -0.009731422322
v 0.01544919202 0.02422885684 -0.009734160838
v 0.01543575729 0.02426182886 -0.009762751111
v 0.01543405525 0.02426619751 -0.009766358101
v 0.01542195291 0.02429882587 -0.009792022792
v 0.01541982467 0.02430505341 -0.009796691637
v 0.0154092386 0.02433668365 -0.009819231889
v 0.01540656114 0.0243453495 -0.009825090319
v 0.01539755214 0.02437531024 -0.00984438654
v 0.01539426414 0.02438694841 -0.009851485361
v 0.01538689491 0.02441459947 -0.009867506935
v 0.01538305732 0.02442978975 -0.009875814793
v 0.01537720648 0.02445447356 -0.009888612904
v 0.01537287758 0.02447374997 -0.009898018155
v 0.01536848578 0.0244948261 -0.009907728817
v 0.01536384723 0.02451872269 -0.009918043516
v 0.01536073326 0.02453559533 -0.009924881568
v 0.01534335286 0.02465868689 -0.00996458593
v 0.01534323014 0.02465966405 -0.009964828301
v 0.01533350514 0.02475424731 -0.009987726957
v 0.01535584577 0.0245646183 -0.009935840307
v 0.01535395007 0.02457669178 -0.009940098667
v 0.0153490549 0.02461131371 -0.00995136652
v 0.01534813628 0.02461806894 -0.009953405019
v 0.006265155516 0.02405095723 -0.02842966894
v 0.006452230934 0.0240045275 -0.02804893615
v -0.009884801177 0.02429137757 -0.01502115217
v 0.006323076141 0.02791749715 -0.02844680426
v 0.006314970162 0.02791008211 -0.02846309681
v 0.006274389322 0.02786847149 -0.02854364966
v -0.01106345833 0.02825922845 -0.02833789659
v 0.006326015834 0.02791994824 -0.02844008213
v 0.006502074228 0.02800267044 -0.02808519483
v 0.006478515465 0.02799937535 -0.02813315897
v 0.006475487298 0.02799879445 -0.02813919221
v 0.006454414708 0.02799365413 -0.02818194711
v 0.006449086132 0.02799205145 -0.02819277927
v 0.006430499157 0.02798553739 -0.0282303754
v 0.006422931493 0.02798245685 -0.02824569505
v 0.00640676868 0.02797505663 -0.02827832545
v 0.006397205454 0.02797010288 -0.02829773774
v 0.006383344804 0.02796224284 -0.0283256861
v 0.006371906572 0.02795508147 -0.02834872118
v 0.006360166489 0.02794711097 -0.02837234648
v -0.006829387513 0.02822009339 -0.0259481637
v -0.006203970978 0.028208759 -0.0265985601
v -0.009720667842 0.02228788844 -0.01529981942
v -0.0101294259 0.02229627672 -0.01436789392
v -0.01000385528 0.02229606769 -0.01355105181
v -0.009630371104 0.02229150729 -0.0129774258
v -0.009050502749 0.02228311659 -0.01259056887
v -0.008429954679 0.02227363119 -0.01246942548
v 0.0008031319296 0.02610126642 -0.02477507074
f 1 2 3
f 4 5 3
f 6 7 3
f 3 2 4
f 8 6 3
f 9 3 5
f 8 3 9
f 3 7 10
f 10 1 3
f 11 4 2
f 1 12 2
f 2 12 11
f 4 11 13
f 14 5 4
f 4 15 14
f 13 15 4
f 16 17 5
f 5 17 9
f 18 16 5
f 19 18 5
f 5 14 19
f 20 9 21
f 21 9 17
f 9 20 8
f 22 6 8
f 23 8 20
f 8 23 22
f 24 7 6
f 6 22 24
f 7 24 25
f 7 25 26
f 26 10 7
f 10 26 27
f 10 28 1
f 27 28 10
f 27 26 29
f 26 25 29
f 25 24 29
f 24 22 29
f 22 23 29
f 23 30 29
f 31 30 23
f 23 20 31
f 32 20 33
f 32 34 20
f 31 20 34
f 20 35 33
f 21 36 20
f 20 36 35
f 17 37 21
f 36 21 37
f 37 17 38
f 17 16 38
f 38 16 39
f 40 39 16
f 16 18 40
f 18 19 41
f 41 40 18
f 42 41 19
f 19 14 42
f 40 41 43
f 41 42 43
f 39 40 43
f 39 44 38
f 43 45 39
f 45 44 39
f 37 38 46
f 46 38 44
f 47 37 48
f 37 47 36
f 37 46 48
f 35 36 47
f 33 35 47
f 49 33 50
f 51 33 49
f 47 50 33
f 51 32 33
f 32 51 52
f 52 53 32
f 34 32 53
f 34 54 31
f 54 34 53
f 55 53 56
f 53 55 54
f 53 57 56
f 53 58 57
f 53 59 58
f 59 53 52
f 52 60 59
f 60 52 61
f 61 52 51
f 49 62 51
f 51 62 61
f 63 49 64
f 64 49 65
f 66 62 49
f 49 63 66
f 50 65 49
f 65 50 67
f 50 47 68
f 68 67 50
f 47 69 68
f 48 70 47
f 47 70 69
f 71 72 48
f 48 46 73
f 70 48 72
f 73 71 48
f 44 73 46
f 73 44 45
f 71 73 45
f 72 71 45
f 45 74 72
f 72 74 69
f 69 70 72
f 68 69 74
f 74 75 68
f 67 68 75
f 67 76 65
f 76 67 77
f 75 77 67
f 65 78 79
f 78 65 80
f 79 64 65
f 76 80 65
f 64 79 63
f 81 63 82
f 63 81 83
f 84 82 63
f 63 79 84
f 66 63 85
f 83 85 63
f 62 66 85
f 85 61 62
f 85 83 86
f 85 87 88
f 86 87 85
f 61 85 88
f 89 86 83
f 83 90 91
f 90 83 81
f 91 89 83
f 82 92 81
f 81 92 90
f 93 90 92
f 94 91 90
f 94 90 93
f 95 96 91
f 91 94 95
f 89 91 96
f 96 97 89
f 86 89 97
f 87 86 98
f 97 98 86
f 88 87 99
f 98 99 87
f 61 88 100
f 100 88 101
f 99 101 88
f 101 99 102
f 103 99 98
f 103 102 99
f 104 103 98
f 104 98 97
f 97 105 104
f 105 97 96
f 96 95 105
f 106 95 94
f 95 106 105
f 94 107 106
f 93 107 94
f 92 108 93
f 109 93 108
f 93 110 107
f 93 109 110
f 108 92 82
f 108 111 109
f 112 111 108
f 108 82 112
f 109 113 110
f 113 109 114
f 114 109 111
f 107 110 115
f 110 113 116
f 116 115 110
f 115 106 107
f 105 106 115
f 117 105 43
f 43 105 118
f 117 119 105
f 120 105 115
f 105 120 121
f 119 122 105
f 118 105 121
f 123 104 105
f 105 122 123
f 104 123 124
f 124 125 104
f 103 104 125
f 102 103 125
f 125 126 102
f 125 127 78
f 126 125 78
f 125 124 127
f 124 128 129
f 129 127 124
f 128 124 123
f 123 122 128
f 130 128 122
f 122 119 131
f 131 130 122
f 119 117 131
f 132 117 43
f 117 132 133
f 133 131 117
f 130 131 129
f 131 133 11
f 11 134 131
f 134 129 131
f 135 136 129
f 128 130 129
f 129 134 12
f 12 135 129
f 127 129 136
f 136 84 127
f 78 127 84
f 78 80 126
f 84 79 78
f 137 102 126
f 126 80 137
f 80 76 137
f 102 137 138
f 138 137 139
f 139 137 76
f 138 140 102
f 141 142 102
f 142 143 102
f 140 141 102
f 102 144 101
f 102 143 144
f 56 57 138
f 140 138 57
f 138 139 120
f 138 145 56
f 120 145 138
f 77 139 76
f 139 77 120
f 120 77 75
f 120 146 147
f 120 148 146
f 45 148 120
f 147 121 120
f 45 120 75
f 115 116 120
f 120 149 150
f 120 116 151
f 152 145 120
f 153 154 120
f 154 152 120
f 151 149 120
f 150 153 120
f 155 56 145
f 145 152 155
f 55 56 155
f 155 156 55
f 156 155 157
f 157 155 152
f 152 154 157
f 154 153 158
f 158 157 154
f 153 150 158
f 159 158 150
f 150 149 160
f 160 159 150
f 161 160 149
f 149 151 161
f 113 161 151
f 151 116 113
f 114 160 161
f 114 161 113
f 159 160 114
f 114 158 159
f 158 114 156
f 156 157 158
f 162 163 156
f 55 156 163
f 156 114 162
f 163 54 55
f 112 163 162
f 31 54 163
f 163 112 31
f 162 111 112
f 111 162 114
f 112 164 165
f 165 166 112
f 112 167 164
f 168 112 166
f 167 112 82
f 112 168 31
f 31 169 30
f 169 31 168
f 170 168 171
f 168 170 169
f 166 171 168
f 166 165 172
f 172 173 166
f 1 166 174
f 175 166 1
f 166 176 171
f 173 174 166
f 166 175 177
f 166 177 176
f 178 165 179
f 165 178 172
f 180 181 165
f 165 164 180
f 165 181 179
f 178 182 172
f 172 182 183
f 183 173 172
f 173 184 185
f 186 173 187
f 173 188 184
f 173 186 188
f 173 185 174
f 173 183 187
f 174 185 1
f 185 184 1
f 1 184 188
f 188 186 1
f 189 190 186
f 191 186 192
f 186 191 45
f 186 45 43
f 187 192 186
f 186 193 1
f 189 186 43
f 190 193 186
f 187 183 194
f 194 192 187
f 183 180 195
f 195 194 183
f 180 183 196
f 196 183 182
f 181 180 197
f 196 197 180
f 195 180 198
f 198 180 164
f 199 181 197
f 179 181 182
f 181 199 182
f 182 178 179
f 200 196 182
f 182 201 200
f 201 182 199
f 197 196 200
f 200 202 197
f 199 197 202
f 199 203 201
f 202 203 199
f 201 204 205
f 206 204 201
f 201 203 206
f 201 205 200
f 200 205 202
f 203 202 207
f 207 202 205
f 206 203 207
f 208 206 207
f 204 206 208
f 204 208 209
f 204 210 211
f 204 212 213
f 210 204 209
f 213 214 204
f 215 204 214
f 211 212 204
f 216 205 204
f 216 204 215
f 217 205 218
f 205 216 219
f 217 207 205
f 205 220 221
f 219 220 205
f 221 218 205
f 222 223 207
f 208 207 224
f 207 225 226
f 222 207 217
f 226 224 207
f 207 223 225
f 208 227 228
f 229 208 224
f 228 209 208
f 230 227 208
f 231 230 208
f 231 208 229
f 232 209 233
f 232 210 209
f 228 233 209
f 234 218 210
f 210 232 234
f 211 210 218
f 221 220 211
f 212 211 220
f 218 221 211
f 213 212 220
f 220 219 213
f 214 213 235
f 235 213 219
f 235 236 214
f 237 214 236
f 238 214 237
f 214 238 215
f 219 239 235
f 235 240 236
f 240 235 241
f 241 235 239
f 216 239 219
f 242 239 216
f 239 242 241
f 240 241 232
f 232 241 243
f 242 243 241
f 243 234 232
f 232 233 240
f 244 240 233
f 228 245 233
f 246 233 245
f 233 246 244
f 228 247 245
f 228 227 222
f 247 228 248
f 222 248 228
f 217 248 222
f 223 222 227
f 227 230 223
f 225 223 230
f 230 231 225
f 226 225 231
f 249 226 231
f 224 226 249
f 231 250 249
f 250 231 229
f 250 251 249
f 249 252 224
f 252 249 251
f 251 250 229
f 253 251 229
f 251 253 254
f 254 252 251
f 255 252 254
f 255 224 252
f 254 217 255
f 248 254 247
f 256 247 254
f 217 254 248
f 257 258 254
f 258 256 254
f 259 260 254
f 260 257 254
f 261 262 254
f 262 259 254
f 263 261 254
f 253 263 254
f 264 247 256
f 247 264 265
f 247 265 245
f 245 266 246
f 266 245 265
f 255 246 266
f 244 246 255
f 266 224 255
f 255 216 244
f 242 216 255
f 255 217 234
f 255 234 243
f 255 243 242
f 218 234 217
f 244 216 237
f 267 237 216
f 216 268 267
f 215 268 216
f 237 269 244
f 236 269 237
f 237 267 238
f 270 238 267
f 267 271 270
f 272 271 267
f 267 273 272
f 273 267 268
f 268 274 275
f 215 276 268
f 274 268 276
f 277 268 275
f 268 278 279
f 268 279 273
f 277 278 268
f 272 273 280
f 281 280 273
f 273 279 281
f 272 282 283
f 272 283 271
f 282 272 284
f 280 284 272
f 285 270 271
f 271 283 285
f 238 270 285
f 285 215 238
f 285 286 287
f 286 285 283
f 287 215 285
f 283 288 286
f 289 288 283
f 282 289 283
f 284 290 282
f 289 282 291
f 290 291 282
f 284 280 215
f 284 215 287
f 287 290 284
f 215 280 281
f 292 281 279
f 281 292 293
f 281 293 215
f 279 278 294
f 294 292 279
f 278 277 294
f 295 294 277
f 296 295 277
f 297 277 275
f 277 297 296
f 292 294 293
f 293 294 295
f 298 299 293
f 295 300 293
f 300 298 293
f 299 215 293
f 300 295 296
f 296 287 300
f 287 296 291
f 291 296 297
f 287 286 301
f 301 229 287
f 302 303 287
f 302 287 229
f 303 300 287
f 287 291 290
f 301 286 288
f 304 305 288
f 304 288 275
f 289 275 288
f 288 305 301
f 297 289 291
f 289 297 275
f 306 275 307
f 274 307 275
f 275 306 304
f 308 309 304
f 304 306 308
f 309 303 304
f 310 304 303
f 304 310 305
f 303 309 300
f 303 302 310
f 308 298 300
f 300 309 308
f 311 298 307
f 299 298 311
f 298 229 307
f 229 298 312
f 313 312 298
f 298 308 313
f 299 311 314
f 215 299 315
f 314 315 299
f 215 315 276
f 314 276 315
f 276 314 274
f 314 307 274
f 307 314 311
f 307 316 306
f 307 317 316
f 224 307 229
f 317 307 224
f 313 308 306
f 306 316 313
f 312 313 317
f 316 317 313
f 317 318 312
f 319 312 318
f 312 319 229
f 318 317 224
f 320 318 224
f 321 224 266
f 320 224 321
f 318 320 319
f 302 319 320
f 229 319 302
f 320 310 302
f 322 310 320
f 310 322 323
f 310 323 305
f 301 305 323
f 323 322 324
f 324 325 323
f 323 325 301
f 320 321 322
f 324 322 321
f 266 326 321
f 321 264 324
f 264 321 326
f 265 326 266
f 326 265 264
f 229 324 264
f 256 229 264
f 301 325 324
f 324 229 301
f 262 261 229
f 229 256 258
f 229 257 260
f 261 263 229
f 258 257 229
f 260 259 229
f 229 259 262
f 229 263 253
f 244 269 236
f 236 240 244
f 327 328 164
f 329 330 164
f 331 164 332
f 333 329 164
f 164 331 198
f 330 334 164
f 334 332 164
f 335 327 164
f 167 335 164
f 328 336 164
f 336 337 164
f 337 333 164
f 82 327 335
f 328 327 82
f 82 336 328
f 337 336 82
f 82 333 337
f 329 333 82
f 82 330 329
f 334 330 82
f 82 332 334
f 338 332 82
f 332 338 331
f 82 339 338
f 338 339 331
f 340 339 82
f 339 340 331
f 82 341 340
f 340 341 331
f 342 341 82
f 341 342 331
f 343 342 82
f 342 343 331
f 344 343 82
f 343 344 331
f 82 345 344
f 344 345 331
f 346 345 82
f 345 346 331
f 82 347 346
f 346 347 331
f 348 347 82
f 347 348 331
f 82 349 348
f 348 349 331
f 82 350 349
f 349 350 331
f 351 350 82
f 350 351 331
f 352 351 82
f 351 352 331
f 82 353 352
f 352 353 331
f 82 354 353
f 353 354 331
f 355 354 82
f 354 355 331
f 82 356 355
f 355 356 331
f 82 357 356
f 356 357 331
f 358 357 82
f 357 358 331
f 82 359 358
f 358 359 331
f 360 359 82
f 359 360 331
f 361 360 82
f 360 361 331
f 82 362 361
f 361 362 331
f 363 362 82
f 362 363 331
f 82 364 363
f 363 364 331
f 82 365 364
f 364 365 331
f 366 365 82
f 365 366 331
f 367 366 82
f 366 367 331
f 82 368 367
f 367 368 331
f 369 368 82
f 368 369 331
f 82 370 369
f 369 370 331
f 82 371 370
f 370 371 331
f 372 371 82
f 371 372 331
f 373 372 82
f 372 373 331
f 82 374 373
f 373 374 331
f 375 376 331
f 198 331 377
f 374 378 331
f 378 379 331
f 379 380 331
f 380 381 331
f 381 375 331
f 331 376 377
f 378 374 82
f 82 379 378
f 380 379 82
f 82 381 380
f 375 381 82
f 82 376 375
f 136 135 82
f 84 136 82
f 82 377 376
f 82 382 146
f 146 377 82
f 135 1 82
f 383 82 1
f 82 383 382
f 335 167 82
f 377 146 198
f 198 146 195
f 146 382 147
f 148 195 146
f 382 383 1
f 147 382 1
f 1 384 175
f 1 193 147
f 135 12 1
f 28 384 1
f 121 147 193
f 193 190 121
f 121 190 189
f 385 386 189
f 189 386 387
f 189 387 121
f 189 43 388
f 389 189 388
f 189 389 385
f 121 385 389
f 386 385 121
f 121 387 386
f 121 390 118
f 391 390 121
f 121 392 391
f 393 392 121
f 121 394 393
f 395 394 121
f 121 396 395
f 397 396 121
f 121 398 397
f 399 398 121
f 121 400 399
f 401 400 121
f 121 389 401
f 388 401 389
f 400 401 388
f 388 399 400
f 398 399 388
f 388 397 398
f 388 395 396
f 394 395 388
f 396 397 388
f 390 388 43
f 390 391 388
f 388 391 392
f 392 393 388
f 388 393 394
f 43 118 390
f 42 402 43
f 43 403 132
f 43 402 403
f 402 42 14
f 14 15 402
f 403 402 15
f 15 13 403
f 132 403 13
f 13 133 132
f 133 13 11
f 134 11 12
f 384 404 405
f 405 175 384
f 404 384 28
f 405 404 29
f 404 27 29
f 28 27 404
f 406 405 29
f 175 405 406
f 406 177 175
f 177 406 407
f 407 406 29
f 408 407 29
f 409 408 29
f 30 169 29
f 170 409 29
f 169 170 29
f 176 407 408
f 407 176 177
f 176 408 409
f 171 409 170
f 409 171 176
f 194 195 148
f 148 191 194
f 192 194 191
f 148 45 191
f 75 74 45
f 57 58 140
f 58 59 141
f 141 140 58
f 142 141 59
f 59 60 142
f 143 142 60
f 410 60 61
f 60 410 143
f 144 143 410
f 410 100 144
f 61 100 410
f 101 144 100
