<svg xmlns="http://www.w3.org/2000/svg" viewBox="0 0 620 462" font-family="Helvetica,Arial,sans-serif">
<rect x="70" y="70" width="440.0" height="224.0" fill="#c99a62" stroke="#5b3b17" stroke-width="2" rx="2"/>
<text x="290.0" y="36" font-size="17" font-weight="700" text-anchor="middle" fill="#222">Left short flap (outside face, standing up)</text>
<text x="290.0" y="58" font-size="12" text-anchor="middle" fill="#555">free edge</text>
<text x="290.0" y="312.0" font-size="12" text-anchor="middle" fill="#555">fold line</text>
<text x="60" y="182.0" font-size="12" text-anchor="middle" fill="#555" transform="rotate(-90 60 182.0)">far end</text>
<text x="524.0" y="182.0" font-size="12" text-anchor="middle" fill="#555" transform="rotate(90 524.0 182.0)">near end (robot side)</text>
<text x="290.0" y="386.0" font-size="12" text-anchor="middle" fill="#333">275 × 140 mm · the left arm folds this flap</text>
<rect x="143.0" y="115.0" width="70.0" height="70.0" fill="white" stroke="#888" stroke-width="0.6"/>
<rect x="150.00" y="122.00" width="7.05" height="7.05" fill="black"/>
<rect x="157.00" y="122.00" width="7.05" height="7.05" fill="black"/>
<rect x="164.00" y="122.00" width="7.05" height="7.05" fill="black"/>
<rect x="171.00" y="122.00" width="7.05" height="7.05" fill="black"/>
<rect x="178.00" y="122.00" width="7.05" height="7.05" fill="black"/>
<rect x="185.00" y="122.00" width="7.05" height="7.05" fill="black"/>
<rect x="192.00" y="122.00" width="7.05" height="7.05" fill="black"/>
<rect x="199.00" y="122.00" width="7.05" height="7.05" fill="black"/>
<rect x="150.00" y="129.00" width="7.05" height="7.05" fill="black"/>
<rect x="164.00" y="129.00" width="7.05" height="7.05" fill="black"/>
<rect x="178.00" y="129.00" width="7.05" height="7.05" fill="black"/>
<rect x="192.00" y="129.00" width="7.05" height="7.05" fill="black"/>
<rect x="199.00" y="129.00" width="7.05" height="7.05" fill="black"/>
<rect x="150.00" y="136.00" width="7.05" height="7.05" fill="black"/>
<rect x="171.00" y="136.00" width="7.05" height="7.05" fill="black"/>
<rect x="178.00" y="136.00" width="7.05" height="7.05" fill="black"/>
<rect x="199.00" y="136.00" width="7.05" height="7.05" fill="black"/>
<rect x="150.00" y="143.00" width="7.05" height="7.05" fill="black"/>
<rect x="157.00" y="143.00" width="7.05" height="7.05" fill="black"/>
<rect x="171.00" y="143.00" width="7.05" height="7.05" fill="black"/>
<rect x="178.00" y="143.00" width="7.05" height="7.05" fill="black"/>
<rect x="185.00" y="143.00" width="7.05" height="7.05" fill="black"/>
<rect x="199.00" y="143.00" width="7.05" height="7.05" fill="black"/>
<rect x="150.00" y="150.00" width="7.05" height="7.05" fill="black"/>
<rect x="164.00" y="150.00" width="7.05" height="7.05" fill="black"/>
<rect x="178.00" y="150.00" width="7.05" height="7.05" fill="black"/>
<rect x="185.00" y="150.00" width="7.05" height="7.05" fill="black"/>
<rect x="199.00" y="150.00" width="7.05" height="7.05" fill="black"/>
<rect x="150.00" y="157.00" width="7.05" height="7.05" fill="black"/>
<rect x="199.00" y="157.00" width="7.05" height="7.05" fill="black"/>
<rect x="150.00" y="164.00" width="7.05" height="7.05" fill="black"/>
<rect x="185.00" y="164.00" width="7.05" height="7.05" fill="black"/>
<rect x="192.00" y="164.00" width="7.05" height="7.05" fill="black"/>
<rect x="199.00" y="164.00" width="7.05" height="7.05" fill="black"/>
<rect x="150.00" y="171.00" width="7.05" height="7.05" fill="black"/>
<rect x="157.00" y="171.00" width="7.05" height="7.05" fill="black"/>
<rect x="164.00" y="171.00" width="7.05" height="7.05" fill="black"/>
<rect x="171.00" y="171.00" width="7.05" height="7.05" fill="black"/>
<rect x="178.00" y="171.00" width="7.05" height="7.05" fill="black"/>
<rect x="185.00" y="171.00" width="7.05" height="7.05" fill="black"/>
<rect x="192.00" y="171.00" width="7.05" height="7.05" fill="black"/>
<rect x="199.00" y="171.00" width="7.05" height="7.05" fill="black"/>
<line x1="160.5" y1="294.0" x2="160.5" y2="178.0" stroke="#1971c2" stroke-width="1.8"/><line x1="153.5" y1="178.0" x2="167.5" y2="178.0" stroke="#1971c2" stroke-width="1.8"/>
<text x="166.5" y="241.0" font-size="13" font-weight="700" fill="#1971c2">73</text>
<line x1="70" y1="328.0" x2="150.0" y2="328.0" stroke="#d6336c" stroke-width="1.6"/><line x1="70" y1="323.0" x2="70" y2="333.0" stroke="#d6336c" stroke-width="1.6"/><line x1="150.0" y1="178.0" x2="150.0" y2="333.0" stroke="#d6336c" stroke-width="1.2" stroke-dasharray="2 3"/>
<text x="156.0" y="332.0" font-size="13" font-weight="700" fill="#d6336c">50 mm → ID 11</text>
<text x="178.0" y="109.0" font-size="14" font-weight="700" text-anchor="middle" fill="#111">ID 11</text>
<text x="70" y="440" font-size="12" fill="#555"><tspan fill="#d6336c" font-weight="700">pink</tspan>: mm from the far end to the LEFT EDGE of the black square</text>
<text x="70" y="456" font-size="12" fill="#555"><tspan fill="#1971c2" font-weight="700">blue</tspan>: mm from the fold line to the NEAREST EDGE of the black square</text>
</svg>