<svg xmlns="http://www.w3.org/2000/svg" viewBox="0 0 786 713" font-family="Helvetica,Arial,sans-serif">
<rect x="70" y="70" width="606.4" height="452.8" fill="#c99a62" stroke="#5b3b17" stroke-width="2" rx="2"/>
<text x="373.2" y="36" font-size="17" font-weight="700" text-anchor="middle" fill="#222">Inside floor (from above, standing at the robot)</text>
<text x="373.2" y="58" font-size="12" text-anchor="middle" fill="#555">far wall</text>
<text x="373.2" y="540.8" font-size="12" text-anchor="middle" fill="#555">near wall (robot side)</text>
<text x="60" y="296.4" font-size="12" text-anchor="middle" fill="#555" transform="rotate(-90 60 296.4)">robot's LEFT</text>
<text x="690.4" y="296.4" font-size="12" text-anchor="middle" fill="#555" transform="rotate(90 690.4 296.4)">robot's RIGHT</text>
<text x="373.2" y="636.8" font-size="12" text-anchor="middle" fill="#333">379 × 283 mm · 2 tags, both centred front to back</text>
<rect x="328.2" y="251.4" width="90.0" height="90.0" fill="white" stroke="#888" stroke-width="0.6"/>
<rect x="337.20" y="260.40" width="9.05" height="9.05" fill="black"/>
<rect x="346.20" y="260.40" width="9.05" height="9.05" fill="black"/>
<rect x="355.20" y="260.40" width="9.05" height="9.05" fill="black"/>
<rect x="364.20" y="260.40" width="9.05" height="9.05" fill="black"/>
<rect x="373.20" y="260.40" width="9.05" height="9.05" fill="black"/>
<rect x="382.20" y="260.40" width="9.05" height="9.05" fill="black"/>
<rect x="391.20" y="260.40" width="9.05" height="9.05" fill="black"/>
<rect x="400.20" y="260.40" width="9.05" height="9.05" fill="black"/>
<rect x="337.20" y="269.40" width="9.05" height="9.05" fill="black"/>
<rect x="364.20" y="269.40" width="9.05" height="9.05" fill="black"/>
<rect x="382.20" y="269.40" width="9.05" height="9.05" fill="black"/>
<rect x="400.20" y="269.40" width="9.05" height="9.05" fill="black"/>
<rect x="337.20" y="278.40" width="9.05" height="9.05" fill="black"/>
<rect x="373.20" y="278.40" width="9.05" height="9.05" fill="black"/>
<rect x="382.20" y="278.40" width="9.05" height="9.05" fill="black"/>
<rect x="400.20" y="278.40" width="9.05" height="9.05" fill="black"/>
<rect x="337.20" y="287.40" width="9.05" height="9.05" fill="black"/>
<rect x="355.20" y="287.40" width="9.05" height="9.05" fill="black"/>
<rect x="382.20" y="287.40" width="9.05" height="9.05" fill="black"/>
<rect x="391.20" y="287.40" width="9.05" height="9.05" fill="black"/>
<rect x="400.20" y="287.40" width="9.05" height="9.05" fill="black"/>
<rect x="337.20" y="296.40" width="9.05" height="9.05" fill="black"/>
<rect x="346.20" y="296.40" width="9.05" height="9.05" fill="black"/>
<rect x="373.20" y="296.40" width="9.05" height="9.05" fill="black"/>
<rect x="391.20" y="296.40" width="9.05" height="9.05" fill="black"/>
<rect x="400.20" y="296.40" width="9.05" height="9.05" fill="black"/>
<rect x="337.20" y="305.40" width="9.05" height="9.05" fill="black"/>
<rect x="346.20" y="305.40" width="9.05" height="9.05" fill="black"/>
<rect x="355.20" y="305.40" width="9.05" height="9.05" fill="black"/>
<rect x="391.20" y="305.40" width="9.05" height="9.05" fill="black"/>
<rect x="400.20" y="305.40" width="9.05" height="9.05" fill="black"/>
<rect x="337.20" y="314.40" width="9.05" height="9.05" fill="black"/>
<rect x="364.20" y="314.40" width="9.05" height="9.05" fill="black"/>
<rect x="382.20" y="314.40" width="9.05" height="9.05" fill="black"/>
<rect x="400.20" y="314.40" width="9.05" height="9.05" fill="black"/>
<rect x="337.20" y="323.40" width="9.05" height="9.05" fill="black"/>
<rect x="346.20" y="323.40" width="9.05" height="9.05" fill="black"/>
<rect x="355.20" y="323.40" width="9.05" height="9.05" fill="black"/>
<rect x="364.20" y="323.40" width="9.05" height="9.05" fill="black"/>
<rect x="373.20" y="323.40" width="9.05" height="9.05" fill="black"/>
<rect x="382.20" y="323.40" width="9.05" height="9.05" fill="black"/>
<rect x="391.20" y="323.40" width="9.05" height="9.05" fill="black"/>
<rect x="400.20" y="323.40" width="9.05" height="9.05" fill="black"/>
<line x1="350.7" y1="522.8" x2="350.7" y2="332.4" stroke="#1971c2" stroke-width="1.8"/><line x1="341.7" y1="332.4" x2="359.7" y2="332.4" stroke="#1971c2" stroke-width="1.8"/>
<text x="356.7" y="432.6" font-size="13" font-weight="700" fill="#1971c2">119</text>
<line x1="70" y1="556.8" x2="337.2" y2="556.8" stroke="#d6336c" stroke-width="1.6"/><line x1="70" y1="551.8" x2="70" y2="561.8" stroke="#d6336c" stroke-width="1.6"/><line x1="337.2" y1="332.4" x2="337.2" y2="561.8" stroke="#d6336c" stroke-width="1.2" stroke-dasharray="2 3"/>
<text x="343.2" y="560.8" font-size="13" font-weight="700" fill="#d6336c">167 mm → ID 25</text>
<text x="373.2" y="245.4" font-size="14" font-weight="700" text-anchor="middle" fill="#111">ID 25</text>
<rect x="456.2" y="251.4" width="90.0" height="90.0" fill="white" stroke="#888" stroke-width="0.6"/>
<rect x="465.20" y="260.40" width="9.05" height="9.05" fill="black"/>
<rect x="474.20" y="260.40" width="9.05" height="9.05" fill="black"/>
<rect x="483.20" y="260.40" width="9.05" height="9.05" fill="black"/>
<rect x="492.20" y="260.40" width="9.05" height="9.05" fill="black"/>
<rect x="501.20" y="260.40" width="9.05" height="9.05" fill="black"/>
<rect x="510.20" y="260.40" width="9.05" height="9.05" fill="black"/>
<rect x="519.20" y="260.40" width="9.05" height="9.05" fill="black"/>
<rect x="528.20" y="260.40" width="9.05" height="9.05" fill="black"/>
<rect x="465.20" y="269.40" width="9.05" height="9.05" fill="black"/>
<rect x="474.20" y="269.40" width="9.05" height="9.05" fill="black"/>
<rect x="483.20" y="269.40" width="9.05" height="9.05" fill="black"/>
<rect x="519.20" y="269.40" width="9.05" height="9.05" fill="black"/>
<rect x="528.20" y="269.40" width="9.05" height="9.05" fill="black"/>
<rect x="465.20" y="278.40" width="9.05" height="9.05" fill="black"/>
<rect x="474.20" y="278.40" width="9.05" height="9.05" fill="black"/>
<rect x="492.20" y="278.40" width="9.05" height="9.05" fill="black"/>
<rect x="501.20" y="278.40" width="9.05" height="9.05" fill="black"/>
<rect x="510.20" y="278.40" width="9.05" height="9.05" fill="black"/>
<rect x="528.20" y="278.40" width="9.05" height="9.05" fill="black"/>
<rect x="465.20" y="287.40" width="9.05" height="9.05" fill="black"/>
<rect x="474.20" y="287.40" width="9.05" height="9.05" fill="black"/>
<rect x="483.20" y="287.40" width="9.05" height="9.05" fill="black"/>
<rect x="528.20" y="287.40" width="9.05" height="9.05" fill="black"/>
<rect x="465.20" y="296.40" width="9.05" height="9.05" fill="black"/>
<rect x="474.20" y="296.40" width="9.05" height="9.05" fill="black"/>
<rect x="492.20" y="296.40" width="9.05" height="9.05" fill="black"/>
<rect x="510.20" y="296.40" width="9.05" height="9.05" fill="black"/>
<rect x="528.20" y="296.40" width="9.05" height="9.05" fill="black"/>
<rect x="465.20" y="305.40" width="9.05" height="9.05" fill="black"/>
<rect x="474.20" y="305.40" width="9.05" height="9.05" fill="black"/>
<rect x="483.20" y="305.40" width="9.05" height="9.05" fill="black"/>
<rect x="510.20" y="305.40" width="9.05" height="9.05" fill="black"/>
<rect x="528.20" y="305.40" width="9.05" height="9.05" fill="black"/>
<rect x="465.20" y="314.40" width="9.05" height="9.05" fill="black"/>
<rect x="474.20" y="314.40" width="9.05" height="9.05" fill="black"/>
<rect x="483.20" y="314.40" width="9.05" height="9.05" fill="black"/>
<rect x="492.20" y="314.40" width="9.05" height="9.05" fill="black"/>
<rect x="510.20" y="314.40" width="9.05" height="9.05" fill="black"/>
<rect x="528.20" y="314.40" width="9.05" height="9.05" fill="black"/>
<rect x="465.20" y="323.40" width="9.05" height="9.05" fill="black"/>
<rect x="474.20" y="323.40" width="9.05" height="9.05" fill="black"/>
<rect x="483.20" y="323.40" width="9.05" height="9.05" fill="black"/>
<rect x="492.20" y="323.40" width="9.05" height="9.05" fill="black"/>
<rect x="501.20" y="323.40" width="9.05" height="9.05" fill="black"/>
<rect x="510.20" y="323.40" width="9.05" height="9.05" fill="black"/>
<rect x="519.20" y="323.40" width="9.05" height="9.05" fill="black"/>
<rect x="528.20" y="323.40" width="9.05" height="9.05" fill="black"/>
<line x1="478.7" y1="522.8" x2="478.7" y2="332.4" stroke="#1971c2" stroke-width="1.8"/><line x1="469.7" y1="332.4" x2="487.7" y2="332.4" stroke="#1971c2" stroke-width="1.8"/>
<text x="484.7" y="432.6" font-size="13" font-weight="700" fill="#1971c2">119</text>
<line x1="70" y1="578.8" x2="465.2" y2="578.8" stroke="#d6336c" stroke-width="1.6"/><line x1="70" y1="573.8" x2="70" y2="583.8" stroke="#d6336c" stroke-width="1.6"/><line x1="465.2" y1="332.4" x2="465.2" y2="583.8" stroke="#d6336c" stroke-width="1.2" stroke-dasharray="2 3"/>
<text x="471.2" y="582.8" font-size="13" font-weight="700" fill="#d6336c">247 mm → ID 24</text>
<text x="501.2" y="245.4" font-size="14" font-weight="700" text-anchor="middle" fill="#111">ID 24</text>
<text x="70" y="691" font-size="12" fill="#555"><tspan fill="#d6336c" font-weight="700">pink</tspan>: mm from the robot's LEFT to the LEFT EDGE of the black square</text>
<text x="70" y="707" font-size="12" fill="#555"><tspan fill="#1971c2" font-weight="700">blue</tspan>: mm from the near wall (robot side) to the NEAREST EDGE of the black square</text>
</svg>